M48
INCH,TZ
T1C0.025
T2C0.032
T3C0.045
%
G90
G05
T1
X64250Y-50350
X64250Y-54250
X65750Y-52250
X66600Y-52200
X67000Y-53750
X67400Y-53100
X67500Y-54100
X67800Y-50200
X68000Y-53100
X68400Y-52200
X69050Y-49700
X69100Y-51550
X69150Y-50300
X69350Y-51100
X69900Y-50500
X70200Y-49400
X70500Y-52000
X70600Y-48900
X70900Y-50500
X71600Y-49400
X71750Y-53750
X71900Y-51900
X72200Y-50500
X72300Y-52300
X72600Y-49600
X73850Y-49400
X73850Y-51150
X73850Y-52800
X73850Y-54300
X74500Y-48500
X77400Y-46800
X78400Y-49300
X78400Y-50800
X78400Y-52300
X78400Y-53800
X79700Y-46800
T2
X62900Y-46100
X62900Y-47600
X62900Y-49100
X67900Y-46100
X67900Y-47600
X67900Y-49100
T3
X69150Y-46150
X74150Y-46150
T0
M30
