G04 (created by PCBNEW (2013-07-07 BZR 4022)-stable) date 31/01/2014 7:15:20 p.m.*
%MOIN*%
G04 Gerber Fmt 3.4, Leading zero omitted, Abs format*
%FSLAX34Y34*%
G01*
G70*
G90*
G04 APERTURE LIST*
%ADD10C,0.00590551*%
%ADD11R,0.0512X0.0118*%
%ADD12R,0.0394X0.0315*%
%ADD13R,0.045X0.02*%
%ADD14R,0.06X0.08*%
%ADD15R,0.055X0.035*%
%ADD16R,0.035X0.055*%
%ADD17R,0.025X0.045*%
%ADD18R,0.045X0.025*%
%ADD19C,0.06*%
%ADD20R,0.05X0.015*%
%ADD21R,0.0472X0.0472*%
%ADD22C,0.07*%
%ADD23R,0.07X0.07*%
%ADD24C,0.035*%
%ADD25C,0.01*%
G04 APERTURE END LIST*
G54D10*
G54D11*
X68500Y-51710D03*
X68500Y-51460D03*
X68500Y-51200D03*
X68500Y-50950D03*
X68500Y-50690D03*
X68500Y-50435D03*
X68500Y-50180D03*
X66300Y-50180D03*
X66300Y-50435D03*
X66300Y-50690D03*
X66300Y-50950D03*
X66300Y-51205D03*
X66300Y-51460D03*
X66300Y-51715D03*
G54D12*
X73483Y-53850D03*
X72617Y-54225D03*
X72617Y-53475D03*
X73483Y-52150D03*
X72617Y-52525D03*
X72617Y-51775D03*
X73483Y-50450D03*
X72617Y-50825D03*
X72617Y-50075D03*
X73483Y-48700D03*
X72617Y-49075D03*
X72617Y-48325D03*
G54D13*
X68650Y-52700D03*
X68650Y-53200D03*
X68650Y-53700D03*
X68650Y-54200D03*
X66150Y-54200D03*
X66150Y-53700D03*
X66150Y-53200D03*
X66150Y-52700D03*
G54D14*
X74500Y-49550D03*
X75800Y-49550D03*
X79250Y-52800D03*
X80550Y-52800D03*
X74500Y-51050D03*
X75800Y-51050D03*
X79250Y-51400D03*
X80550Y-51400D03*
X74500Y-52550D03*
X75800Y-52550D03*
X79250Y-50050D03*
X80550Y-50050D03*
X74500Y-54050D03*
X75800Y-54050D03*
X79250Y-54300D03*
X80550Y-54300D03*
G54D15*
X62600Y-53525D03*
X62600Y-52775D03*
X63700Y-53525D03*
X63700Y-52775D03*
X64900Y-53525D03*
X64900Y-52775D03*
X62600Y-51825D03*
X62600Y-51075D03*
X63700Y-51825D03*
X63700Y-51075D03*
X64900Y-51825D03*
X64900Y-51075D03*
G54D16*
X70125Y-54100D03*
X70875Y-54100D03*
G54D17*
X71050Y-48850D03*
X71650Y-48850D03*
X69550Y-48850D03*
X70150Y-48850D03*
X69550Y-49950D03*
X70150Y-49950D03*
X71050Y-49950D03*
X71650Y-49950D03*
G54D18*
X71050Y-51000D03*
X71050Y-51600D03*
X69950Y-52450D03*
X69950Y-53050D03*
X69950Y-51000D03*
X69950Y-51600D03*
X71050Y-52450D03*
X71050Y-53050D03*
G54D19*
X67900Y-47600D03*
X62900Y-47600D03*
X62900Y-46100D03*
X67900Y-46100D03*
X62900Y-49100D03*
X67900Y-49100D03*
G54D20*
X77300Y-48034D03*
X77300Y-47778D03*
X77300Y-47522D03*
X77300Y-47266D03*
X75600Y-47266D03*
X75600Y-47522D03*
X75600Y-47778D03*
X75600Y-48034D03*
X80300Y-48034D03*
X80300Y-47778D03*
X80300Y-47522D03*
X80300Y-47266D03*
X78600Y-47266D03*
X78600Y-47522D03*
X78600Y-47778D03*
X78600Y-48034D03*
G54D21*
X76937Y-49150D03*
X77763Y-49150D03*
X77763Y-54400D03*
X76937Y-54400D03*
X77763Y-52900D03*
X76937Y-52900D03*
X76937Y-50650D03*
X77763Y-50650D03*
X77763Y-51400D03*
X76937Y-51400D03*
X76937Y-52150D03*
X77763Y-52150D03*
X76937Y-53650D03*
X77763Y-53650D03*
X77763Y-49900D03*
X76937Y-49900D03*
G54D22*
X69150Y-46150D03*
G54D23*
X74150Y-46150D03*
G54D24*
X79700Y-46800D03*
X77400Y-46800D03*
X78400Y-49300D03*
X78400Y-50800D03*
X78400Y-53800D03*
X78400Y-52300D03*
X67800Y-50200D03*
X72300Y-52300D03*
X72200Y-50500D03*
X72600Y-49600D03*
X71750Y-53750D03*
X65750Y-52250D03*
X73850Y-54300D03*
X69100Y-51550D03*
X73850Y-52800D03*
X69350Y-51100D03*
X73850Y-51150D03*
X69150Y-50300D03*
X73850Y-49400D03*
X69050Y-49700D03*
X67400Y-53100D03*
X67000Y-53750D03*
X70200Y-49400D03*
X71600Y-49400D03*
X70500Y-52000D03*
X71900Y-51900D03*
X64250Y-50350D03*
X64250Y-54250D03*
X74500Y-48500D03*
X70600Y-48900D03*
X67500Y-54100D03*
X68000Y-53100D03*
X68400Y-52200D03*
X66600Y-52200D03*
X70900Y-50500D03*
X69900Y-50500D03*
G54D25*
X80300Y-47266D02*
X80166Y-47266D01*
X80166Y-47266D02*
X79700Y-46800D01*
X77300Y-47266D02*
X77300Y-46900D01*
X77300Y-46900D02*
X77400Y-46800D01*
X77763Y-49150D02*
X78150Y-49150D01*
X78300Y-49300D02*
X78400Y-49300D01*
X78150Y-49150D02*
X78300Y-49300D01*
X77763Y-50650D02*
X78150Y-50650D01*
X78300Y-50800D02*
X78400Y-50800D01*
X78150Y-50650D02*
X78300Y-50800D01*
X77763Y-53650D02*
X78050Y-53650D01*
X78200Y-53800D02*
X78400Y-53800D01*
X78050Y-53650D02*
X78200Y-53800D01*
X77763Y-52150D02*
X78050Y-52150D01*
X78200Y-52300D02*
X78400Y-52300D01*
X78050Y-52150D02*
X78200Y-52300D01*
X68500Y-50180D02*
X67820Y-50180D01*
X67820Y-50180D02*
X67800Y-50200D01*
X72617Y-52525D02*
X72525Y-52525D01*
X72525Y-52525D02*
X72300Y-52300D01*
X72617Y-50825D02*
X72525Y-50825D01*
X72525Y-50825D02*
X72200Y-50500D01*
X72617Y-49075D02*
X72617Y-49583D01*
X72617Y-49583D02*
X72600Y-49600D01*
X72617Y-54225D02*
X72225Y-54225D01*
X71400Y-54100D02*
X71750Y-53750D01*
X71400Y-54100D02*
X70875Y-54100D01*
X72225Y-54225D02*
X71750Y-53750D01*
X66150Y-52700D02*
X66150Y-52650D01*
X66150Y-52650D02*
X65750Y-52250D01*
X64900Y-51075D02*
X63700Y-51075D01*
X63700Y-51075D02*
X62600Y-51075D01*
X62600Y-51075D02*
X62500Y-50975D01*
X62500Y-50975D02*
X62500Y-49500D01*
X62500Y-49500D02*
X62900Y-49100D01*
X62900Y-49100D02*
X62900Y-47600D01*
X68500Y-51460D02*
X69010Y-51460D01*
X74100Y-54050D02*
X74500Y-54050D01*
X73850Y-54300D02*
X74100Y-54050D01*
X69010Y-51460D02*
X69100Y-51550D01*
X68650Y-54200D02*
X70025Y-54200D01*
X70025Y-54200D02*
X70125Y-54100D01*
X66150Y-53200D02*
X67000Y-53200D01*
X67500Y-53700D02*
X68650Y-53700D01*
X67000Y-53200D02*
X67500Y-53700D01*
X68650Y-53700D02*
X69300Y-53700D01*
X69300Y-53700D02*
X69950Y-53050D01*
X69950Y-53050D02*
X71050Y-53050D01*
X64900Y-53525D02*
X65275Y-53525D01*
X65600Y-53200D02*
X66150Y-53200D01*
X65275Y-53525D02*
X65600Y-53200D01*
X63700Y-53525D02*
X64900Y-53525D01*
X62600Y-53525D02*
X63700Y-53525D01*
X76937Y-53650D02*
X76200Y-53650D01*
X76200Y-53650D02*
X75800Y-54050D01*
X77763Y-49900D02*
X79100Y-49900D01*
X79100Y-49900D02*
X79250Y-50050D01*
X73483Y-48700D02*
X73483Y-49633D01*
X76550Y-49900D02*
X76937Y-49900D01*
X76200Y-50250D02*
X76550Y-49900D01*
X74100Y-50250D02*
X76200Y-50250D01*
X73483Y-49633D02*
X74100Y-50250D01*
X68500Y-50950D02*
X69200Y-50950D01*
X74100Y-52550D02*
X74500Y-52550D01*
X73850Y-52800D02*
X74100Y-52550D01*
X69200Y-50950D02*
X69350Y-51100D01*
X76937Y-52150D02*
X76200Y-52150D01*
X76200Y-52150D02*
X75800Y-52550D01*
X77763Y-51400D02*
X79250Y-51400D01*
X68500Y-50435D02*
X69015Y-50435D01*
X73950Y-51050D02*
X74500Y-51050D01*
X73850Y-51150D02*
X73950Y-51050D01*
X69015Y-50435D02*
X69150Y-50300D01*
X78600Y-47266D02*
X79266Y-47266D01*
X79522Y-47522D02*
X80300Y-47522D01*
X79266Y-47266D02*
X79522Y-47522D01*
X67900Y-47600D02*
X74400Y-47600D01*
X74734Y-47266D02*
X75600Y-47266D01*
X74400Y-47600D02*
X74734Y-47266D01*
X77300Y-47522D02*
X76522Y-47522D01*
X76522Y-47522D02*
X76250Y-47250D01*
X76250Y-47250D02*
X75616Y-47250D01*
X75616Y-47250D02*
X75600Y-47266D01*
X77300Y-47522D02*
X77728Y-47522D01*
X77984Y-47266D02*
X78600Y-47266D01*
X77728Y-47522D02*
X77984Y-47266D01*
X67900Y-46100D02*
X67900Y-47600D01*
X76937Y-50650D02*
X76200Y-50650D01*
X76200Y-50650D02*
X75800Y-51050D01*
X77763Y-52900D02*
X79150Y-52900D01*
X79150Y-52900D02*
X79250Y-52800D01*
X66300Y-50180D02*
X66300Y-49900D01*
X74000Y-49550D02*
X74500Y-49550D01*
X73850Y-49400D02*
X74000Y-49550D01*
X66500Y-49700D02*
X69050Y-49700D01*
X66300Y-49900D02*
X66500Y-49700D01*
X76937Y-49150D02*
X76200Y-49150D01*
X76200Y-49150D02*
X75800Y-49550D01*
X77763Y-54400D02*
X79150Y-54400D01*
X79150Y-54400D02*
X79250Y-54300D01*
X73483Y-50450D02*
X73483Y-51483D01*
X76450Y-51400D02*
X76937Y-51400D01*
X76100Y-51750D02*
X76450Y-51400D01*
X73750Y-51750D02*
X76100Y-51750D01*
X73483Y-51483D02*
X73750Y-51750D01*
X73483Y-52150D02*
X73483Y-53183D01*
X76600Y-52900D02*
X76937Y-52900D01*
X76200Y-53300D02*
X76600Y-52900D01*
X73600Y-53300D02*
X76200Y-53300D01*
X73483Y-53183D02*
X73600Y-53300D01*
X73483Y-53850D02*
X73483Y-54433D01*
X76487Y-54850D02*
X76937Y-54400D01*
X73900Y-54850D02*
X76487Y-54850D01*
X73483Y-54433D02*
X73900Y-54850D01*
X62600Y-51825D02*
X62600Y-52775D01*
X63700Y-51825D02*
X63700Y-52775D01*
X66150Y-53700D02*
X66950Y-53700D01*
X67450Y-53050D02*
X67450Y-51600D01*
X67400Y-53100D02*
X67450Y-53050D01*
X66950Y-53700D02*
X67000Y-53750D01*
X68500Y-50690D02*
X69310Y-50690D01*
X69550Y-50450D02*
X69550Y-49950D01*
X69310Y-50690D02*
X69550Y-50450D01*
X68500Y-51710D02*
X67560Y-51710D01*
X67450Y-51600D02*
X67450Y-51050D01*
X67560Y-51710D02*
X67450Y-51600D01*
X68500Y-51200D02*
X67600Y-51200D01*
X67450Y-51050D02*
X67450Y-50690D01*
X67600Y-51200D02*
X67450Y-51050D01*
X66300Y-50435D02*
X67185Y-50435D01*
X67440Y-50690D02*
X67450Y-50690D01*
X67450Y-50690D02*
X68500Y-50690D01*
X67185Y-50435D02*
X67440Y-50690D01*
X69550Y-48850D02*
X69550Y-48350D01*
X71050Y-48350D02*
X71050Y-48850D01*
X71000Y-48300D02*
X71050Y-48350D01*
X69600Y-48300D02*
X71000Y-48300D01*
X69550Y-48350D02*
X69600Y-48300D01*
X69550Y-49950D02*
X69550Y-48850D01*
X71050Y-48850D02*
X71050Y-49950D01*
X64900Y-51825D02*
X64900Y-52775D01*
X71050Y-52450D02*
X71050Y-51600D01*
X69950Y-52450D02*
X69950Y-51600D01*
X68650Y-53200D02*
X69200Y-53200D01*
X69200Y-53200D02*
X69950Y-52450D01*
X69950Y-52450D02*
X71050Y-52450D01*
X71650Y-48850D02*
X72092Y-48850D01*
X72092Y-48850D02*
X72617Y-48325D01*
X72617Y-50075D02*
X72275Y-50075D01*
X70150Y-49350D02*
X70150Y-48850D01*
X70200Y-49400D02*
X70150Y-49350D01*
X72000Y-49400D02*
X71600Y-49400D01*
X72000Y-49800D02*
X72000Y-49400D01*
X72275Y-50075D02*
X72000Y-49800D01*
X75600Y-47778D02*
X74872Y-47778D01*
X69050Y-47950D02*
X67900Y-49100D01*
X74700Y-47950D02*
X69050Y-47950D01*
X74872Y-47778D02*
X74700Y-47950D01*
X80300Y-47778D02*
X78600Y-47778D01*
X80300Y-48034D02*
X80300Y-47778D01*
X78600Y-47778D02*
X78600Y-47522D01*
X77300Y-47778D02*
X78600Y-47778D01*
X77300Y-47778D02*
X77300Y-48034D01*
X75600Y-47778D02*
X77300Y-47778D01*
X75600Y-47522D02*
X75600Y-47778D01*
X72617Y-51775D02*
X72025Y-51775D01*
X70150Y-50250D02*
X70150Y-49950D01*
X70500Y-50600D02*
X70150Y-50250D01*
X70500Y-52000D02*
X70500Y-50600D01*
X72025Y-51775D02*
X71900Y-51900D01*
X72617Y-53475D02*
X71975Y-53475D01*
X71500Y-50100D02*
X71650Y-49950D01*
X71500Y-53000D02*
X71500Y-50100D01*
X71975Y-53475D02*
X71500Y-53000D01*
X66150Y-54200D02*
X64300Y-54200D01*
X64300Y-54200D02*
X64250Y-54250D01*
X80550Y-50050D02*
X80550Y-49350D01*
X80550Y-49350D02*
X80200Y-49000D01*
X80200Y-49000D02*
X79000Y-49000D01*
X79000Y-49000D02*
X78600Y-48600D01*
X78600Y-48600D02*
X78600Y-48034D01*
X75600Y-48034D02*
X74966Y-48034D01*
X74966Y-48034D02*
X74500Y-48500D01*
X70900Y-50500D02*
X70800Y-50500D01*
X70600Y-50300D02*
X70600Y-48900D01*
X70800Y-50500D02*
X70600Y-50300D01*
X67400Y-54200D02*
X66150Y-54200D01*
X67500Y-54100D02*
X67400Y-54200D01*
X68400Y-52700D02*
X68000Y-53100D01*
X68650Y-52700D02*
X68400Y-52700D01*
X66300Y-51715D02*
X66300Y-51900D01*
X68650Y-52450D02*
X68650Y-52700D01*
X68400Y-52200D02*
X68650Y-52450D01*
X66300Y-51900D02*
X66600Y-52200D01*
X69950Y-51000D02*
X69950Y-50550D01*
X71050Y-50650D02*
X71050Y-51000D01*
X70900Y-50500D02*
X71050Y-50650D01*
X69950Y-50550D02*
X69900Y-50500D01*
G54D10*
G36*
X67150Y-52749D02*
X67039Y-52858D01*
X67021Y-52904D01*
X67000Y-52900D01*
X66604Y-52900D01*
X66624Y-52849D01*
X66625Y-52750D01*
X66625Y-52550D01*
X66587Y-52458D01*
X66516Y-52388D01*
X66424Y-52350D01*
X66325Y-52349D01*
X66274Y-52349D01*
X66174Y-52250D01*
X66175Y-52165D01*
X66116Y-52024D01*
X66187Y-52024D01*
X66250Y-51961D01*
X66250Y-51769D01*
X66350Y-51769D01*
X66350Y-51961D01*
X66412Y-52024D01*
X66506Y-52024D01*
X66605Y-52023D01*
X66697Y-51985D01*
X66768Y-51915D01*
X66806Y-51823D01*
X66806Y-51807D01*
X66743Y-51744D01*
X66664Y-51744D01*
X66697Y-51731D01*
X66743Y-51685D01*
X66743Y-51685D01*
X66806Y-51623D01*
X66806Y-51606D01*
X66798Y-51587D01*
X66805Y-51568D01*
X66806Y-51469D01*
X66806Y-51351D01*
X66798Y-51332D01*
X66805Y-51313D01*
X66806Y-51214D01*
X66806Y-51096D01*
X66798Y-51077D01*
X66805Y-51058D01*
X66806Y-50959D01*
X66806Y-50841D01*
X66797Y-50820D01*
X66805Y-50798D01*
X66806Y-50735D01*
X67060Y-50735D01*
X67150Y-50824D01*
X67150Y-51050D01*
X67150Y-51600D01*
X67150Y-52749D01*
X67150Y-52749D01*
G37*
G54D25*
X67150Y-52749D02*
X67039Y-52858D01*
X67021Y-52904D01*
X67000Y-52900D01*
X66604Y-52900D01*
X66624Y-52849D01*
X66625Y-52750D01*
X66625Y-52550D01*
X66587Y-52458D01*
X66516Y-52388D01*
X66424Y-52350D01*
X66325Y-52349D01*
X66274Y-52349D01*
X66174Y-52250D01*
X66175Y-52165D01*
X66116Y-52024D01*
X66187Y-52024D01*
X66250Y-51961D01*
X66250Y-51769D01*
X66350Y-51769D01*
X66350Y-51961D01*
X66412Y-52024D01*
X66506Y-52024D01*
X66605Y-52023D01*
X66697Y-51985D01*
X66768Y-51915D01*
X66806Y-51823D01*
X66806Y-51807D01*
X66743Y-51744D01*
X66664Y-51744D01*
X66697Y-51731D01*
X66743Y-51685D01*
X66743Y-51685D01*
X66806Y-51623D01*
X66806Y-51606D01*
X66798Y-51587D01*
X66805Y-51568D01*
X66806Y-51469D01*
X66806Y-51351D01*
X66798Y-51332D01*
X66805Y-51313D01*
X66806Y-51214D01*
X66806Y-51096D01*
X66798Y-51077D01*
X66805Y-51058D01*
X66806Y-50959D01*
X66806Y-50841D01*
X66797Y-50820D01*
X66805Y-50798D01*
X66806Y-50735D01*
X67060Y-50735D01*
X67150Y-50824D01*
X67150Y-51050D01*
X67150Y-51600D01*
X67150Y-52749D01*
G54D10*
G36*
X69650Y-52085D02*
X69583Y-52112D01*
X69513Y-52183D01*
X69475Y-52275D01*
X69474Y-52374D01*
X69474Y-52500D01*
X69124Y-52851D01*
X69125Y-52849D01*
X69125Y-52550D01*
X69087Y-52458D01*
X69016Y-52388D01*
X68924Y-52350D01*
X68825Y-52349D01*
X68762Y-52350D01*
X68700Y-52412D01*
X68700Y-52650D01*
X69062Y-52650D01*
X69125Y-52587D01*
X69125Y-52550D01*
X69125Y-52849D01*
X69125Y-52812D01*
X69062Y-52750D01*
X68700Y-52750D01*
X68700Y-52757D01*
X68600Y-52757D01*
X68600Y-52750D01*
X68600Y-52650D01*
X68600Y-52412D01*
X68537Y-52350D01*
X68474Y-52349D01*
X68375Y-52350D01*
X68283Y-52388D01*
X68212Y-52458D01*
X68174Y-52550D01*
X68175Y-52587D01*
X68237Y-52650D01*
X68600Y-52650D01*
X68600Y-52750D01*
X68237Y-52750D01*
X68175Y-52812D01*
X68174Y-52849D01*
X68212Y-52941D01*
X68221Y-52949D01*
X68213Y-52958D01*
X68175Y-53050D01*
X68174Y-53149D01*
X68174Y-53349D01*
X68195Y-53400D01*
X67701Y-53400D01*
X67760Y-53341D01*
X67824Y-53184D01*
X67825Y-53015D01*
X67760Y-52859D01*
X67750Y-52849D01*
X67750Y-52010D01*
X68172Y-52010D01*
X68194Y-52018D01*
X68293Y-52019D01*
X68805Y-52019D01*
X68897Y-51981D01*
X68936Y-51942D01*
X69015Y-51974D01*
X69184Y-51975D01*
X69340Y-51910D01*
X69460Y-51791D01*
X69474Y-51755D01*
X69474Y-51774D01*
X69512Y-51866D01*
X69583Y-51936D01*
X69650Y-51964D01*
X69650Y-52085D01*
X69650Y-52085D01*
G37*
G54D25*
X69650Y-52085D02*
X69583Y-52112D01*
X69513Y-52183D01*
X69475Y-52275D01*
X69474Y-52374D01*
X69474Y-52500D01*
X69124Y-52851D01*
X69125Y-52849D01*
X69125Y-52550D01*
X69087Y-52458D01*
X69016Y-52388D01*
X68924Y-52350D01*
X68825Y-52349D01*
X68762Y-52350D01*
X68700Y-52412D01*
X68700Y-52650D01*
X69062Y-52650D01*
X69125Y-52587D01*
X69125Y-52550D01*
X69125Y-52849D01*
X69125Y-52812D01*
X69062Y-52750D01*
X68700Y-52750D01*
X68700Y-52757D01*
X68600Y-52757D01*
X68600Y-52750D01*
X68600Y-52650D01*
X68600Y-52412D01*
X68537Y-52350D01*
X68474Y-52349D01*
X68375Y-52350D01*
X68283Y-52388D01*
X68212Y-52458D01*
X68174Y-52550D01*
X68175Y-52587D01*
X68237Y-52650D01*
X68600Y-52650D01*
X68600Y-52750D01*
X68237Y-52750D01*
X68175Y-52812D01*
X68174Y-52849D01*
X68212Y-52941D01*
X68221Y-52949D01*
X68213Y-52958D01*
X68175Y-53050D01*
X68174Y-53149D01*
X68174Y-53349D01*
X68195Y-53400D01*
X67701Y-53400D01*
X67760Y-53341D01*
X67824Y-53184D01*
X67825Y-53015D01*
X67760Y-52859D01*
X67750Y-52849D01*
X67750Y-52010D01*
X68172Y-52010D01*
X68194Y-52018D01*
X68293Y-52019D01*
X68805Y-52019D01*
X68897Y-51981D01*
X68936Y-51942D01*
X69015Y-51974D01*
X69184Y-51975D01*
X69340Y-51910D01*
X69460Y-51791D01*
X69474Y-51755D01*
X69474Y-51774D01*
X69512Y-51866D01*
X69583Y-51936D01*
X69650Y-51964D01*
X69650Y-52085D01*
G54D10*
G36*
X70100Y-50624D02*
X70062Y-50625D01*
X70000Y-50687D01*
X70000Y-50950D01*
X70007Y-50950D01*
X70007Y-51050D01*
X70000Y-51050D01*
X70000Y-51057D01*
X69900Y-51057D01*
X69900Y-51050D01*
X69892Y-51050D01*
X69892Y-50950D01*
X69900Y-50950D01*
X69900Y-50687D01*
X69837Y-50625D01*
X69786Y-50624D01*
X69827Y-50564D01*
X69849Y-50450D01*
X69850Y-50450D01*
X69850Y-50353D01*
X69883Y-50386D01*
X69889Y-50389D01*
X69889Y-50389D01*
X69937Y-50462D01*
X70100Y-50624D01*
X70100Y-50624D01*
G37*
G54D25*
X70100Y-50624D02*
X70062Y-50625D01*
X70000Y-50687D01*
X70000Y-50950D01*
X70007Y-50950D01*
X70007Y-51050D01*
X70000Y-51050D01*
X70000Y-51057D01*
X69900Y-51057D01*
X69900Y-51050D01*
X69892Y-51050D01*
X69892Y-50950D01*
X69900Y-50950D01*
X69900Y-50687D01*
X69837Y-50625D01*
X69786Y-50624D01*
X69827Y-50564D01*
X69849Y-50450D01*
X69850Y-50450D01*
X69850Y-50353D01*
X69883Y-50386D01*
X69889Y-50389D01*
X69889Y-50389D01*
X69937Y-50462D01*
X70100Y-50624D01*
G54D10*
G36*
X71200Y-50624D02*
X71162Y-50625D01*
X71100Y-50687D01*
X71100Y-50950D01*
X71107Y-50950D01*
X71107Y-51050D01*
X71100Y-51050D01*
X71100Y-51057D01*
X71000Y-51057D01*
X71000Y-51050D01*
X70992Y-51050D01*
X70992Y-50950D01*
X71000Y-50950D01*
X71000Y-50687D01*
X70937Y-50625D01*
X70874Y-50624D01*
X70800Y-50625D01*
X70800Y-50600D01*
X70799Y-50599D01*
X70777Y-50485D01*
X70712Y-50387D01*
X70712Y-50387D01*
X70524Y-50200D01*
X70525Y-50125D01*
X70525Y-49676D01*
X70560Y-49641D01*
X70624Y-49484D01*
X70625Y-49315D01*
X70560Y-49159D01*
X70524Y-49123D01*
X70525Y-49025D01*
X70525Y-48600D01*
X70675Y-48600D01*
X70674Y-48674D01*
X70674Y-49124D01*
X70712Y-49216D01*
X70750Y-49253D01*
X70750Y-49546D01*
X70713Y-49583D01*
X70675Y-49675D01*
X70674Y-49774D01*
X70674Y-50224D01*
X70712Y-50316D01*
X70783Y-50386D01*
X70875Y-50424D01*
X70974Y-50425D01*
X71200Y-50425D01*
X71200Y-50624D01*
X71200Y-50624D01*
G37*
G54D25*
X71200Y-50624D02*
X71162Y-50625D01*
X71100Y-50687D01*
X71100Y-50950D01*
X71107Y-50950D01*
X71107Y-51050D01*
X71100Y-51050D01*
X71100Y-51057D01*
X71000Y-51057D01*
X71000Y-51050D01*
X70992Y-51050D01*
X70992Y-50950D01*
X71000Y-50950D01*
X71000Y-50687D01*
X70937Y-50625D01*
X70874Y-50624D01*
X70800Y-50625D01*
X70800Y-50600D01*
X70799Y-50599D01*
X70777Y-50485D01*
X70712Y-50387D01*
X70712Y-50387D01*
X70524Y-50200D01*
X70525Y-50125D01*
X70525Y-49676D01*
X70560Y-49641D01*
X70624Y-49484D01*
X70625Y-49315D01*
X70560Y-49159D01*
X70524Y-49123D01*
X70525Y-49025D01*
X70525Y-48600D01*
X70675Y-48600D01*
X70674Y-48674D01*
X70674Y-49124D01*
X70712Y-49216D01*
X70750Y-49253D01*
X70750Y-49546D01*
X70713Y-49583D01*
X70675Y-49675D01*
X70674Y-49774D01*
X70674Y-50224D01*
X70712Y-50316D01*
X70783Y-50386D01*
X70875Y-50424D01*
X70974Y-50425D01*
X71200Y-50425D01*
X71200Y-50624D01*
G54D10*
G36*
X73775Y-55120D02*
X66625Y-55120D01*
X66625Y-54349D01*
X66625Y-54312D01*
X66562Y-54250D01*
X66200Y-54250D01*
X66200Y-54487D01*
X66262Y-54550D01*
X66325Y-54550D01*
X66424Y-54549D01*
X66516Y-54511D01*
X66587Y-54441D01*
X66625Y-54349D01*
X66625Y-55120D01*
X66100Y-55120D01*
X66100Y-54487D01*
X66100Y-54250D01*
X65737Y-54250D01*
X65675Y-54312D01*
X65674Y-54349D01*
X65712Y-54441D01*
X65783Y-54511D01*
X65875Y-54549D01*
X65974Y-54550D01*
X66037Y-54550D01*
X66100Y-54487D01*
X66100Y-55120D01*
X62079Y-55120D01*
X62079Y-53760D01*
X62112Y-53841D01*
X62183Y-53911D01*
X62275Y-53949D01*
X62374Y-53950D01*
X62924Y-53950D01*
X63016Y-53912D01*
X63086Y-53841D01*
X63093Y-53825D01*
X63206Y-53825D01*
X63212Y-53841D01*
X63283Y-53911D01*
X63375Y-53949D01*
X63474Y-53950D01*
X64024Y-53950D01*
X64116Y-53912D01*
X64186Y-53841D01*
X64193Y-53825D01*
X64406Y-53825D01*
X64412Y-53841D01*
X64483Y-53911D01*
X64575Y-53949D01*
X64674Y-53950D01*
X65224Y-53950D01*
X65316Y-53912D01*
X65386Y-53841D01*
X65408Y-53789D01*
X65408Y-53789D01*
X65487Y-53737D01*
X65675Y-53548D01*
X65675Y-53550D01*
X65674Y-53649D01*
X65674Y-53849D01*
X65712Y-53941D01*
X65721Y-53950D01*
X65712Y-53958D01*
X65674Y-54050D01*
X65675Y-54087D01*
X65737Y-54150D01*
X66100Y-54150D01*
X66100Y-54142D01*
X66200Y-54142D01*
X66200Y-54150D01*
X66562Y-54150D01*
X66625Y-54087D01*
X66625Y-54050D01*
X66604Y-54000D01*
X66649Y-54000D01*
X66758Y-54110D01*
X66915Y-54174D01*
X67084Y-54175D01*
X67240Y-54110D01*
X67360Y-53991D01*
X67370Y-53967D01*
X67385Y-53977D01*
X67500Y-54000D01*
X68195Y-54000D01*
X68175Y-54050D01*
X68174Y-54149D01*
X68174Y-54349D01*
X68212Y-54441D01*
X68283Y-54511D01*
X68375Y-54549D01*
X68474Y-54550D01*
X68924Y-54550D01*
X69016Y-54512D01*
X69028Y-54500D01*
X69731Y-54500D01*
X69737Y-54516D01*
X69808Y-54586D01*
X69900Y-54624D01*
X69999Y-54625D01*
X70349Y-54625D01*
X70441Y-54587D01*
X70500Y-54528D01*
X70558Y-54586D01*
X70650Y-54624D01*
X70749Y-54625D01*
X71099Y-54625D01*
X71191Y-54587D01*
X71261Y-54516D01*
X71299Y-54424D01*
X71299Y-54400D01*
X71400Y-54400D01*
X71400Y-54399D01*
X71514Y-54377D01*
X71514Y-54377D01*
X71612Y-54312D01*
X71749Y-54174D01*
X71750Y-54175D01*
X72012Y-54437D01*
X72012Y-54437D01*
X72110Y-54502D01*
X72206Y-54521D01*
X72207Y-54523D01*
X72278Y-54594D01*
X72370Y-54632D01*
X72469Y-54632D01*
X72863Y-54632D01*
X72955Y-54594D01*
X73025Y-54524D01*
X73063Y-54432D01*
X73064Y-54332D01*
X73064Y-54124D01*
X73073Y-54148D01*
X73144Y-54219D01*
X73183Y-54235D01*
X73183Y-54433D01*
X73205Y-54547D01*
X73270Y-54645D01*
X73687Y-55062D01*
X73687Y-55062D01*
X73775Y-55120D01*
X73775Y-55120D01*
G37*
G54D25*
X73775Y-55120D02*
X66625Y-55120D01*
X66625Y-54349D01*
X66625Y-54312D01*
X66562Y-54250D01*
X66200Y-54250D01*
X66200Y-54487D01*
X66262Y-54550D01*
X66325Y-54550D01*
X66424Y-54549D01*
X66516Y-54511D01*
X66587Y-54441D01*
X66625Y-54349D01*
X66625Y-55120D01*
X66100Y-55120D01*
X66100Y-54487D01*
X66100Y-54250D01*
X65737Y-54250D01*
X65675Y-54312D01*
X65674Y-54349D01*
X65712Y-54441D01*
X65783Y-54511D01*
X65875Y-54549D01*
X65974Y-54550D01*
X66037Y-54550D01*
X66100Y-54487D01*
X66100Y-55120D01*
X62079Y-55120D01*
X62079Y-53760D01*
X62112Y-53841D01*
X62183Y-53911D01*
X62275Y-53949D01*
X62374Y-53950D01*
X62924Y-53950D01*
X63016Y-53912D01*
X63086Y-53841D01*
X63093Y-53825D01*
X63206Y-53825D01*
X63212Y-53841D01*
X63283Y-53911D01*
X63375Y-53949D01*
X63474Y-53950D01*
X64024Y-53950D01*
X64116Y-53912D01*
X64186Y-53841D01*
X64193Y-53825D01*
X64406Y-53825D01*
X64412Y-53841D01*
X64483Y-53911D01*
X64575Y-53949D01*
X64674Y-53950D01*
X65224Y-53950D01*
X65316Y-53912D01*
X65386Y-53841D01*
X65408Y-53789D01*
X65408Y-53789D01*
X65487Y-53737D01*
X65675Y-53548D01*
X65675Y-53550D01*
X65674Y-53649D01*
X65674Y-53849D01*
X65712Y-53941D01*
X65721Y-53950D01*
X65712Y-53958D01*
X65674Y-54050D01*
X65675Y-54087D01*
X65737Y-54150D01*
X66100Y-54150D01*
X66100Y-54142D01*
X66200Y-54142D01*
X66200Y-54150D01*
X66562Y-54150D01*
X66625Y-54087D01*
X66625Y-54050D01*
X66604Y-54000D01*
X66649Y-54000D01*
X66758Y-54110D01*
X66915Y-54174D01*
X67084Y-54175D01*
X67240Y-54110D01*
X67360Y-53991D01*
X67370Y-53967D01*
X67385Y-53977D01*
X67500Y-54000D01*
X68195Y-54000D01*
X68175Y-54050D01*
X68174Y-54149D01*
X68174Y-54349D01*
X68212Y-54441D01*
X68283Y-54511D01*
X68375Y-54549D01*
X68474Y-54550D01*
X68924Y-54550D01*
X69016Y-54512D01*
X69028Y-54500D01*
X69731Y-54500D01*
X69737Y-54516D01*
X69808Y-54586D01*
X69900Y-54624D01*
X69999Y-54625D01*
X70349Y-54625D01*
X70441Y-54587D01*
X70500Y-54528D01*
X70558Y-54586D01*
X70650Y-54624D01*
X70749Y-54625D01*
X71099Y-54625D01*
X71191Y-54587D01*
X71261Y-54516D01*
X71299Y-54424D01*
X71299Y-54400D01*
X71400Y-54400D01*
X71400Y-54399D01*
X71514Y-54377D01*
X71514Y-54377D01*
X71612Y-54312D01*
X71749Y-54174D01*
X71750Y-54175D01*
X72012Y-54437D01*
X72012Y-54437D01*
X72110Y-54502D01*
X72206Y-54521D01*
X72207Y-54523D01*
X72278Y-54594D01*
X72370Y-54632D01*
X72469Y-54632D01*
X72863Y-54632D01*
X72955Y-54594D01*
X73025Y-54524D01*
X73063Y-54432D01*
X73064Y-54332D01*
X73064Y-54124D01*
X73073Y-54148D01*
X73144Y-54219D01*
X73183Y-54235D01*
X73183Y-54433D01*
X73205Y-54547D01*
X73270Y-54645D01*
X73687Y-55062D01*
X73687Y-55062D01*
X73775Y-55120D01*
G54D10*
G36*
X81120Y-55120D02*
X81100Y-55120D01*
X81100Y-54650D01*
X81100Y-53949D01*
X81100Y-53150D01*
X81100Y-52449D01*
X81100Y-51750D01*
X81100Y-51049D01*
X81100Y-50400D01*
X81100Y-49699D01*
X81099Y-49600D01*
X81061Y-49508D01*
X80991Y-49437D01*
X80899Y-49399D01*
X80662Y-49400D01*
X80600Y-49462D01*
X80600Y-50000D01*
X81037Y-50000D01*
X81100Y-49937D01*
X81100Y-49699D01*
X81100Y-50400D01*
X81100Y-50162D01*
X81037Y-50100D01*
X80600Y-50100D01*
X80600Y-50637D01*
X80662Y-50700D01*
X80899Y-50700D01*
X80991Y-50662D01*
X81061Y-50591D01*
X81099Y-50499D01*
X81100Y-50400D01*
X81100Y-51049D01*
X81099Y-50950D01*
X81061Y-50858D01*
X80991Y-50787D01*
X80899Y-50749D01*
X80662Y-50750D01*
X80600Y-50812D01*
X80600Y-51350D01*
X81037Y-51350D01*
X81100Y-51287D01*
X81100Y-51049D01*
X81100Y-51750D01*
X81100Y-51512D01*
X81037Y-51450D01*
X80600Y-51450D01*
X80600Y-51987D01*
X80662Y-52050D01*
X80899Y-52050D01*
X80991Y-52012D01*
X81061Y-51941D01*
X81099Y-51849D01*
X81100Y-51750D01*
X81100Y-52449D01*
X81099Y-52350D01*
X81061Y-52258D01*
X80991Y-52187D01*
X80899Y-52149D01*
X80662Y-52150D01*
X80600Y-52212D01*
X80600Y-52750D01*
X81037Y-52750D01*
X81100Y-52687D01*
X81100Y-52449D01*
X81100Y-53150D01*
X81100Y-52912D01*
X81037Y-52850D01*
X80600Y-52850D01*
X80600Y-53387D01*
X80662Y-53450D01*
X80899Y-53450D01*
X80991Y-53412D01*
X81061Y-53341D01*
X81099Y-53249D01*
X81100Y-53150D01*
X81100Y-53949D01*
X81099Y-53850D01*
X81061Y-53758D01*
X80991Y-53687D01*
X80899Y-53649D01*
X80662Y-53650D01*
X80600Y-53712D01*
X80600Y-54250D01*
X81037Y-54250D01*
X81100Y-54187D01*
X81100Y-53949D01*
X81100Y-54650D01*
X81100Y-54412D01*
X81037Y-54350D01*
X80600Y-54350D01*
X80600Y-54887D01*
X80662Y-54950D01*
X80899Y-54950D01*
X80991Y-54912D01*
X81061Y-54841D01*
X81099Y-54749D01*
X81100Y-54650D01*
X81100Y-55120D01*
X80500Y-55120D01*
X80500Y-54887D01*
X80500Y-54350D01*
X80500Y-54250D01*
X80500Y-53712D01*
X80500Y-53387D01*
X80500Y-52850D01*
X80500Y-52750D01*
X80500Y-52212D01*
X80500Y-51987D01*
X80500Y-51450D01*
X80500Y-51350D01*
X80500Y-50812D01*
X80500Y-50637D01*
X80500Y-50100D01*
X80500Y-50000D01*
X80500Y-49462D01*
X80437Y-49400D01*
X80200Y-49399D01*
X80108Y-49437D01*
X80038Y-49508D01*
X80000Y-49600D01*
X79999Y-49699D01*
X80000Y-49937D01*
X80062Y-50000D01*
X80500Y-50000D01*
X80500Y-50100D01*
X80062Y-50100D01*
X80000Y-50162D01*
X79999Y-50400D01*
X80000Y-50499D01*
X80038Y-50591D01*
X80108Y-50662D01*
X80200Y-50700D01*
X80437Y-50700D01*
X80500Y-50637D01*
X80500Y-50812D01*
X80437Y-50750D01*
X80200Y-50749D01*
X80108Y-50787D01*
X80038Y-50858D01*
X80000Y-50950D01*
X79999Y-51049D01*
X80000Y-51287D01*
X80062Y-51350D01*
X80500Y-51350D01*
X80500Y-51450D01*
X80062Y-51450D01*
X80000Y-51512D01*
X79999Y-51750D01*
X80000Y-51849D01*
X80038Y-51941D01*
X80108Y-52012D01*
X80200Y-52050D01*
X80437Y-52050D01*
X80500Y-51987D01*
X80500Y-52212D01*
X80437Y-52150D01*
X80200Y-52149D01*
X80108Y-52187D01*
X80038Y-52258D01*
X80000Y-52350D01*
X79999Y-52449D01*
X80000Y-52687D01*
X80062Y-52750D01*
X80500Y-52750D01*
X80500Y-52850D01*
X80062Y-52850D01*
X80000Y-52912D01*
X79999Y-53150D01*
X80000Y-53249D01*
X80038Y-53341D01*
X80108Y-53412D01*
X80200Y-53450D01*
X80437Y-53450D01*
X80500Y-53387D01*
X80500Y-53712D01*
X80437Y-53650D01*
X80200Y-53649D01*
X80108Y-53687D01*
X80038Y-53758D01*
X80000Y-53850D01*
X79999Y-53949D01*
X80000Y-54187D01*
X80062Y-54250D01*
X80500Y-54250D01*
X80500Y-54350D01*
X80062Y-54350D01*
X80000Y-54412D01*
X79999Y-54650D01*
X80000Y-54749D01*
X80038Y-54841D01*
X80108Y-54912D01*
X80200Y-54950D01*
X80437Y-54950D01*
X80500Y-54887D01*
X80500Y-55120D01*
X76611Y-55120D01*
X76699Y-55062D01*
X76875Y-54886D01*
X77222Y-54886D01*
X77314Y-54848D01*
X77350Y-54812D01*
X77385Y-54847D01*
X77477Y-54885D01*
X77576Y-54886D01*
X78048Y-54886D01*
X78140Y-54848D01*
X78210Y-54777D01*
X78243Y-54700D01*
X78699Y-54700D01*
X78699Y-54749D01*
X78737Y-54841D01*
X78808Y-54911D01*
X78900Y-54949D01*
X78999Y-54950D01*
X79599Y-54950D01*
X79691Y-54912D01*
X79761Y-54841D01*
X79799Y-54749D01*
X79800Y-54650D01*
X79800Y-53850D01*
X79762Y-53758D01*
X79691Y-53688D01*
X79599Y-53650D01*
X79500Y-53649D01*
X78900Y-53649D01*
X78812Y-53686D01*
X78760Y-53559D01*
X78641Y-53439D01*
X78484Y-53375D01*
X78315Y-53374D01*
X78249Y-53402D01*
X78249Y-53364D01*
X78212Y-53274D01*
X78243Y-53200D01*
X78699Y-53200D01*
X78699Y-53249D01*
X78737Y-53341D01*
X78808Y-53411D01*
X78900Y-53449D01*
X78999Y-53450D01*
X79599Y-53450D01*
X79691Y-53412D01*
X79761Y-53341D01*
X79799Y-53249D01*
X79800Y-53150D01*
X79800Y-52350D01*
X79762Y-52258D01*
X79691Y-52188D01*
X79599Y-52150D01*
X79500Y-52149D01*
X78900Y-52149D01*
X78812Y-52186D01*
X78760Y-52059D01*
X78641Y-51939D01*
X78484Y-51875D01*
X78315Y-51874D01*
X78249Y-51902D01*
X78249Y-51864D01*
X78212Y-51774D01*
X78243Y-51700D01*
X78699Y-51700D01*
X78699Y-51849D01*
X78737Y-51941D01*
X78808Y-52011D01*
X78900Y-52049D01*
X78999Y-52050D01*
X79599Y-52050D01*
X79691Y-52012D01*
X79761Y-51941D01*
X79799Y-51849D01*
X79800Y-51750D01*
X79800Y-50950D01*
X79762Y-50858D01*
X79691Y-50788D01*
X79599Y-50750D01*
X79500Y-50749D01*
X78900Y-50749D01*
X78825Y-50781D01*
X78825Y-50715D01*
X78798Y-50652D01*
X78808Y-50661D01*
X78900Y-50699D01*
X78999Y-50700D01*
X79599Y-50700D01*
X79691Y-50662D01*
X79761Y-50591D01*
X79799Y-50499D01*
X79800Y-50400D01*
X79800Y-49600D01*
X79762Y-49508D01*
X79691Y-49438D01*
X79599Y-49400D01*
X79500Y-49399D01*
X78900Y-49399D01*
X78808Y-49437D01*
X78798Y-49447D01*
X78824Y-49384D01*
X78825Y-49215D01*
X78760Y-49059D01*
X78641Y-48939D01*
X78484Y-48875D01*
X78315Y-48874D01*
X78286Y-48887D01*
X78264Y-48872D01*
X78249Y-48869D01*
X78249Y-48864D01*
X78211Y-48772D01*
X78140Y-48702D01*
X78048Y-48664D01*
X77949Y-48663D01*
X77477Y-48663D01*
X77385Y-48701D01*
X77349Y-48737D01*
X77314Y-48702D01*
X77222Y-48664D01*
X77123Y-48663D01*
X76651Y-48663D01*
X76559Y-48701D01*
X76489Y-48772D01*
X76456Y-48850D01*
X76200Y-48850D01*
X76085Y-48872D01*
X76044Y-48899D01*
X75450Y-48899D01*
X75358Y-48937D01*
X75288Y-49008D01*
X75250Y-49100D01*
X75249Y-49199D01*
X75249Y-49950D01*
X75049Y-49950D01*
X75050Y-49900D01*
X75050Y-49100D01*
X75012Y-49008D01*
X74941Y-48938D01*
X74849Y-48900D01*
X74750Y-48899D01*
X74150Y-48899D01*
X74058Y-48937D01*
X73995Y-49000D01*
X73934Y-48975D01*
X73901Y-48975D01*
X73929Y-48907D01*
X73930Y-48807D01*
X73930Y-48492D01*
X73892Y-48401D01*
X73821Y-48330D01*
X73729Y-48292D01*
X73630Y-48292D01*
X73236Y-48292D01*
X73144Y-48330D01*
X73074Y-48400D01*
X73064Y-48425D01*
X73064Y-48250D01*
X74700Y-48250D01*
X74700Y-48249D01*
X74814Y-48227D01*
X74814Y-48227D01*
X74912Y-48162D01*
X74996Y-48078D01*
X75100Y-48078D01*
X75100Y-48084D01*
X75149Y-48084D01*
X75100Y-48134D01*
X75099Y-48158D01*
X75137Y-48250D01*
X75208Y-48320D01*
X75300Y-48358D01*
X75399Y-48359D01*
X75487Y-48359D01*
X75550Y-48296D01*
X75550Y-48103D01*
X75650Y-48103D01*
X75650Y-48296D01*
X75712Y-48359D01*
X75800Y-48359D01*
X75899Y-48358D01*
X75991Y-48320D01*
X76062Y-48250D01*
X76100Y-48158D01*
X76100Y-48134D01*
X76050Y-48084D01*
X76100Y-48084D01*
X76100Y-48078D01*
X76799Y-48078D01*
X76799Y-48158D01*
X76837Y-48250D01*
X76908Y-48320D01*
X77000Y-48358D01*
X77099Y-48359D01*
X77599Y-48359D01*
X77691Y-48321D01*
X77761Y-48250D01*
X77799Y-48158D01*
X77800Y-48078D01*
X78100Y-48078D01*
X78100Y-48084D01*
X78149Y-48084D01*
X78100Y-48134D01*
X78099Y-48158D01*
X78137Y-48250D01*
X78208Y-48320D01*
X78300Y-48358D01*
X78399Y-48359D01*
X78487Y-48359D01*
X78550Y-48296D01*
X78550Y-48103D01*
X78650Y-48103D01*
X78650Y-48296D01*
X78712Y-48359D01*
X78800Y-48359D01*
X78899Y-48358D01*
X78991Y-48320D01*
X79062Y-48250D01*
X79100Y-48158D01*
X79100Y-48134D01*
X79050Y-48084D01*
X79100Y-48084D01*
X79100Y-48078D01*
X79799Y-48078D01*
X79799Y-48158D01*
X79837Y-48250D01*
X79908Y-48320D01*
X80000Y-48358D01*
X80099Y-48359D01*
X80599Y-48359D01*
X80691Y-48321D01*
X80761Y-48250D01*
X80799Y-48158D01*
X80800Y-48059D01*
X80800Y-47909D01*
X80798Y-47906D01*
X80799Y-47902D01*
X80800Y-47803D01*
X80800Y-47653D01*
X80798Y-47650D01*
X80799Y-47646D01*
X80800Y-47547D01*
X80800Y-47397D01*
X80798Y-47394D01*
X80799Y-47390D01*
X80800Y-47291D01*
X80800Y-47141D01*
X80762Y-47049D01*
X80691Y-46979D01*
X80599Y-46941D01*
X80500Y-46940D01*
X80265Y-46940D01*
X80124Y-46800D01*
X80125Y-46715D01*
X80060Y-46559D01*
X79941Y-46439D01*
X79784Y-46375D01*
X79615Y-46374D01*
X79459Y-46439D01*
X79339Y-46558D01*
X79275Y-46715D01*
X79274Y-46884D01*
X79312Y-46975D01*
X79266Y-46966D01*
X78960Y-46966D01*
X78899Y-46941D01*
X78800Y-46940D01*
X78300Y-46940D01*
X78239Y-46966D01*
X77984Y-46966D01*
X77869Y-46988D01*
X77771Y-47053D01*
X77766Y-47059D01*
X77762Y-47049D01*
X77756Y-47044D01*
X77760Y-47041D01*
X77824Y-46884D01*
X77825Y-46715D01*
X77760Y-46559D01*
X77641Y-46439D01*
X77484Y-46375D01*
X77315Y-46374D01*
X77159Y-46439D01*
X77039Y-46558D01*
X76975Y-46715D01*
X76974Y-46884D01*
X76998Y-46941D01*
X76908Y-46978D01*
X76838Y-47049D01*
X76800Y-47141D01*
X76799Y-47222D01*
X76646Y-47222D01*
X76462Y-47037D01*
X76364Y-46972D01*
X76250Y-46950D01*
X75921Y-46950D01*
X75899Y-46941D01*
X75800Y-46940D01*
X75300Y-46940D01*
X75239Y-46966D01*
X74750Y-46966D01*
X74750Y-46450D01*
X74750Y-45849D01*
X74749Y-45750D01*
X74711Y-45658D01*
X74641Y-45587D01*
X74549Y-45549D01*
X74262Y-45550D01*
X74200Y-45612D01*
X74200Y-46100D01*
X74687Y-46100D01*
X74750Y-46037D01*
X74750Y-45849D01*
X74750Y-46450D01*
X74750Y-46262D01*
X74687Y-46200D01*
X74200Y-46200D01*
X74200Y-46687D01*
X74262Y-46750D01*
X74549Y-46750D01*
X74641Y-46712D01*
X74711Y-46641D01*
X74749Y-46549D01*
X74750Y-46450D01*
X74750Y-46966D01*
X74734Y-46966D01*
X74619Y-46988D01*
X74521Y-47053D01*
X74275Y-47300D01*
X74100Y-47300D01*
X74100Y-46687D01*
X74100Y-46200D01*
X74100Y-46100D01*
X74100Y-45612D01*
X74037Y-45550D01*
X73750Y-45549D01*
X73658Y-45587D01*
X73588Y-45658D01*
X73550Y-45750D01*
X73549Y-45849D01*
X73550Y-46037D01*
X73612Y-46100D01*
X74100Y-46100D01*
X74100Y-46200D01*
X73612Y-46200D01*
X73550Y-46262D01*
X73549Y-46450D01*
X73550Y-46549D01*
X73588Y-46641D01*
X73658Y-46712D01*
X73750Y-46750D01*
X74037Y-46750D01*
X74100Y-46687D01*
X74100Y-47300D01*
X69750Y-47300D01*
X69750Y-46031D01*
X69658Y-45810D01*
X69490Y-45641D01*
X69269Y-45550D01*
X69031Y-45549D01*
X68810Y-45641D01*
X68641Y-45809D01*
X68550Y-46030D01*
X68549Y-46268D01*
X68641Y-46489D01*
X68809Y-46658D01*
X69030Y-46749D01*
X69268Y-46750D01*
X69489Y-46658D01*
X69658Y-46490D01*
X69749Y-46269D01*
X69750Y-46031D01*
X69750Y-47300D01*
X68371Y-47300D01*
X68366Y-47288D01*
X68211Y-47134D01*
X68200Y-47129D01*
X68200Y-46571D01*
X68211Y-46566D01*
X68365Y-46411D01*
X68449Y-46209D01*
X68450Y-45991D01*
X68366Y-45788D01*
X68211Y-45634D01*
X68009Y-45550D01*
X67791Y-45549D01*
X67588Y-45633D01*
X67434Y-45788D01*
X67350Y-45990D01*
X67349Y-46208D01*
X67433Y-46411D01*
X67588Y-46565D01*
X67600Y-46570D01*
X67600Y-47128D01*
X67588Y-47133D01*
X67434Y-47288D01*
X67350Y-47490D01*
X67349Y-47708D01*
X67433Y-47911D01*
X67588Y-48065D01*
X67790Y-48149D01*
X68008Y-48150D01*
X68211Y-48066D01*
X68365Y-47911D01*
X68370Y-47900D01*
X68675Y-47900D01*
X68021Y-48554D01*
X68009Y-48550D01*
X67791Y-48549D01*
X67588Y-48633D01*
X67434Y-48788D01*
X67350Y-48990D01*
X67349Y-49208D01*
X67428Y-49400D01*
X66500Y-49400D01*
X66385Y-49422D01*
X66287Y-49487D01*
X66087Y-49687D01*
X66022Y-49785D01*
X66005Y-49870D01*
X65994Y-49870D01*
X65902Y-49908D01*
X65832Y-49979D01*
X65794Y-50071D01*
X65793Y-50170D01*
X65793Y-50288D01*
X65801Y-50307D01*
X65794Y-50326D01*
X65793Y-50425D01*
X65793Y-50543D01*
X65801Y-50562D01*
X65794Y-50581D01*
X65793Y-50680D01*
X65793Y-50798D01*
X65802Y-50819D01*
X65794Y-50841D01*
X65793Y-50940D01*
X65793Y-51058D01*
X65801Y-51077D01*
X65794Y-51096D01*
X65793Y-51195D01*
X65793Y-51313D01*
X65801Y-51332D01*
X65794Y-51351D01*
X65793Y-51450D01*
X65793Y-51568D01*
X65801Y-51587D01*
X65793Y-51606D01*
X65794Y-51623D01*
X65856Y-51685D01*
X65856Y-51685D01*
X65902Y-51730D01*
X65935Y-51744D01*
X65856Y-51744D01*
X65794Y-51807D01*
X65793Y-51823D01*
X65794Y-51825D01*
X65665Y-51824D01*
X65509Y-51889D01*
X65425Y-51973D01*
X65425Y-51950D01*
X65425Y-51600D01*
X65387Y-51508D01*
X65328Y-51449D01*
X65386Y-51391D01*
X65424Y-51299D01*
X65425Y-51200D01*
X65425Y-50850D01*
X65387Y-50758D01*
X65316Y-50688D01*
X65224Y-50650D01*
X65125Y-50649D01*
X64575Y-50649D01*
X64483Y-50687D01*
X64413Y-50758D01*
X64406Y-50775D01*
X64193Y-50775D01*
X64187Y-50758D01*
X64116Y-50688D01*
X64024Y-50650D01*
X63925Y-50649D01*
X63454Y-50649D01*
X63454Y-46181D01*
X63443Y-45963D01*
X63381Y-45812D01*
X63285Y-45784D01*
X63215Y-45855D01*
X63215Y-45714D01*
X63187Y-45618D01*
X62981Y-45545D01*
X62763Y-45556D01*
X62612Y-45618D01*
X62584Y-45714D01*
X62900Y-46029D01*
X63215Y-45714D01*
X63215Y-45855D01*
X62970Y-46100D01*
X63285Y-46415D01*
X63381Y-46387D01*
X63454Y-46181D01*
X63454Y-50649D01*
X63375Y-50649D01*
X63283Y-50687D01*
X63213Y-50758D01*
X63206Y-50775D01*
X63093Y-50775D01*
X63087Y-50758D01*
X63016Y-50688D01*
X62924Y-50650D01*
X62825Y-50649D01*
X62800Y-50649D01*
X62800Y-49649D01*
X63008Y-49650D01*
X63211Y-49566D01*
X63365Y-49411D01*
X63449Y-49209D01*
X63450Y-48991D01*
X63366Y-48788D01*
X63211Y-48634D01*
X63200Y-48629D01*
X63200Y-48071D01*
X63211Y-48066D01*
X63365Y-47911D01*
X63449Y-47709D01*
X63450Y-47491D01*
X63366Y-47288D01*
X63215Y-47137D01*
X63215Y-46485D01*
X62900Y-46170D01*
X62829Y-46241D01*
X62829Y-46100D01*
X62514Y-45784D01*
X62418Y-45812D01*
X62345Y-46018D01*
X62356Y-46236D01*
X62418Y-46387D01*
X62514Y-46415D01*
X62829Y-46100D01*
X62829Y-46241D01*
X62584Y-46485D01*
X62612Y-46581D01*
X62818Y-46654D01*
X63036Y-46643D01*
X63187Y-46581D01*
X63215Y-46485D01*
X63215Y-47137D01*
X63211Y-47134D01*
X63009Y-47050D01*
X62791Y-47049D01*
X62588Y-47133D01*
X62434Y-47288D01*
X62350Y-47490D01*
X62349Y-47708D01*
X62433Y-47911D01*
X62588Y-48065D01*
X62600Y-48070D01*
X62600Y-48628D01*
X62588Y-48633D01*
X62434Y-48788D01*
X62350Y-48990D01*
X62349Y-49208D01*
X62354Y-49220D01*
X62287Y-49287D01*
X62222Y-49385D01*
X62200Y-49500D01*
X62200Y-50681D01*
X62183Y-50687D01*
X62113Y-50758D01*
X62079Y-50839D01*
X62079Y-45479D01*
X81120Y-45479D01*
X81120Y-55120D01*
X81120Y-55120D01*
G37*
G54D25*
X81120Y-55120D02*
X81100Y-55120D01*
X81100Y-54650D01*
X81100Y-53949D01*
X81100Y-53150D01*
X81100Y-52449D01*
X81100Y-51750D01*
X81100Y-51049D01*
X81100Y-50400D01*
X81100Y-49699D01*
X81099Y-49600D01*
X81061Y-49508D01*
X80991Y-49437D01*
X80899Y-49399D01*
X80662Y-49400D01*
X80600Y-49462D01*
X80600Y-50000D01*
X81037Y-50000D01*
X81100Y-49937D01*
X81100Y-49699D01*
X81100Y-50400D01*
X81100Y-50162D01*
X81037Y-50100D01*
X80600Y-50100D01*
X80600Y-50637D01*
X80662Y-50700D01*
X80899Y-50700D01*
X80991Y-50662D01*
X81061Y-50591D01*
X81099Y-50499D01*
X81100Y-50400D01*
X81100Y-51049D01*
X81099Y-50950D01*
X81061Y-50858D01*
X80991Y-50787D01*
X80899Y-50749D01*
X80662Y-50750D01*
X80600Y-50812D01*
X80600Y-51350D01*
X81037Y-51350D01*
X81100Y-51287D01*
X81100Y-51049D01*
X81100Y-51750D01*
X81100Y-51512D01*
X81037Y-51450D01*
X80600Y-51450D01*
X80600Y-51987D01*
X80662Y-52050D01*
X80899Y-52050D01*
X80991Y-52012D01*
X81061Y-51941D01*
X81099Y-51849D01*
X81100Y-51750D01*
X81100Y-52449D01*
X81099Y-52350D01*
X81061Y-52258D01*
X80991Y-52187D01*
X80899Y-52149D01*
X80662Y-52150D01*
X80600Y-52212D01*
X80600Y-52750D01*
X81037Y-52750D01*
X81100Y-52687D01*
X81100Y-52449D01*
X81100Y-53150D01*
X81100Y-52912D01*
X81037Y-52850D01*
X80600Y-52850D01*
X80600Y-53387D01*
X80662Y-53450D01*
X80899Y-53450D01*
X80991Y-53412D01*
X81061Y-53341D01*
X81099Y-53249D01*
X81100Y-53150D01*
X81100Y-53949D01*
X81099Y-53850D01*
X81061Y-53758D01*
X80991Y-53687D01*
X80899Y-53649D01*
X80662Y-53650D01*
X80600Y-53712D01*
X80600Y-54250D01*
X81037Y-54250D01*
X81100Y-54187D01*
X81100Y-53949D01*
X81100Y-54650D01*
X81100Y-54412D01*
X81037Y-54350D01*
X80600Y-54350D01*
X80600Y-54887D01*
X80662Y-54950D01*
X80899Y-54950D01*
X80991Y-54912D01*
X81061Y-54841D01*
X81099Y-54749D01*
X81100Y-54650D01*
X81100Y-55120D01*
X80500Y-55120D01*
X80500Y-54887D01*
X80500Y-54350D01*
X80500Y-54250D01*
X80500Y-53712D01*
X80500Y-53387D01*
X80500Y-52850D01*
X80500Y-52750D01*
X80500Y-52212D01*
X80500Y-51987D01*
X80500Y-51450D01*
X80500Y-51350D01*
X80500Y-50812D01*
X80500Y-50637D01*
X80500Y-50100D01*
X80500Y-50000D01*
X80500Y-49462D01*
X80437Y-49400D01*
X80200Y-49399D01*
X80108Y-49437D01*
X80038Y-49508D01*
X80000Y-49600D01*
X79999Y-49699D01*
X80000Y-49937D01*
X80062Y-50000D01*
X80500Y-50000D01*
X80500Y-50100D01*
X80062Y-50100D01*
X80000Y-50162D01*
X79999Y-50400D01*
X80000Y-50499D01*
X80038Y-50591D01*
X80108Y-50662D01*
X80200Y-50700D01*
X80437Y-50700D01*
X80500Y-50637D01*
X80500Y-50812D01*
X80437Y-50750D01*
X80200Y-50749D01*
X80108Y-50787D01*
X80038Y-50858D01*
X80000Y-50950D01*
X79999Y-51049D01*
X80000Y-51287D01*
X80062Y-51350D01*
X80500Y-51350D01*
X80500Y-51450D01*
X80062Y-51450D01*
X80000Y-51512D01*
X79999Y-51750D01*
X80000Y-51849D01*
X80038Y-51941D01*
X80108Y-52012D01*
X80200Y-52050D01*
X80437Y-52050D01*
X80500Y-51987D01*
X80500Y-52212D01*
X80437Y-52150D01*
X80200Y-52149D01*
X80108Y-52187D01*
X80038Y-52258D01*
X80000Y-52350D01*
X79999Y-52449D01*
X80000Y-52687D01*
X80062Y-52750D01*
X80500Y-52750D01*
X80500Y-52850D01*
X80062Y-52850D01*
X80000Y-52912D01*
X79999Y-53150D01*
X80000Y-53249D01*
X80038Y-53341D01*
X80108Y-53412D01*
X80200Y-53450D01*
X80437Y-53450D01*
X80500Y-53387D01*
X80500Y-53712D01*
X80437Y-53650D01*
X80200Y-53649D01*
X80108Y-53687D01*
X80038Y-53758D01*
X80000Y-53850D01*
X79999Y-53949D01*
X80000Y-54187D01*
X80062Y-54250D01*
X80500Y-54250D01*
X80500Y-54350D01*
X80062Y-54350D01*
X80000Y-54412D01*
X79999Y-54650D01*
X80000Y-54749D01*
X80038Y-54841D01*
X80108Y-54912D01*
X80200Y-54950D01*
X80437Y-54950D01*
X80500Y-54887D01*
X80500Y-55120D01*
X76611Y-55120D01*
X76699Y-55062D01*
X76875Y-54886D01*
X77222Y-54886D01*
X77314Y-54848D01*
X77350Y-54812D01*
X77385Y-54847D01*
X77477Y-54885D01*
X77576Y-54886D01*
X78048Y-54886D01*
X78140Y-54848D01*
X78210Y-54777D01*
X78243Y-54700D01*
X78699Y-54700D01*
X78699Y-54749D01*
X78737Y-54841D01*
X78808Y-54911D01*
X78900Y-54949D01*
X78999Y-54950D01*
X79599Y-54950D01*
X79691Y-54912D01*
X79761Y-54841D01*
X79799Y-54749D01*
X79800Y-54650D01*
X79800Y-53850D01*
X79762Y-53758D01*
X79691Y-53688D01*
X79599Y-53650D01*
X79500Y-53649D01*
X78900Y-53649D01*
X78812Y-53686D01*
X78760Y-53559D01*
X78641Y-53439D01*
X78484Y-53375D01*
X78315Y-53374D01*
X78249Y-53402D01*
X78249Y-53364D01*
X78212Y-53274D01*
X78243Y-53200D01*
X78699Y-53200D01*
X78699Y-53249D01*
X78737Y-53341D01*
X78808Y-53411D01*
X78900Y-53449D01*
X78999Y-53450D01*
X79599Y-53450D01*
X79691Y-53412D01*
X79761Y-53341D01*
X79799Y-53249D01*
X79800Y-53150D01*
X79800Y-52350D01*
X79762Y-52258D01*
X79691Y-52188D01*
X79599Y-52150D01*
X79500Y-52149D01*
X78900Y-52149D01*
X78812Y-52186D01*
X78760Y-52059D01*
X78641Y-51939D01*
X78484Y-51875D01*
X78315Y-51874D01*
X78249Y-51902D01*
X78249Y-51864D01*
X78212Y-51774D01*
X78243Y-51700D01*
X78699Y-51700D01*
X78699Y-51849D01*
X78737Y-51941D01*
X78808Y-52011D01*
X78900Y-52049D01*
X78999Y-52050D01*
X79599Y-52050D01*
X79691Y-52012D01*
X79761Y-51941D01*
X79799Y-51849D01*
X79800Y-51750D01*
X79800Y-50950D01*
X79762Y-50858D01*
X79691Y-50788D01*
X79599Y-50750D01*
X79500Y-50749D01*
X78900Y-50749D01*
X78825Y-50781D01*
X78825Y-50715D01*
X78798Y-50652D01*
X78808Y-50661D01*
X78900Y-50699D01*
X78999Y-50700D01*
X79599Y-50700D01*
X79691Y-50662D01*
X79761Y-50591D01*
X79799Y-50499D01*
X79800Y-50400D01*
X79800Y-49600D01*
X79762Y-49508D01*
X79691Y-49438D01*
X79599Y-49400D01*
X79500Y-49399D01*
X78900Y-49399D01*
X78808Y-49437D01*
X78798Y-49447D01*
X78824Y-49384D01*
X78825Y-49215D01*
X78760Y-49059D01*
X78641Y-48939D01*
X78484Y-48875D01*
X78315Y-48874D01*
X78286Y-48887D01*
X78264Y-48872D01*
X78249Y-48869D01*
X78249Y-48864D01*
X78211Y-48772D01*
X78140Y-48702D01*
X78048Y-48664D01*
X77949Y-48663D01*
X77477Y-48663D01*
X77385Y-48701D01*
X77349Y-48737D01*
X77314Y-48702D01*
X77222Y-48664D01*
X77123Y-48663D01*
X76651Y-48663D01*
X76559Y-48701D01*
X76489Y-48772D01*
X76456Y-48850D01*
X76200Y-48850D01*
X76085Y-48872D01*
X76044Y-48899D01*
X75450Y-48899D01*
X75358Y-48937D01*
X75288Y-49008D01*
X75250Y-49100D01*
X75249Y-49199D01*
X75249Y-49950D01*
X75049Y-49950D01*
X75050Y-49900D01*
X75050Y-49100D01*
X75012Y-49008D01*
X74941Y-48938D01*
X74849Y-48900D01*
X74750Y-48899D01*
X74150Y-48899D01*
X74058Y-48937D01*
X73995Y-49000D01*
X73934Y-48975D01*
X73901Y-48975D01*
X73929Y-48907D01*
X73930Y-48807D01*
X73930Y-48492D01*
X73892Y-48401D01*
X73821Y-48330D01*
X73729Y-48292D01*
X73630Y-48292D01*
X73236Y-48292D01*
X73144Y-48330D01*
X73074Y-48400D01*
X73064Y-48425D01*
X73064Y-48250D01*
X74700Y-48250D01*
X74700Y-48249D01*
X74814Y-48227D01*
X74814Y-48227D01*
X74912Y-48162D01*
X74996Y-48078D01*
X75100Y-48078D01*
X75100Y-48084D01*
X75149Y-48084D01*
X75100Y-48134D01*
X75099Y-48158D01*
X75137Y-48250D01*
X75208Y-48320D01*
X75300Y-48358D01*
X75399Y-48359D01*
X75487Y-48359D01*
X75550Y-48296D01*
X75550Y-48103D01*
X75650Y-48103D01*
X75650Y-48296D01*
X75712Y-48359D01*
X75800Y-48359D01*
X75899Y-48358D01*
X75991Y-48320D01*
X76062Y-48250D01*
X76100Y-48158D01*
X76100Y-48134D01*
X76050Y-48084D01*
X76100Y-48084D01*
X76100Y-48078D01*
X76799Y-48078D01*
X76799Y-48158D01*
X76837Y-48250D01*
X76908Y-48320D01*
X77000Y-48358D01*
X77099Y-48359D01*
X77599Y-48359D01*
X77691Y-48321D01*
X77761Y-48250D01*
X77799Y-48158D01*
X77800Y-48078D01*
X78100Y-48078D01*
X78100Y-48084D01*
X78149Y-48084D01*
X78100Y-48134D01*
X78099Y-48158D01*
X78137Y-48250D01*
X78208Y-48320D01*
X78300Y-48358D01*
X78399Y-48359D01*
X78487Y-48359D01*
X78550Y-48296D01*
X78550Y-48103D01*
X78650Y-48103D01*
X78650Y-48296D01*
X78712Y-48359D01*
X78800Y-48359D01*
X78899Y-48358D01*
X78991Y-48320D01*
X79062Y-48250D01*
X79100Y-48158D01*
X79100Y-48134D01*
X79050Y-48084D01*
X79100Y-48084D01*
X79100Y-48078D01*
X79799Y-48078D01*
X79799Y-48158D01*
X79837Y-48250D01*
X79908Y-48320D01*
X80000Y-48358D01*
X80099Y-48359D01*
X80599Y-48359D01*
X80691Y-48321D01*
X80761Y-48250D01*
X80799Y-48158D01*
X80800Y-48059D01*
X80800Y-47909D01*
X80798Y-47906D01*
X80799Y-47902D01*
X80800Y-47803D01*
X80800Y-47653D01*
X80798Y-47650D01*
X80799Y-47646D01*
X80800Y-47547D01*
X80800Y-47397D01*
X80798Y-47394D01*
X80799Y-47390D01*
X80800Y-47291D01*
X80800Y-47141D01*
X80762Y-47049D01*
X80691Y-46979D01*
X80599Y-46941D01*
X80500Y-46940D01*
X80265Y-46940D01*
X80124Y-46800D01*
X80125Y-46715D01*
X80060Y-46559D01*
X79941Y-46439D01*
X79784Y-46375D01*
X79615Y-46374D01*
X79459Y-46439D01*
X79339Y-46558D01*
X79275Y-46715D01*
X79274Y-46884D01*
X79312Y-46975D01*
X79266Y-46966D01*
X78960Y-46966D01*
X78899Y-46941D01*
X78800Y-46940D01*
X78300Y-46940D01*
X78239Y-46966D01*
X77984Y-46966D01*
X77869Y-46988D01*
X77771Y-47053D01*
X77766Y-47059D01*
X77762Y-47049D01*
X77756Y-47044D01*
X77760Y-47041D01*
X77824Y-46884D01*
X77825Y-46715D01*
X77760Y-46559D01*
X77641Y-46439D01*
X77484Y-46375D01*
X77315Y-46374D01*
X77159Y-46439D01*
X77039Y-46558D01*
X76975Y-46715D01*
X76974Y-46884D01*
X76998Y-46941D01*
X76908Y-46978D01*
X76838Y-47049D01*
X76800Y-47141D01*
X76799Y-47222D01*
X76646Y-47222D01*
X76462Y-47037D01*
X76364Y-46972D01*
X76250Y-46950D01*
X75921Y-46950D01*
X75899Y-46941D01*
X75800Y-46940D01*
X75300Y-46940D01*
X75239Y-46966D01*
X74750Y-46966D01*
X74750Y-46450D01*
X74750Y-45849D01*
X74749Y-45750D01*
X74711Y-45658D01*
X74641Y-45587D01*
X74549Y-45549D01*
X74262Y-45550D01*
X74200Y-45612D01*
X74200Y-46100D01*
X74687Y-46100D01*
X74750Y-46037D01*
X74750Y-45849D01*
X74750Y-46450D01*
X74750Y-46262D01*
X74687Y-46200D01*
X74200Y-46200D01*
X74200Y-46687D01*
X74262Y-46750D01*
X74549Y-46750D01*
X74641Y-46712D01*
X74711Y-46641D01*
X74749Y-46549D01*
X74750Y-46450D01*
X74750Y-46966D01*
X74734Y-46966D01*
X74619Y-46988D01*
X74521Y-47053D01*
X74275Y-47300D01*
X74100Y-47300D01*
X74100Y-46687D01*
X74100Y-46200D01*
X74100Y-46100D01*
X74100Y-45612D01*
X74037Y-45550D01*
X73750Y-45549D01*
X73658Y-45587D01*
X73588Y-45658D01*
X73550Y-45750D01*
X73549Y-45849D01*
X73550Y-46037D01*
X73612Y-46100D01*
X74100Y-46100D01*
X74100Y-46200D01*
X73612Y-46200D01*
X73550Y-46262D01*
X73549Y-46450D01*
X73550Y-46549D01*
X73588Y-46641D01*
X73658Y-46712D01*
X73750Y-46750D01*
X74037Y-46750D01*
X74100Y-46687D01*
X74100Y-47300D01*
X69750Y-47300D01*
X69750Y-46031D01*
X69658Y-45810D01*
X69490Y-45641D01*
X69269Y-45550D01*
X69031Y-45549D01*
X68810Y-45641D01*
X68641Y-45809D01*
X68550Y-46030D01*
X68549Y-46268D01*
X68641Y-46489D01*
X68809Y-46658D01*
X69030Y-46749D01*
X69268Y-46750D01*
X69489Y-46658D01*
X69658Y-46490D01*
X69749Y-46269D01*
X69750Y-46031D01*
X69750Y-47300D01*
X68371Y-47300D01*
X68366Y-47288D01*
X68211Y-47134D01*
X68200Y-47129D01*
X68200Y-46571D01*
X68211Y-46566D01*
X68365Y-46411D01*
X68449Y-46209D01*
X68450Y-45991D01*
X68366Y-45788D01*
X68211Y-45634D01*
X68009Y-45550D01*
X67791Y-45549D01*
X67588Y-45633D01*
X67434Y-45788D01*
X67350Y-45990D01*
X67349Y-46208D01*
X67433Y-46411D01*
X67588Y-46565D01*
X67600Y-46570D01*
X67600Y-47128D01*
X67588Y-47133D01*
X67434Y-47288D01*
X67350Y-47490D01*
X67349Y-47708D01*
X67433Y-47911D01*
X67588Y-48065D01*
X67790Y-48149D01*
X68008Y-48150D01*
X68211Y-48066D01*
X68365Y-47911D01*
X68370Y-47900D01*
X68675Y-47900D01*
X68021Y-48554D01*
X68009Y-48550D01*
X67791Y-48549D01*
X67588Y-48633D01*
X67434Y-48788D01*
X67350Y-48990D01*
X67349Y-49208D01*
X67428Y-49400D01*
X66500Y-49400D01*
X66385Y-49422D01*
X66287Y-49487D01*
X66087Y-49687D01*
X66022Y-49785D01*
X66005Y-49870D01*
X65994Y-49870D01*
X65902Y-49908D01*
X65832Y-49979D01*
X65794Y-50071D01*
X65793Y-50170D01*
X65793Y-50288D01*
X65801Y-50307D01*
X65794Y-50326D01*
X65793Y-50425D01*
X65793Y-50543D01*
X65801Y-50562D01*
X65794Y-50581D01*
X65793Y-50680D01*
X65793Y-50798D01*
X65802Y-50819D01*
X65794Y-50841D01*
X65793Y-50940D01*
X65793Y-51058D01*
X65801Y-51077D01*
X65794Y-51096D01*
X65793Y-51195D01*
X65793Y-51313D01*
X65801Y-51332D01*
X65794Y-51351D01*
X65793Y-51450D01*
X65793Y-51568D01*
X65801Y-51587D01*
X65793Y-51606D01*
X65794Y-51623D01*
X65856Y-51685D01*
X65856Y-51685D01*
X65902Y-51730D01*
X65935Y-51744D01*
X65856Y-51744D01*
X65794Y-51807D01*
X65793Y-51823D01*
X65794Y-51825D01*
X65665Y-51824D01*
X65509Y-51889D01*
X65425Y-51973D01*
X65425Y-51950D01*
X65425Y-51600D01*
X65387Y-51508D01*
X65328Y-51449D01*
X65386Y-51391D01*
X65424Y-51299D01*
X65425Y-51200D01*
X65425Y-50850D01*
X65387Y-50758D01*
X65316Y-50688D01*
X65224Y-50650D01*
X65125Y-50649D01*
X64575Y-50649D01*
X64483Y-50687D01*
X64413Y-50758D01*
X64406Y-50775D01*
X64193Y-50775D01*
X64187Y-50758D01*
X64116Y-50688D01*
X64024Y-50650D01*
X63925Y-50649D01*
X63454Y-50649D01*
X63454Y-46181D01*
X63443Y-45963D01*
X63381Y-45812D01*
X63285Y-45784D01*
X63215Y-45855D01*
X63215Y-45714D01*
X63187Y-45618D01*
X62981Y-45545D01*
X62763Y-45556D01*
X62612Y-45618D01*
X62584Y-45714D01*
X62900Y-46029D01*
X63215Y-45714D01*
X63215Y-45855D01*
X62970Y-46100D01*
X63285Y-46415D01*
X63381Y-46387D01*
X63454Y-46181D01*
X63454Y-50649D01*
X63375Y-50649D01*
X63283Y-50687D01*
X63213Y-50758D01*
X63206Y-50775D01*
X63093Y-50775D01*
X63087Y-50758D01*
X63016Y-50688D01*
X62924Y-50650D01*
X62825Y-50649D01*
X62800Y-50649D01*
X62800Y-49649D01*
X63008Y-49650D01*
X63211Y-49566D01*
X63365Y-49411D01*
X63449Y-49209D01*
X63450Y-48991D01*
X63366Y-48788D01*
X63211Y-48634D01*
X63200Y-48629D01*
X63200Y-48071D01*
X63211Y-48066D01*
X63365Y-47911D01*
X63449Y-47709D01*
X63450Y-47491D01*
X63366Y-47288D01*
X63215Y-47137D01*
X63215Y-46485D01*
X62900Y-46170D01*
X62829Y-46241D01*
X62829Y-46100D01*
X62514Y-45784D01*
X62418Y-45812D01*
X62345Y-46018D01*
X62356Y-46236D01*
X62418Y-46387D01*
X62514Y-46415D01*
X62829Y-46100D01*
X62829Y-46241D01*
X62584Y-46485D01*
X62612Y-46581D01*
X62818Y-46654D01*
X63036Y-46643D01*
X63187Y-46581D01*
X63215Y-46485D01*
X63215Y-47137D01*
X63211Y-47134D01*
X63009Y-47050D01*
X62791Y-47049D01*
X62588Y-47133D01*
X62434Y-47288D01*
X62350Y-47490D01*
X62349Y-47708D01*
X62433Y-47911D01*
X62588Y-48065D01*
X62600Y-48070D01*
X62600Y-48628D01*
X62588Y-48633D01*
X62434Y-48788D01*
X62350Y-48990D01*
X62349Y-49208D01*
X62354Y-49220D01*
X62287Y-49287D01*
X62222Y-49385D01*
X62200Y-49500D01*
X62200Y-50681D01*
X62183Y-50687D01*
X62113Y-50758D01*
X62079Y-50839D01*
X62079Y-45479D01*
X81120Y-45479D01*
X81120Y-55120D01*
M02*
