G04 (created by PCBNEW (2013-07-07 BZR 4022)-stable) date 27/01/2014 8:34:36 p.m.*
%MOIN*%
G04 Gerber Fmt 3.4, Leading zero omitted, Abs format*
%FSLAX34Y34*%
G01*
G70*
G90*
G04 APERTURE LIST*
%ADD10C,0.00590551*%
%ADD11C,0.06*%
%ADD12C,0.07*%
%ADD13R,0.07X0.07*%
%ADD14R,0.129921X0.165354*%
%ADD15C,0.035*%
%ADD16C,0.01*%
G04 APERTURE END LIST*
G54D10*
G54D11*
X67900Y-47600D03*
X62900Y-47600D03*
X62900Y-46100D03*
X67900Y-46100D03*
X62900Y-49100D03*
X67900Y-49100D03*
G54D12*
X69150Y-46150D03*
G54D13*
X74150Y-46150D03*
G54D14*
X77467Y-50400D03*
X65932Y-50400D03*
G54D15*
X79700Y-46800D03*
X77400Y-46800D03*
X78400Y-49300D03*
X78400Y-50800D03*
X78400Y-53800D03*
X78400Y-52300D03*
X67800Y-50200D03*
X72300Y-52300D03*
X72200Y-50500D03*
X72600Y-49600D03*
X71750Y-53750D03*
X65750Y-52250D03*
X73850Y-54300D03*
X69100Y-51550D03*
X73850Y-52800D03*
X69350Y-51100D03*
X73850Y-51150D03*
X69150Y-50300D03*
X73850Y-49400D03*
X69050Y-49700D03*
X67400Y-53100D03*
X67000Y-53750D03*
X70200Y-49400D03*
X71600Y-49400D03*
X70500Y-52000D03*
X71900Y-51900D03*
X74500Y-48500D03*
X70600Y-48900D03*
X67500Y-54100D03*
X68000Y-53100D03*
X68400Y-52200D03*
X66600Y-52200D03*
X70900Y-50500D03*
X69900Y-50500D03*
G54D16*
X72300Y-50400D02*
X74700Y-50400D01*
X72200Y-50500D02*
X72300Y-50400D01*
X69600Y-54300D02*
X73850Y-54300D01*
X69300Y-54000D02*
X69600Y-54300D01*
X69300Y-51750D02*
X69300Y-54000D01*
X69100Y-51550D02*
X69300Y-51750D01*
X69900Y-52800D02*
X73850Y-52800D01*
X69650Y-52550D02*
X69900Y-52800D01*
X69650Y-51400D02*
X69650Y-52550D01*
X69350Y-51100D02*
X69650Y-51400D01*
X70000Y-51150D02*
X73850Y-51150D01*
X69150Y-50300D02*
X70000Y-51150D01*
X73200Y-50050D02*
X73850Y-49400D01*
X69400Y-50050D02*
X73200Y-50050D01*
X69050Y-49700D02*
X69400Y-50050D01*
X67400Y-53350D02*
X67400Y-53100D01*
X67000Y-53750D02*
X67400Y-53350D01*
X71600Y-49400D02*
X70200Y-49400D01*
X65932Y-50400D02*
X65932Y-47467D01*
X68500Y-46800D02*
X69150Y-46150D01*
X66600Y-46800D02*
X68500Y-46800D01*
X65932Y-47467D02*
X66600Y-46800D01*
X71800Y-52000D02*
X70500Y-52000D01*
X71900Y-51900D02*
X71800Y-52000D01*
X73800Y-47800D02*
X73800Y-47100D01*
X74500Y-48500D02*
X73800Y-47800D01*
X74150Y-46750D02*
X74150Y-46150D01*
X73800Y-47100D02*
X74150Y-46750D01*
X70700Y-47100D02*
X73800Y-47100D01*
X70600Y-47200D02*
X70700Y-47100D01*
X70600Y-48900D02*
X70600Y-47200D01*
X67600Y-54000D02*
X67500Y-54100D01*
X67600Y-53500D02*
X67600Y-54000D01*
X68000Y-53100D02*
X67600Y-53500D01*
X66600Y-52200D02*
X68400Y-52200D01*
X69900Y-50500D02*
X70900Y-50500D01*
G54D10*
G36*
X81200Y-55200D02*
X78367Y-55200D01*
X78367Y-51177D01*
X78367Y-49622D01*
X78367Y-49523D01*
X78329Y-49431D01*
X78258Y-49361D01*
X78166Y-49323D01*
X77580Y-49323D01*
X77517Y-49385D01*
X77517Y-50350D01*
X78304Y-50350D01*
X78367Y-50287D01*
X78367Y-49622D01*
X78367Y-51177D01*
X78367Y-50512D01*
X78304Y-50450D01*
X77517Y-50450D01*
X77517Y-51414D01*
X77580Y-51476D01*
X78166Y-51476D01*
X78258Y-51438D01*
X78329Y-51368D01*
X78367Y-51276D01*
X78367Y-51177D01*
X78367Y-55200D01*
X77417Y-55200D01*
X77417Y-51414D01*
X77417Y-50450D01*
X77417Y-50350D01*
X77417Y-49385D01*
X77355Y-49323D01*
X76768Y-49323D01*
X76676Y-49361D01*
X76606Y-49431D01*
X76568Y-49523D01*
X76568Y-49622D01*
X76568Y-50287D01*
X76630Y-50350D01*
X77417Y-50350D01*
X77417Y-50450D01*
X76630Y-50450D01*
X76568Y-50512D01*
X76568Y-51177D01*
X76568Y-51276D01*
X76606Y-51368D01*
X76676Y-51438D01*
X76768Y-51476D01*
X77355Y-51476D01*
X77417Y-51414D01*
X77417Y-55200D01*
X74925Y-55200D01*
X74925Y-48415D01*
X74860Y-48259D01*
X74741Y-48139D01*
X74584Y-48075D01*
X74499Y-48074D01*
X74100Y-47675D01*
X74100Y-47224D01*
X74362Y-46962D01*
X74362Y-46962D01*
X74427Y-46864D01*
X74449Y-46750D01*
X74449Y-46750D01*
X74549Y-46750D01*
X74641Y-46712D01*
X74711Y-46641D01*
X74749Y-46549D01*
X74750Y-46450D01*
X74750Y-45750D01*
X74712Y-45658D01*
X74641Y-45588D01*
X74549Y-45550D01*
X74450Y-45549D01*
X73750Y-45549D01*
X73658Y-45587D01*
X73588Y-45658D01*
X73550Y-45750D01*
X73549Y-45849D01*
X73549Y-46549D01*
X73587Y-46641D01*
X73658Y-46711D01*
X73732Y-46742D01*
X73675Y-46800D01*
X70700Y-46800D01*
X70585Y-46822D01*
X70487Y-46887D01*
X70387Y-46987D01*
X70322Y-47085D01*
X70300Y-47200D01*
X70300Y-48598D01*
X70239Y-48658D01*
X70175Y-48815D01*
X70174Y-48974D01*
X70115Y-48974D01*
X69959Y-49039D01*
X69839Y-49158D01*
X69775Y-49315D01*
X69774Y-49484D01*
X69839Y-49640D01*
X69948Y-49750D01*
X69750Y-49750D01*
X69750Y-46031D01*
X69658Y-45810D01*
X69490Y-45641D01*
X69269Y-45550D01*
X69031Y-45549D01*
X68810Y-45641D01*
X68641Y-45809D01*
X68550Y-46030D01*
X68549Y-46268D01*
X68566Y-46309D01*
X68375Y-46500D01*
X68277Y-46500D01*
X68365Y-46411D01*
X68449Y-46209D01*
X68450Y-45991D01*
X68366Y-45788D01*
X68211Y-45634D01*
X68009Y-45550D01*
X67791Y-45549D01*
X67588Y-45633D01*
X67434Y-45788D01*
X67350Y-45990D01*
X67349Y-46208D01*
X67433Y-46411D01*
X67522Y-46500D01*
X66600Y-46500D01*
X66485Y-46522D01*
X66387Y-46587D01*
X65720Y-47255D01*
X65655Y-47352D01*
X65632Y-47467D01*
X65632Y-49323D01*
X65233Y-49323D01*
X65141Y-49361D01*
X65070Y-49431D01*
X65032Y-49523D01*
X65032Y-49622D01*
X65032Y-51276D01*
X65070Y-51368D01*
X65140Y-51438D01*
X65232Y-51476D01*
X65332Y-51476D01*
X66631Y-51476D01*
X66723Y-51438D01*
X66793Y-51368D01*
X66831Y-51276D01*
X66831Y-51177D01*
X66831Y-49523D01*
X66793Y-49431D01*
X66723Y-49361D01*
X66631Y-49323D01*
X66532Y-49323D01*
X66232Y-49323D01*
X66232Y-47591D01*
X66724Y-47100D01*
X67669Y-47100D01*
X67588Y-47133D01*
X67434Y-47288D01*
X67350Y-47490D01*
X67349Y-47708D01*
X67433Y-47911D01*
X67588Y-48065D01*
X67790Y-48149D01*
X68008Y-48150D01*
X68211Y-48066D01*
X68365Y-47911D01*
X68449Y-47709D01*
X68450Y-47491D01*
X68366Y-47288D01*
X68211Y-47134D01*
X68130Y-47100D01*
X68500Y-47100D01*
X68500Y-47099D01*
X68614Y-47077D01*
X68614Y-47077D01*
X68712Y-47012D01*
X68990Y-46733D01*
X69030Y-46749D01*
X69268Y-46750D01*
X69489Y-46658D01*
X69658Y-46490D01*
X69749Y-46269D01*
X69750Y-46031D01*
X69750Y-49750D01*
X69524Y-49750D01*
X69474Y-49700D01*
X69475Y-49615D01*
X69410Y-49459D01*
X69291Y-49339D01*
X69134Y-49275D01*
X68965Y-49274D01*
X68809Y-49339D01*
X68689Y-49458D01*
X68625Y-49615D01*
X68624Y-49784D01*
X68689Y-49940D01*
X68798Y-50049D01*
X68789Y-50058D01*
X68725Y-50215D01*
X68724Y-50384D01*
X68789Y-50540D01*
X68908Y-50660D01*
X69065Y-50724D01*
X69144Y-50724D01*
X69109Y-50739D01*
X68989Y-50858D01*
X68925Y-51015D01*
X68924Y-51162D01*
X68859Y-51189D01*
X68739Y-51308D01*
X68675Y-51465D01*
X68674Y-51634D01*
X68739Y-51790D01*
X68858Y-51910D01*
X69000Y-51968D01*
X69000Y-54000D01*
X69022Y-54114D01*
X69087Y-54212D01*
X69387Y-54512D01*
X69387Y-54512D01*
X69485Y-54577D01*
X69599Y-54599D01*
X69600Y-54600D01*
X73548Y-54600D01*
X73608Y-54660D01*
X73765Y-54724D01*
X73934Y-54725D01*
X74090Y-54660D01*
X74210Y-54541D01*
X74274Y-54384D01*
X74275Y-54215D01*
X74210Y-54059D01*
X74091Y-53939D01*
X73934Y-53875D01*
X73765Y-53874D01*
X73609Y-53939D01*
X73548Y-54000D01*
X69724Y-54000D01*
X69600Y-53875D01*
X69600Y-52924D01*
X69687Y-53012D01*
X69687Y-53012D01*
X69785Y-53077D01*
X69900Y-53100D01*
X73548Y-53100D01*
X73608Y-53160D01*
X73765Y-53224D01*
X73934Y-53225D01*
X74090Y-53160D01*
X74210Y-53041D01*
X74274Y-52884D01*
X74275Y-52715D01*
X74210Y-52559D01*
X74091Y-52439D01*
X73934Y-52375D01*
X73765Y-52374D01*
X73609Y-52439D01*
X73548Y-52500D01*
X72325Y-52500D01*
X72325Y-51815D01*
X72260Y-51659D01*
X72141Y-51539D01*
X71984Y-51475D01*
X71815Y-51474D01*
X71659Y-51539D01*
X71539Y-51658D01*
X71522Y-51700D01*
X70801Y-51700D01*
X70741Y-51639D01*
X70584Y-51575D01*
X70415Y-51574D01*
X70259Y-51639D01*
X70139Y-51758D01*
X70075Y-51915D01*
X70074Y-52084D01*
X70139Y-52240D01*
X70258Y-52360D01*
X70415Y-52424D01*
X70584Y-52425D01*
X70740Y-52360D01*
X70801Y-52300D01*
X71755Y-52300D01*
X71815Y-52324D01*
X71984Y-52325D01*
X72140Y-52260D01*
X72260Y-52141D01*
X72324Y-51984D01*
X72325Y-51815D01*
X72325Y-52500D01*
X70024Y-52500D01*
X69950Y-52425D01*
X69950Y-51440D01*
X70000Y-51450D01*
X73548Y-51450D01*
X73608Y-51510D01*
X73765Y-51574D01*
X73934Y-51575D01*
X74090Y-51510D01*
X74210Y-51391D01*
X74274Y-51234D01*
X74275Y-51065D01*
X74210Y-50909D01*
X74091Y-50789D01*
X73934Y-50725D01*
X73765Y-50724D01*
X73609Y-50789D01*
X73548Y-50850D01*
X71150Y-50850D01*
X71260Y-50741D01*
X71324Y-50584D01*
X71325Y-50415D01*
X71297Y-50350D01*
X73200Y-50350D01*
X73200Y-50349D01*
X73314Y-50327D01*
X73314Y-50327D01*
X73412Y-50262D01*
X73849Y-49824D01*
X73934Y-49825D01*
X74090Y-49760D01*
X74210Y-49641D01*
X74274Y-49484D01*
X74275Y-49315D01*
X74210Y-49159D01*
X74091Y-49039D01*
X73934Y-48975D01*
X73765Y-48974D01*
X73609Y-49039D01*
X73489Y-49158D01*
X73425Y-49315D01*
X73424Y-49400D01*
X73075Y-49750D01*
X71850Y-49750D01*
X71960Y-49641D01*
X72024Y-49484D01*
X72025Y-49315D01*
X71960Y-49159D01*
X71841Y-49039D01*
X71684Y-48975D01*
X71515Y-48974D01*
X71359Y-49039D01*
X71298Y-49100D01*
X70977Y-49100D01*
X71024Y-48984D01*
X71025Y-48815D01*
X70960Y-48659D01*
X70900Y-48598D01*
X70900Y-47400D01*
X73500Y-47400D01*
X73500Y-47800D01*
X73522Y-47914D01*
X73587Y-48012D01*
X74075Y-48499D01*
X74074Y-48584D01*
X74139Y-48740D01*
X74258Y-48860D01*
X74415Y-48924D01*
X74584Y-48925D01*
X74740Y-48860D01*
X74860Y-48741D01*
X74924Y-48584D01*
X74925Y-48415D01*
X74925Y-55200D01*
X68825Y-55200D01*
X68825Y-52115D01*
X68760Y-51959D01*
X68641Y-51839D01*
X68484Y-51775D01*
X68450Y-51775D01*
X68450Y-48991D01*
X68366Y-48788D01*
X68211Y-48634D01*
X68009Y-48550D01*
X67791Y-48549D01*
X67588Y-48633D01*
X67434Y-48788D01*
X67350Y-48990D01*
X67349Y-49208D01*
X67433Y-49411D01*
X67588Y-49565D01*
X67790Y-49649D01*
X68008Y-49650D01*
X68211Y-49566D01*
X68365Y-49411D01*
X68449Y-49209D01*
X68450Y-48991D01*
X68450Y-51775D01*
X68315Y-51774D01*
X68159Y-51839D01*
X68098Y-51900D01*
X66901Y-51900D01*
X66841Y-51839D01*
X66684Y-51775D01*
X66515Y-51774D01*
X66359Y-51839D01*
X66239Y-51958D01*
X66175Y-52115D01*
X66174Y-52284D01*
X66239Y-52440D01*
X66358Y-52560D01*
X66515Y-52624D01*
X66684Y-52625D01*
X66840Y-52560D01*
X66901Y-52500D01*
X68098Y-52500D01*
X68158Y-52560D01*
X68315Y-52624D01*
X68484Y-52625D01*
X68640Y-52560D01*
X68760Y-52441D01*
X68824Y-52284D01*
X68825Y-52115D01*
X68825Y-55200D01*
X68425Y-55200D01*
X68425Y-53015D01*
X68360Y-52859D01*
X68241Y-52739D01*
X68084Y-52675D01*
X67915Y-52674D01*
X67759Y-52739D01*
X67700Y-52798D01*
X67641Y-52739D01*
X67484Y-52675D01*
X67315Y-52674D01*
X67159Y-52739D01*
X67039Y-52858D01*
X66975Y-53015D01*
X66974Y-53184D01*
X67023Y-53302D01*
X67000Y-53325D01*
X66915Y-53324D01*
X66759Y-53389D01*
X66639Y-53508D01*
X66575Y-53665D01*
X66574Y-53834D01*
X66639Y-53990D01*
X66758Y-54110D01*
X66915Y-54174D01*
X67074Y-54175D01*
X67074Y-54184D01*
X67139Y-54340D01*
X67258Y-54460D01*
X67415Y-54524D01*
X67584Y-54525D01*
X67740Y-54460D01*
X67860Y-54341D01*
X67924Y-54184D01*
X67925Y-54015D01*
X67900Y-53955D01*
X67900Y-53624D01*
X67999Y-53524D01*
X68084Y-53525D01*
X68240Y-53460D01*
X68360Y-53341D01*
X68424Y-53184D01*
X68425Y-53015D01*
X68425Y-55200D01*
X63454Y-55200D01*
X63454Y-49181D01*
X63454Y-47681D01*
X63450Y-47588D01*
X63450Y-45991D01*
X63366Y-45788D01*
X63211Y-45634D01*
X63009Y-45550D01*
X62791Y-45549D01*
X62588Y-45633D01*
X62434Y-45788D01*
X62350Y-45990D01*
X62349Y-46208D01*
X62433Y-46411D01*
X62588Y-46565D01*
X62790Y-46649D01*
X63008Y-46650D01*
X63211Y-46566D01*
X63365Y-46411D01*
X63449Y-46209D01*
X63450Y-45991D01*
X63450Y-47588D01*
X63443Y-47463D01*
X63381Y-47312D01*
X63285Y-47284D01*
X63215Y-47355D01*
X63215Y-47214D01*
X63187Y-47118D01*
X62981Y-47045D01*
X62763Y-47056D01*
X62612Y-47118D01*
X62584Y-47214D01*
X62900Y-47529D01*
X63215Y-47214D01*
X63215Y-47355D01*
X62970Y-47600D01*
X63285Y-47915D01*
X63381Y-47887D01*
X63454Y-47681D01*
X63454Y-49181D01*
X63443Y-48963D01*
X63381Y-48812D01*
X63285Y-48784D01*
X63215Y-48855D01*
X63215Y-48714D01*
X63215Y-47985D01*
X62900Y-47670D01*
X62829Y-47741D01*
X62829Y-47600D01*
X62514Y-47284D01*
X62418Y-47312D01*
X62345Y-47518D01*
X62356Y-47736D01*
X62418Y-47887D01*
X62514Y-47915D01*
X62829Y-47600D01*
X62829Y-47741D01*
X62584Y-47985D01*
X62612Y-48081D01*
X62818Y-48154D01*
X63036Y-48143D01*
X63187Y-48081D01*
X63215Y-47985D01*
X63215Y-48714D01*
X63187Y-48618D01*
X62981Y-48545D01*
X62763Y-48556D01*
X62612Y-48618D01*
X62584Y-48714D01*
X62900Y-49029D01*
X63215Y-48714D01*
X63215Y-48855D01*
X62970Y-49100D01*
X63285Y-49415D01*
X63381Y-49387D01*
X63454Y-49181D01*
X63454Y-55200D01*
X63215Y-55200D01*
X63215Y-49485D01*
X62900Y-49170D01*
X62829Y-49241D01*
X62829Y-49100D01*
X62514Y-48784D01*
X62418Y-48812D01*
X62345Y-49018D01*
X62356Y-49236D01*
X62418Y-49387D01*
X62514Y-49415D01*
X62829Y-49100D01*
X62829Y-49241D01*
X62584Y-49485D01*
X62612Y-49581D01*
X62818Y-49654D01*
X63036Y-49643D01*
X63187Y-49581D01*
X63215Y-49485D01*
X63215Y-55200D01*
X61800Y-55200D01*
X61800Y-45300D01*
X81200Y-45300D01*
X81200Y-55200D01*
X81200Y-55200D01*
G37*
G54D16*
X81200Y-55200D02*
X78367Y-55200D01*
X78367Y-51177D01*
X78367Y-49622D01*
X78367Y-49523D01*
X78329Y-49431D01*
X78258Y-49361D01*
X78166Y-49323D01*
X77580Y-49323D01*
X77517Y-49385D01*
X77517Y-50350D01*
X78304Y-50350D01*
X78367Y-50287D01*
X78367Y-49622D01*
X78367Y-51177D01*
X78367Y-50512D01*
X78304Y-50450D01*
X77517Y-50450D01*
X77517Y-51414D01*
X77580Y-51476D01*
X78166Y-51476D01*
X78258Y-51438D01*
X78329Y-51368D01*
X78367Y-51276D01*
X78367Y-51177D01*
X78367Y-55200D01*
X77417Y-55200D01*
X77417Y-51414D01*
X77417Y-50450D01*
X77417Y-50350D01*
X77417Y-49385D01*
X77355Y-49323D01*
X76768Y-49323D01*
X76676Y-49361D01*
X76606Y-49431D01*
X76568Y-49523D01*
X76568Y-49622D01*
X76568Y-50287D01*
X76630Y-50350D01*
X77417Y-50350D01*
X77417Y-50450D01*
X76630Y-50450D01*
X76568Y-50512D01*
X76568Y-51177D01*
X76568Y-51276D01*
X76606Y-51368D01*
X76676Y-51438D01*
X76768Y-51476D01*
X77355Y-51476D01*
X77417Y-51414D01*
X77417Y-55200D01*
X74925Y-55200D01*
X74925Y-48415D01*
X74860Y-48259D01*
X74741Y-48139D01*
X74584Y-48075D01*
X74499Y-48074D01*
X74100Y-47675D01*
X74100Y-47224D01*
X74362Y-46962D01*
X74362Y-46962D01*
X74427Y-46864D01*
X74449Y-46750D01*
X74449Y-46750D01*
X74549Y-46750D01*
X74641Y-46712D01*
X74711Y-46641D01*
X74749Y-46549D01*
X74750Y-46450D01*
X74750Y-45750D01*
X74712Y-45658D01*
X74641Y-45588D01*
X74549Y-45550D01*
X74450Y-45549D01*
X73750Y-45549D01*
X73658Y-45587D01*
X73588Y-45658D01*
X73550Y-45750D01*
X73549Y-45849D01*
X73549Y-46549D01*
X73587Y-46641D01*
X73658Y-46711D01*
X73732Y-46742D01*
X73675Y-46800D01*
X70700Y-46800D01*
X70585Y-46822D01*
X70487Y-46887D01*
X70387Y-46987D01*
X70322Y-47085D01*
X70300Y-47200D01*
X70300Y-48598D01*
X70239Y-48658D01*
X70175Y-48815D01*
X70174Y-48974D01*
X70115Y-48974D01*
X69959Y-49039D01*
X69839Y-49158D01*
X69775Y-49315D01*
X69774Y-49484D01*
X69839Y-49640D01*
X69948Y-49750D01*
X69750Y-49750D01*
X69750Y-46031D01*
X69658Y-45810D01*
X69490Y-45641D01*
X69269Y-45550D01*
X69031Y-45549D01*
X68810Y-45641D01*
X68641Y-45809D01*
X68550Y-46030D01*
X68549Y-46268D01*
X68566Y-46309D01*
X68375Y-46500D01*
X68277Y-46500D01*
X68365Y-46411D01*
X68449Y-46209D01*
X68450Y-45991D01*
X68366Y-45788D01*
X68211Y-45634D01*
X68009Y-45550D01*
X67791Y-45549D01*
X67588Y-45633D01*
X67434Y-45788D01*
X67350Y-45990D01*
X67349Y-46208D01*
X67433Y-46411D01*
X67522Y-46500D01*
X66600Y-46500D01*
X66485Y-46522D01*
X66387Y-46587D01*
X65720Y-47255D01*
X65655Y-47352D01*
X65632Y-47467D01*
X65632Y-49323D01*
X65233Y-49323D01*
X65141Y-49361D01*
X65070Y-49431D01*
X65032Y-49523D01*
X65032Y-49622D01*
X65032Y-51276D01*
X65070Y-51368D01*
X65140Y-51438D01*
X65232Y-51476D01*
X65332Y-51476D01*
X66631Y-51476D01*
X66723Y-51438D01*
X66793Y-51368D01*
X66831Y-51276D01*
X66831Y-51177D01*
X66831Y-49523D01*
X66793Y-49431D01*
X66723Y-49361D01*
X66631Y-49323D01*
X66532Y-49323D01*
X66232Y-49323D01*
X66232Y-47591D01*
X66724Y-47100D01*
X67669Y-47100D01*
X67588Y-47133D01*
X67434Y-47288D01*
X67350Y-47490D01*
X67349Y-47708D01*
X67433Y-47911D01*
X67588Y-48065D01*
X67790Y-48149D01*
X68008Y-48150D01*
X68211Y-48066D01*
X68365Y-47911D01*
X68449Y-47709D01*
X68450Y-47491D01*
X68366Y-47288D01*
X68211Y-47134D01*
X68130Y-47100D01*
X68500Y-47100D01*
X68500Y-47099D01*
X68614Y-47077D01*
X68614Y-47077D01*
X68712Y-47012D01*
X68990Y-46733D01*
X69030Y-46749D01*
X69268Y-46750D01*
X69489Y-46658D01*
X69658Y-46490D01*
X69749Y-46269D01*
X69750Y-46031D01*
X69750Y-49750D01*
X69524Y-49750D01*
X69474Y-49700D01*
X69475Y-49615D01*
X69410Y-49459D01*
X69291Y-49339D01*
X69134Y-49275D01*
X68965Y-49274D01*
X68809Y-49339D01*
X68689Y-49458D01*
X68625Y-49615D01*
X68624Y-49784D01*
X68689Y-49940D01*
X68798Y-50049D01*
X68789Y-50058D01*
X68725Y-50215D01*
X68724Y-50384D01*
X68789Y-50540D01*
X68908Y-50660D01*
X69065Y-50724D01*
X69144Y-50724D01*
X69109Y-50739D01*
X68989Y-50858D01*
X68925Y-51015D01*
X68924Y-51162D01*
X68859Y-51189D01*
X68739Y-51308D01*
X68675Y-51465D01*
X68674Y-51634D01*
X68739Y-51790D01*
X68858Y-51910D01*
X69000Y-51968D01*
X69000Y-54000D01*
X69022Y-54114D01*
X69087Y-54212D01*
X69387Y-54512D01*
X69387Y-54512D01*
X69485Y-54577D01*
X69599Y-54599D01*
X69600Y-54600D01*
X73548Y-54600D01*
X73608Y-54660D01*
X73765Y-54724D01*
X73934Y-54725D01*
X74090Y-54660D01*
X74210Y-54541D01*
X74274Y-54384D01*
X74275Y-54215D01*
X74210Y-54059D01*
X74091Y-53939D01*
X73934Y-53875D01*
X73765Y-53874D01*
X73609Y-53939D01*
X73548Y-54000D01*
X69724Y-54000D01*
X69600Y-53875D01*
X69600Y-52924D01*
X69687Y-53012D01*
X69687Y-53012D01*
X69785Y-53077D01*
X69900Y-53100D01*
X73548Y-53100D01*
X73608Y-53160D01*
X73765Y-53224D01*
X73934Y-53225D01*
X74090Y-53160D01*
X74210Y-53041D01*
X74274Y-52884D01*
X74275Y-52715D01*
X74210Y-52559D01*
X74091Y-52439D01*
X73934Y-52375D01*
X73765Y-52374D01*
X73609Y-52439D01*
X73548Y-52500D01*
X72325Y-52500D01*
X72325Y-51815D01*
X72260Y-51659D01*
X72141Y-51539D01*
X71984Y-51475D01*
X71815Y-51474D01*
X71659Y-51539D01*
X71539Y-51658D01*
X71522Y-51700D01*
X70801Y-51700D01*
X70741Y-51639D01*
X70584Y-51575D01*
X70415Y-51574D01*
X70259Y-51639D01*
X70139Y-51758D01*
X70075Y-51915D01*
X70074Y-52084D01*
X70139Y-52240D01*
X70258Y-52360D01*
X70415Y-52424D01*
X70584Y-52425D01*
X70740Y-52360D01*
X70801Y-52300D01*
X71755Y-52300D01*
X71815Y-52324D01*
X71984Y-52325D01*
X72140Y-52260D01*
X72260Y-52141D01*
X72324Y-51984D01*
X72325Y-51815D01*
X72325Y-52500D01*
X70024Y-52500D01*
X69950Y-52425D01*
X69950Y-51440D01*
X70000Y-51450D01*
X73548Y-51450D01*
X73608Y-51510D01*
X73765Y-51574D01*
X73934Y-51575D01*
X74090Y-51510D01*
X74210Y-51391D01*
X74274Y-51234D01*
X74275Y-51065D01*
X74210Y-50909D01*
X74091Y-50789D01*
X73934Y-50725D01*
X73765Y-50724D01*
X73609Y-50789D01*
X73548Y-50850D01*
X71150Y-50850D01*
X71260Y-50741D01*
X71324Y-50584D01*
X71325Y-50415D01*
X71297Y-50350D01*
X73200Y-50350D01*
X73200Y-50349D01*
X73314Y-50327D01*
X73314Y-50327D01*
X73412Y-50262D01*
X73849Y-49824D01*
X73934Y-49825D01*
X74090Y-49760D01*
X74210Y-49641D01*
X74274Y-49484D01*
X74275Y-49315D01*
X74210Y-49159D01*
X74091Y-49039D01*
X73934Y-48975D01*
X73765Y-48974D01*
X73609Y-49039D01*
X73489Y-49158D01*
X73425Y-49315D01*
X73424Y-49400D01*
X73075Y-49750D01*
X71850Y-49750D01*
X71960Y-49641D01*
X72024Y-49484D01*
X72025Y-49315D01*
X71960Y-49159D01*
X71841Y-49039D01*
X71684Y-48975D01*
X71515Y-48974D01*
X71359Y-49039D01*
X71298Y-49100D01*
X70977Y-49100D01*
X71024Y-48984D01*
X71025Y-48815D01*
X70960Y-48659D01*
X70900Y-48598D01*
X70900Y-47400D01*
X73500Y-47400D01*
X73500Y-47800D01*
X73522Y-47914D01*
X73587Y-48012D01*
X74075Y-48499D01*
X74074Y-48584D01*
X74139Y-48740D01*
X74258Y-48860D01*
X74415Y-48924D01*
X74584Y-48925D01*
X74740Y-48860D01*
X74860Y-48741D01*
X74924Y-48584D01*
X74925Y-48415D01*
X74925Y-55200D01*
X68825Y-55200D01*
X68825Y-52115D01*
X68760Y-51959D01*
X68641Y-51839D01*
X68484Y-51775D01*
X68450Y-51775D01*
X68450Y-48991D01*
X68366Y-48788D01*
X68211Y-48634D01*
X68009Y-48550D01*
X67791Y-48549D01*
X67588Y-48633D01*
X67434Y-48788D01*
X67350Y-48990D01*
X67349Y-49208D01*
X67433Y-49411D01*
X67588Y-49565D01*
X67790Y-49649D01*
X68008Y-49650D01*
X68211Y-49566D01*
X68365Y-49411D01*
X68449Y-49209D01*
X68450Y-48991D01*
X68450Y-51775D01*
X68315Y-51774D01*
X68159Y-51839D01*
X68098Y-51900D01*
X66901Y-51900D01*
X66841Y-51839D01*
X66684Y-51775D01*
X66515Y-51774D01*
X66359Y-51839D01*
X66239Y-51958D01*
X66175Y-52115D01*
X66174Y-52284D01*
X66239Y-52440D01*
X66358Y-52560D01*
X66515Y-52624D01*
X66684Y-52625D01*
X66840Y-52560D01*
X66901Y-52500D01*
X68098Y-52500D01*
X68158Y-52560D01*
X68315Y-52624D01*
X68484Y-52625D01*
X68640Y-52560D01*
X68760Y-52441D01*
X68824Y-52284D01*
X68825Y-52115D01*
X68825Y-55200D01*
X68425Y-55200D01*
X68425Y-53015D01*
X68360Y-52859D01*
X68241Y-52739D01*
X68084Y-52675D01*
X67915Y-52674D01*
X67759Y-52739D01*
X67700Y-52798D01*
X67641Y-52739D01*
X67484Y-52675D01*
X67315Y-52674D01*
X67159Y-52739D01*
X67039Y-52858D01*
X66975Y-53015D01*
X66974Y-53184D01*
X67023Y-53302D01*
X67000Y-53325D01*
X66915Y-53324D01*
X66759Y-53389D01*
X66639Y-53508D01*
X66575Y-53665D01*
X66574Y-53834D01*
X66639Y-53990D01*
X66758Y-54110D01*
X66915Y-54174D01*
X67074Y-54175D01*
X67074Y-54184D01*
X67139Y-54340D01*
X67258Y-54460D01*
X67415Y-54524D01*
X67584Y-54525D01*
X67740Y-54460D01*
X67860Y-54341D01*
X67924Y-54184D01*
X67925Y-54015D01*
X67900Y-53955D01*
X67900Y-53624D01*
X67999Y-53524D01*
X68084Y-53525D01*
X68240Y-53460D01*
X68360Y-53341D01*
X68424Y-53184D01*
X68425Y-53015D01*
X68425Y-55200D01*
X63454Y-55200D01*
X63454Y-49181D01*
X63454Y-47681D01*
X63450Y-47588D01*
X63450Y-45991D01*
X63366Y-45788D01*
X63211Y-45634D01*
X63009Y-45550D01*
X62791Y-45549D01*
X62588Y-45633D01*
X62434Y-45788D01*
X62350Y-45990D01*
X62349Y-46208D01*
X62433Y-46411D01*
X62588Y-46565D01*
X62790Y-46649D01*
X63008Y-46650D01*
X63211Y-46566D01*
X63365Y-46411D01*
X63449Y-46209D01*
X63450Y-45991D01*
X63450Y-47588D01*
X63443Y-47463D01*
X63381Y-47312D01*
X63285Y-47284D01*
X63215Y-47355D01*
X63215Y-47214D01*
X63187Y-47118D01*
X62981Y-47045D01*
X62763Y-47056D01*
X62612Y-47118D01*
X62584Y-47214D01*
X62900Y-47529D01*
X63215Y-47214D01*
X63215Y-47355D01*
X62970Y-47600D01*
X63285Y-47915D01*
X63381Y-47887D01*
X63454Y-47681D01*
X63454Y-49181D01*
X63443Y-48963D01*
X63381Y-48812D01*
X63285Y-48784D01*
X63215Y-48855D01*
X63215Y-48714D01*
X63215Y-47985D01*
X62900Y-47670D01*
X62829Y-47741D01*
X62829Y-47600D01*
X62514Y-47284D01*
X62418Y-47312D01*
X62345Y-47518D01*
X62356Y-47736D01*
X62418Y-47887D01*
X62514Y-47915D01*
X62829Y-47600D01*
X62829Y-47741D01*
X62584Y-47985D01*
X62612Y-48081D01*
X62818Y-48154D01*
X63036Y-48143D01*
X63187Y-48081D01*
X63215Y-47985D01*
X63215Y-48714D01*
X63187Y-48618D01*
X62981Y-48545D01*
X62763Y-48556D01*
X62612Y-48618D01*
X62584Y-48714D01*
X62900Y-49029D01*
X63215Y-48714D01*
X63215Y-48855D01*
X62970Y-49100D01*
X63285Y-49415D01*
X63381Y-49387D01*
X63454Y-49181D01*
X63454Y-55200D01*
X63215Y-55200D01*
X63215Y-49485D01*
X62900Y-49170D01*
X62829Y-49241D01*
X62829Y-49100D01*
X62514Y-48784D01*
X62418Y-48812D01*
X62345Y-49018D01*
X62356Y-49236D01*
X62418Y-49387D01*
X62514Y-49415D01*
X62829Y-49100D01*
X62829Y-49241D01*
X62584Y-49485D01*
X62612Y-49581D01*
X62818Y-49654D01*
X63036Y-49643D01*
X63187Y-49581D01*
X63215Y-49485D01*
X63215Y-55200D01*
X61800Y-55200D01*
X61800Y-45300D01*
X81200Y-45300D01*
X81200Y-55200D01*
M02*
