G04 (created by PCBNEW (2013-07-07 BZR 4022)-stable) date 27/01/2014 8:34:37 p.m.*
%MOIN*%
G04 Gerber Fmt 3.4, Leading zero omitted, Abs format*
%FSLAX34Y34*%
G01*
G70*
G90*
G04 APERTURE LIST*
%ADD10C,0.00590551*%
%ADD11C,0.005*%
%ADD12C,0.008*%
%ADD13C,0.0031*%
%ADD14C,0.0039*%
%ADD15C,0.012*%
%ADD16C,0.0026*%
%ADD17C,0.004*%
%ADD18C,0.002*%
%ADD19C,0.00625*%
%ADD20C,0.0063*%
%ADD21C,0.0047*%
%ADD22C,0.0043*%
%ADD23C,0.00375*%
%ADD24C,0.0045*%
%ADD25C,0.0035*%
%ADD26C,0.0025*%
%ADD27C,0.006*%
%ADD28C,0.01*%
G04 APERTURE END LIST*
G54D10*
G54D11*
X77123Y-49404D02*
X77276Y-49404D01*
X77200Y-49480D02*
X77200Y-49328D01*
X77423Y-54104D02*
X77576Y-54104D01*
X77500Y-54180D02*
X77500Y-54028D01*
X77123Y-53904D02*
X77276Y-53904D01*
X77200Y-53980D02*
X77200Y-53828D01*
X77423Y-52604D02*
X77576Y-52604D01*
X77500Y-52680D02*
X77500Y-52528D01*
X77123Y-52404D02*
X77276Y-52404D01*
X77200Y-52480D02*
X77200Y-52328D01*
X77423Y-51104D02*
X77576Y-51104D01*
X77500Y-51180D02*
X77500Y-51028D01*
X77123Y-50904D02*
X77276Y-50904D01*
X77200Y-50980D02*
X77200Y-50828D01*
X77423Y-49604D02*
X77576Y-49604D01*
X77500Y-49680D02*
X77500Y-49528D01*
G54D12*
X66700Y-51900D02*
X66700Y-50000D01*
X66700Y-50000D02*
X68100Y-50000D01*
X68100Y-50000D02*
X68100Y-51900D01*
X68100Y-51900D02*
X66700Y-51900D01*
X68000Y-51650D02*
G75*
G03X68000Y-51650I-150J0D01*
G74*
G01*
G54D13*
X72974Y-53387D02*
G75*
G03X72974Y-53387I-62J0D01*
G74*
G01*
X73250Y-54350D02*
X72850Y-54350D01*
X73250Y-53325D02*
X72850Y-53325D01*
X72850Y-54350D02*
X72850Y-53325D01*
X73250Y-53325D02*
X73250Y-54350D01*
X72974Y-51687D02*
G75*
G03X72974Y-51687I-62J0D01*
G74*
G01*
X73250Y-52650D02*
X72850Y-52650D01*
X73250Y-51625D02*
X72850Y-51625D01*
X72850Y-52650D02*
X72850Y-51625D01*
X73250Y-51625D02*
X73250Y-52650D01*
X72974Y-49987D02*
G75*
G03X72974Y-49987I-62J0D01*
G74*
G01*
X73250Y-50950D02*
X72850Y-50950D01*
X73250Y-49925D02*
X72850Y-49925D01*
X72850Y-50950D02*
X72850Y-49925D01*
X73250Y-49925D02*
X73250Y-50950D01*
X72974Y-48237D02*
G75*
G03X72974Y-48237I-62J0D01*
G74*
G01*
X73250Y-49200D02*
X72850Y-49200D01*
X73250Y-48175D02*
X72850Y-48175D01*
X72850Y-49200D02*
X72850Y-48175D01*
X73250Y-48175D02*
X73250Y-49200D01*
G54D11*
X68300Y-52450D02*
X68300Y-54450D01*
X68300Y-54450D02*
X66500Y-54450D01*
X66500Y-54450D02*
X66500Y-52450D01*
X66500Y-52450D02*
X68300Y-52450D01*
X67700Y-52450D02*
X67700Y-52650D01*
X67700Y-52650D02*
X67200Y-52650D01*
X67200Y-52650D02*
X67200Y-52450D01*
X74150Y-49100D02*
X74150Y-50000D01*
X74150Y-50000D02*
X74800Y-50000D01*
X75500Y-49100D02*
X76150Y-49100D01*
X76150Y-49100D02*
X76150Y-50000D01*
X76150Y-50000D02*
X75500Y-50000D01*
X74800Y-49100D02*
X74150Y-49100D01*
X78900Y-52350D02*
X78900Y-53250D01*
X78900Y-53250D02*
X79550Y-53250D01*
X80250Y-52350D02*
X80900Y-52350D01*
X80900Y-52350D02*
X80900Y-53250D01*
X80900Y-53250D02*
X80250Y-53250D01*
X79550Y-52350D02*
X78900Y-52350D01*
X74150Y-50600D02*
X74150Y-51500D01*
X74150Y-51500D02*
X74800Y-51500D01*
X75500Y-50600D02*
X76150Y-50600D01*
X76150Y-50600D02*
X76150Y-51500D01*
X76150Y-51500D02*
X75500Y-51500D01*
X74800Y-50600D02*
X74150Y-50600D01*
X78900Y-50950D02*
X78900Y-51850D01*
X78900Y-51850D02*
X79550Y-51850D01*
X80250Y-50950D02*
X80900Y-50950D01*
X80900Y-50950D02*
X80900Y-51850D01*
X80900Y-51850D02*
X80250Y-51850D01*
X79550Y-50950D02*
X78900Y-50950D01*
X74150Y-52100D02*
X74150Y-53000D01*
X74150Y-53000D02*
X74800Y-53000D01*
X75500Y-52100D02*
X76150Y-52100D01*
X76150Y-52100D02*
X76150Y-53000D01*
X76150Y-53000D02*
X75500Y-53000D01*
X74800Y-52100D02*
X74150Y-52100D01*
X78900Y-49600D02*
X78900Y-50500D01*
X78900Y-50500D02*
X79550Y-50500D01*
X80250Y-49600D02*
X80900Y-49600D01*
X80900Y-49600D02*
X80900Y-50500D01*
X80900Y-50500D02*
X80250Y-50500D01*
X79550Y-49600D02*
X78900Y-49600D01*
X74150Y-53600D02*
X74150Y-54500D01*
X74150Y-54500D02*
X74800Y-54500D01*
X75500Y-53600D02*
X76150Y-53600D01*
X76150Y-53600D02*
X76150Y-54500D01*
X76150Y-54500D02*
X75500Y-54500D01*
X74800Y-53600D02*
X74150Y-53600D01*
X78900Y-53850D02*
X78900Y-54750D01*
X78900Y-54750D02*
X79550Y-54750D01*
X80250Y-53850D02*
X80900Y-53850D01*
X80900Y-53850D02*
X80900Y-54750D01*
X80900Y-54750D02*
X80250Y-54750D01*
X79550Y-53850D02*
X78900Y-53850D01*
G54D14*
X62950Y-53800D02*
G75*
G03X62950Y-53800I-50J0D01*
G74*
G01*
X62900Y-53350D02*
X62900Y-53750D01*
X62900Y-53750D02*
X62300Y-53750D01*
X62300Y-53750D02*
X62300Y-53350D01*
X62300Y-52950D02*
X62300Y-52550D01*
X62300Y-52550D02*
X62900Y-52550D01*
X62900Y-52550D02*
X62900Y-52950D01*
X64050Y-53800D02*
G75*
G03X64050Y-53800I-50J0D01*
G74*
G01*
X64000Y-53350D02*
X64000Y-53750D01*
X64000Y-53750D02*
X63400Y-53750D01*
X63400Y-53750D02*
X63400Y-53350D01*
X63400Y-52950D02*
X63400Y-52550D01*
X63400Y-52550D02*
X64000Y-52550D01*
X64000Y-52550D02*
X64000Y-52950D01*
X65250Y-53800D02*
G75*
G03X65250Y-53800I-50J0D01*
G74*
G01*
X65200Y-53350D02*
X65200Y-53750D01*
X65200Y-53750D02*
X64600Y-53750D01*
X64600Y-53750D02*
X64600Y-53350D01*
X64600Y-52950D02*
X64600Y-52550D01*
X64600Y-52550D02*
X65200Y-52550D01*
X65200Y-52550D02*
X65200Y-52950D01*
X62950Y-52100D02*
G75*
G03X62950Y-52100I-50J0D01*
G74*
G01*
X62900Y-51650D02*
X62900Y-52050D01*
X62900Y-52050D02*
X62300Y-52050D01*
X62300Y-52050D02*
X62300Y-51650D01*
X62300Y-51250D02*
X62300Y-50850D01*
X62300Y-50850D02*
X62900Y-50850D01*
X62900Y-50850D02*
X62900Y-51250D01*
X64050Y-52100D02*
G75*
G03X64050Y-52100I-50J0D01*
G74*
G01*
X64000Y-51650D02*
X64000Y-52050D01*
X64000Y-52050D02*
X63400Y-52050D01*
X63400Y-52050D02*
X63400Y-51650D01*
X63400Y-51250D02*
X63400Y-50850D01*
X63400Y-50850D02*
X64000Y-50850D01*
X64000Y-50850D02*
X64000Y-51250D01*
X65250Y-52100D02*
G75*
G03X65250Y-52100I-50J0D01*
G74*
G01*
X65200Y-51650D02*
X65200Y-52050D01*
X65200Y-52050D02*
X64600Y-52050D01*
X64600Y-52050D02*
X64600Y-51650D01*
X64600Y-51250D02*
X64600Y-50850D01*
X64600Y-50850D02*
X65200Y-50850D01*
X65200Y-50850D02*
X65200Y-51250D01*
X69900Y-54400D02*
G75*
G03X69900Y-54400I-50J0D01*
G74*
G01*
X70300Y-54400D02*
X69900Y-54400D01*
X69900Y-54400D02*
X69900Y-53800D01*
X69900Y-53800D02*
X70300Y-53800D01*
X70700Y-53800D02*
X71100Y-53800D01*
X71100Y-53800D02*
X71100Y-54400D01*
X71100Y-54400D02*
X70700Y-54400D01*
G54D11*
X70900Y-48600D02*
X71800Y-48600D01*
X71800Y-48600D02*
X71800Y-49100D01*
X71800Y-49100D02*
X70900Y-49100D01*
X70900Y-49100D02*
X70900Y-48600D01*
X69400Y-48600D02*
X70300Y-48600D01*
X70300Y-48600D02*
X70300Y-49100D01*
X70300Y-49100D02*
X69400Y-49100D01*
X69400Y-49100D02*
X69400Y-48600D01*
X69400Y-49700D02*
X70300Y-49700D01*
X70300Y-49700D02*
X70300Y-50200D01*
X70300Y-50200D02*
X69400Y-50200D01*
X69400Y-50200D02*
X69400Y-49700D01*
X70900Y-49700D02*
X71800Y-49700D01*
X71800Y-49700D02*
X71800Y-50200D01*
X71800Y-50200D02*
X70900Y-50200D01*
X70900Y-50200D02*
X70900Y-49700D01*
X71300Y-50850D02*
X71300Y-51750D01*
X71300Y-51750D02*
X70800Y-51750D01*
X70800Y-51750D02*
X70800Y-50850D01*
X70800Y-50850D02*
X71300Y-50850D01*
X70200Y-52300D02*
X70200Y-53200D01*
X70200Y-53200D02*
X69700Y-53200D01*
X69700Y-53200D02*
X69700Y-52300D01*
X69700Y-52300D02*
X70200Y-52300D01*
X70200Y-50850D02*
X70200Y-51750D01*
X70200Y-51750D02*
X69700Y-51750D01*
X69700Y-51750D02*
X69700Y-50850D01*
X69700Y-50850D02*
X70200Y-50850D01*
X71300Y-52300D02*
X71300Y-53200D01*
X71300Y-53200D02*
X70800Y-53200D01*
X70800Y-53200D02*
X70800Y-52300D01*
X70800Y-52300D02*
X71300Y-52300D01*
G54D15*
X67900Y-47600D02*
X67500Y-47600D01*
X62900Y-47600D02*
X63300Y-47600D01*
X63300Y-48100D02*
X63300Y-47100D01*
X63300Y-47100D02*
X67500Y-47100D01*
X67500Y-47100D02*
X67500Y-48100D01*
X67500Y-48100D02*
X63300Y-48100D01*
X67500Y-47900D02*
X67300Y-48100D01*
X62900Y-46100D02*
X63300Y-46100D01*
X67900Y-46100D02*
X67500Y-46100D01*
X67500Y-45600D02*
X67500Y-46600D01*
X67500Y-46600D02*
X63300Y-46600D01*
X63300Y-46600D02*
X63300Y-45600D01*
X63300Y-45600D02*
X67500Y-45600D01*
X63300Y-45800D02*
X63500Y-45600D01*
X62900Y-49100D02*
X63300Y-49100D01*
X67900Y-49100D02*
X67500Y-49100D01*
X67500Y-48600D02*
X67500Y-49600D01*
X67500Y-49600D02*
X63300Y-49600D01*
X63300Y-49600D02*
X63300Y-48600D01*
X63300Y-48600D02*
X67500Y-48600D01*
X63300Y-48800D02*
X63500Y-48600D01*
G54D12*
X77075Y-47775D02*
X76600Y-48275D01*
X77075Y-48275D02*
X77075Y-47025D01*
X77075Y-47025D02*
X75825Y-47025D01*
X75825Y-47025D02*
X75825Y-48275D01*
X75825Y-48275D02*
X77075Y-48275D01*
X80075Y-47775D02*
X79600Y-48275D01*
X80075Y-48275D02*
X80075Y-47025D01*
X80075Y-47025D02*
X78825Y-47025D01*
X78825Y-47025D02*
X78825Y-48275D01*
X78825Y-48275D02*
X80075Y-48275D01*
G54D16*
X77546Y-49268D02*
X77546Y-49396D01*
X77546Y-49396D02*
X77743Y-49396D01*
X77743Y-49268D02*
X77743Y-49396D01*
X77546Y-49268D02*
X77743Y-49268D01*
X77546Y-49023D02*
X77546Y-49082D01*
X77546Y-49082D02*
X77645Y-49082D01*
X77645Y-49023D02*
X77645Y-49082D01*
X77546Y-49023D02*
X77645Y-49023D01*
X77546Y-49218D02*
X77546Y-49277D01*
X77546Y-49277D02*
X77645Y-49277D01*
X77645Y-49218D02*
X77645Y-49277D01*
X77546Y-49218D02*
X77645Y-49218D01*
X77546Y-49072D02*
X77546Y-49228D01*
X77546Y-49228D02*
X77615Y-49228D01*
X77615Y-49072D02*
X77615Y-49228D01*
X77546Y-49072D02*
X77615Y-49072D01*
X76957Y-49268D02*
X76957Y-49396D01*
X76957Y-49396D02*
X77154Y-49396D01*
X77154Y-49268D02*
X77154Y-49396D01*
X76957Y-49268D02*
X77154Y-49268D01*
X76957Y-48904D02*
X76957Y-49032D01*
X76957Y-49032D02*
X77154Y-49032D01*
X77154Y-48904D02*
X77154Y-49032D01*
X76957Y-48904D02*
X77154Y-48904D01*
X77055Y-49218D02*
X77055Y-49277D01*
X77055Y-49277D02*
X77154Y-49277D01*
X77154Y-49218D02*
X77154Y-49277D01*
X77055Y-49218D02*
X77154Y-49218D01*
X77055Y-49023D02*
X77055Y-49082D01*
X77055Y-49082D02*
X77154Y-49082D01*
X77154Y-49023D02*
X77154Y-49082D01*
X77055Y-49023D02*
X77154Y-49023D01*
X77085Y-49072D02*
X77085Y-49228D01*
X77085Y-49228D02*
X77154Y-49228D01*
X77154Y-49072D02*
X77154Y-49228D01*
X77085Y-49072D02*
X77154Y-49072D01*
X77350Y-49111D02*
X77350Y-49189D01*
X77350Y-49189D02*
X77428Y-49189D01*
X77428Y-49111D02*
X77428Y-49189D01*
X77350Y-49111D02*
X77428Y-49111D01*
X77546Y-48914D02*
X77546Y-49032D01*
X77546Y-49032D02*
X77664Y-49032D01*
X77664Y-48914D02*
X77664Y-49032D01*
X77546Y-48914D02*
X77664Y-48914D01*
X77714Y-48904D02*
X77714Y-48993D01*
X77714Y-48993D02*
X77743Y-48993D01*
X77743Y-48904D02*
X77743Y-48993D01*
X77714Y-48904D02*
X77743Y-48904D01*
G54D17*
X77556Y-49376D02*
X77144Y-49376D01*
X77154Y-48924D02*
X77714Y-48924D01*
G54D18*
X77712Y-48973D02*
G75*
G03X77712Y-48973I-28J0D01*
G74*
G01*
G54D17*
X77743Y-49013D02*
G75*
G03X77743Y-49287I0J-137D01*
G74*
G01*
X76957Y-49287D02*
G75*
G03X76957Y-49013I0J137D01*
G74*
G01*
G54D16*
X77154Y-54282D02*
X77154Y-54154D01*
X77154Y-54154D02*
X76957Y-54154D01*
X76957Y-54282D02*
X76957Y-54154D01*
X77154Y-54282D02*
X76957Y-54282D01*
X77154Y-54527D02*
X77154Y-54468D01*
X77154Y-54468D02*
X77055Y-54468D01*
X77055Y-54527D02*
X77055Y-54468D01*
X77154Y-54527D02*
X77055Y-54527D01*
X77154Y-54332D02*
X77154Y-54273D01*
X77154Y-54273D02*
X77055Y-54273D01*
X77055Y-54332D02*
X77055Y-54273D01*
X77154Y-54332D02*
X77055Y-54332D01*
X77154Y-54478D02*
X77154Y-54322D01*
X77154Y-54322D02*
X77085Y-54322D01*
X77085Y-54478D02*
X77085Y-54322D01*
X77154Y-54478D02*
X77085Y-54478D01*
X77743Y-54282D02*
X77743Y-54154D01*
X77743Y-54154D02*
X77546Y-54154D01*
X77546Y-54282D02*
X77546Y-54154D01*
X77743Y-54282D02*
X77546Y-54282D01*
X77743Y-54646D02*
X77743Y-54518D01*
X77743Y-54518D02*
X77546Y-54518D01*
X77546Y-54646D02*
X77546Y-54518D01*
X77743Y-54646D02*
X77546Y-54646D01*
X77645Y-54332D02*
X77645Y-54273D01*
X77645Y-54273D02*
X77546Y-54273D01*
X77546Y-54332D02*
X77546Y-54273D01*
X77645Y-54332D02*
X77546Y-54332D01*
X77645Y-54527D02*
X77645Y-54468D01*
X77645Y-54468D02*
X77546Y-54468D01*
X77546Y-54527D02*
X77546Y-54468D01*
X77645Y-54527D02*
X77546Y-54527D01*
X77615Y-54478D02*
X77615Y-54322D01*
X77615Y-54322D02*
X77546Y-54322D01*
X77546Y-54478D02*
X77546Y-54322D01*
X77615Y-54478D02*
X77546Y-54478D01*
X77350Y-54439D02*
X77350Y-54361D01*
X77350Y-54361D02*
X77272Y-54361D01*
X77272Y-54439D02*
X77272Y-54361D01*
X77350Y-54439D02*
X77272Y-54439D01*
X77154Y-54636D02*
X77154Y-54518D01*
X77154Y-54518D02*
X77036Y-54518D01*
X77036Y-54636D02*
X77036Y-54518D01*
X77154Y-54636D02*
X77036Y-54636D01*
X76986Y-54646D02*
X76986Y-54557D01*
X76986Y-54557D02*
X76957Y-54557D01*
X76957Y-54646D02*
X76957Y-54557D01*
X76986Y-54646D02*
X76957Y-54646D01*
G54D17*
X77144Y-54174D02*
X77556Y-54174D01*
X77546Y-54626D02*
X76986Y-54626D01*
G54D18*
X77044Y-54577D02*
G75*
G03X77044Y-54577I-28J0D01*
G74*
G01*
G54D17*
X76957Y-54537D02*
G75*
G03X76957Y-54263I0J137D01*
G74*
G01*
X77743Y-54263D02*
G75*
G03X77743Y-54537I0J-137D01*
G74*
G01*
G54D16*
X77154Y-52782D02*
X77154Y-52654D01*
X77154Y-52654D02*
X76957Y-52654D01*
X76957Y-52782D02*
X76957Y-52654D01*
X77154Y-52782D02*
X76957Y-52782D01*
X77154Y-53027D02*
X77154Y-52968D01*
X77154Y-52968D02*
X77055Y-52968D01*
X77055Y-53027D02*
X77055Y-52968D01*
X77154Y-53027D02*
X77055Y-53027D01*
X77154Y-52832D02*
X77154Y-52773D01*
X77154Y-52773D02*
X77055Y-52773D01*
X77055Y-52832D02*
X77055Y-52773D01*
X77154Y-52832D02*
X77055Y-52832D01*
X77154Y-52978D02*
X77154Y-52822D01*
X77154Y-52822D02*
X77085Y-52822D01*
X77085Y-52978D02*
X77085Y-52822D01*
X77154Y-52978D02*
X77085Y-52978D01*
X77743Y-52782D02*
X77743Y-52654D01*
X77743Y-52654D02*
X77546Y-52654D01*
X77546Y-52782D02*
X77546Y-52654D01*
X77743Y-52782D02*
X77546Y-52782D01*
X77743Y-53146D02*
X77743Y-53018D01*
X77743Y-53018D02*
X77546Y-53018D01*
X77546Y-53146D02*
X77546Y-53018D01*
X77743Y-53146D02*
X77546Y-53146D01*
X77645Y-52832D02*
X77645Y-52773D01*
X77645Y-52773D02*
X77546Y-52773D01*
X77546Y-52832D02*
X77546Y-52773D01*
X77645Y-52832D02*
X77546Y-52832D01*
X77645Y-53027D02*
X77645Y-52968D01*
X77645Y-52968D02*
X77546Y-52968D01*
X77546Y-53027D02*
X77546Y-52968D01*
X77645Y-53027D02*
X77546Y-53027D01*
X77615Y-52978D02*
X77615Y-52822D01*
X77615Y-52822D02*
X77546Y-52822D01*
X77546Y-52978D02*
X77546Y-52822D01*
X77615Y-52978D02*
X77546Y-52978D01*
X77350Y-52939D02*
X77350Y-52861D01*
X77350Y-52861D02*
X77272Y-52861D01*
X77272Y-52939D02*
X77272Y-52861D01*
X77350Y-52939D02*
X77272Y-52939D01*
X77154Y-53136D02*
X77154Y-53018D01*
X77154Y-53018D02*
X77036Y-53018D01*
X77036Y-53136D02*
X77036Y-53018D01*
X77154Y-53136D02*
X77036Y-53136D01*
X76986Y-53146D02*
X76986Y-53057D01*
X76986Y-53057D02*
X76957Y-53057D01*
X76957Y-53146D02*
X76957Y-53057D01*
X76986Y-53146D02*
X76957Y-53146D01*
G54D17*
X77144Y-52674D02*
X77556Y-52674D01*
X77546Y-53126D02*
X76986Y-53126D01*
G54D18*
X77044Y-53077D02*
G75*
G03X77044Y-53077I-28J0D01*
G74*
G01*
G54D17*
X76957Y-53037D02*
G75*
G03X76957Y-52763I0J137D01*
G74*
G01*
X77743Y-52763D02*
G75*
G03X77743Y-53037I0J-137D01*
G74*
G01*
G54D16*
X77546Y-50768D02*
X77546Y-50896D01*
X77546Y-50896D02*
X77743Y-50896D01*
X77743Y-50768D02*
X77743Y-50896D01*
X77546Y-50768D02*
X77743Y-50768D01*
X77546Y-50523D02*
X77546Y-50582D01*
X77546Y-50582D02*
X77645Y-50582D01*
X77645Y-50523D02*
X77645Y-50582D01*
X77546Y-50523D02*
X77645Y-50523D01*
X77546Y-50718D02*
X77546Y-50777D01*
X77546Y-50777D02*
X77645Y-50777D01*
X77645Y-50718D02*
X77645Y-50777D01*
X77546Y-50718D02*
X77645Y-50718D01*
X77546Y-50572D02*
X77546Y-50728D01*
X77546Y-50728D02*
X77615Y-50728D01*
X77615Y-50572D02*
X77615Y-50728D01*
X77546Y-50572D02*
X77615Y-50572D01*
X76957Y-50768D02*
X76957Y-50896D01*
X76957Y-50896D02*
X77154Y-50896D01*
X77154Y-50768D02*
X77154Y-50896D01*
X76957Y-50768D02*
X77154Y-50768D01*
X76957Y-50404D02*
X76957Y-50532D01*
X76957Y-50532D02*
X77154Y-50532D01*
X77154Y-50404D02*
X77154Y-50532D01*
X76957Y-50404D02*
X77154Y-50404D01*
X77055Y-50718D02*
X77055Y-50777D01*
X77055Y-50777D02*
X77154Y-50777D01*
X77154Y-50718D02*
X77154Y-50777D01*
X77055Y-50718D02*
X77154Y-50718D01*
X77055Y-50523D02*
X77055Y-50582D01*
X77055Y-50582D02*
X77154Y-50582D01*
X77154Y-50523D02*
X77154Y-50582D01*
X77055Y-50523D02*
X77154Y-50523D01*
X77085Y-50572D02*
X77085Y-50728D01*
X77085Y-50728D02*
X77154Y-50728D01*
X77154Y-50572D02*
X77154Y-50728D01*
X77085Y-50572D02*
X77154Y-50572D01*
X77350Y-50611D02*
X77350Y-50689D01*
X77350Y-50689D02*
X77428Y-50689D01*
X77428Y-50611D02*
X77428Y-50689D01*
X77350Y-50611D02*
X77428Y-50611D01*
X77546Y-50414D02*
X77546Y-50532D01*
X77546Y-50532D02*
X77664Y-50532D01*
X77664Y-50414D02*
X77664Y-50532D01*
X77546Y-50414D02*
X77664Y-50414D01*
X77714Y-50404D02*
X77714Y-50493D01*
X77714Y-50493D02*
X77743Y-50493D01*
X77743Y-50404D02*
X77743Y-50493D01*
X77714Y-50404D02*
X77743Y-50404D01*
G54D17*
X77556Y-50876D02*
X77144Y-50876D01*
X77154Y-50424D02*
X77714Y-50424D01*
G54D18*
X77712Y-50473D02*
G75*
G03X77712Y-50473I-28J0D01*
G74*
G01*
G54D17*
X77743Y-50513D02*
G75*
G03X77743Y-50787I0J-137D01*
G74*
G01*
X76957Y-50787D02*
G75*
G03X76957Y-50513I0J137D01*
G74*
G01*
G54D16*
X77154Y-51282D02*
X77154Y-51154D01*
X77154Y-51154D02*
X76957Y-51154D01*
X76957Y-51282D02*
X76957Y-51154D01*
X77154Y-51282D02*
X76957Y-51282D01*
X77154Y-51527D02*
X77154Y-51468D01*
X77154Y-51468D02*
X77055Y-51468D01*
X77055Y-51527D02*
X77055Y-51468D01*
X77154Y-51527D02*
X77055Y-51527D01*
X77154Y-51332D02*
X77154Y-51273D01*
X77154Y-51273D02*
X77055Y-51273D01*
X77055Y-51332D02*
X77055Y-51273D01*
X77154Y-51332D02*
X77055Y-51332D01*
X77154Y-51478D02*
X77154Y-51322D01*
X77154Y-51322D02*
X77085Y-51322D01*
X77085Y-51478D02*
X77085Y-51322D01*
X77154Y-51478D02*
X77085Y-51478D01*
X77743Y-51282D02*
X77743Y-51154D01*
X77743Y-51154D02*
X77546Y-51154D01*
X77546Y-51282D02*
X77546Y-51154D01*
X77743Y-51282D02*
X77546Y-51282D01*
X77743Y-51646D02*
X77743Y-51518D01*
X77743Y-51518D02*
X77546Y-51518D01*
X77546Y-51646D02*
X77546Y-51518D01*
X77743Y-51646D02*
X77546Y-51646D01*
X77645Y-51332D02*
X77645Y-51273D01*
X77645Y-51273D02*
X77546Y-51273D01*
X77546Y-51332D02*
X77546Y-51273D01*
X77645Y-51332D02*
X77546Y-51332D01*
X77645Y-51527D02*
X77645Y-51468D01*
X77645Y-51468D02*
X77546Y-51468D01*
X77546Y-51527D02*
X77546Y-51468D01*
X77645Y-51527D02*
X77546Y-51527D01*
X77615Y-51478D02*
X77615Y-51322D01*
X77615Y-51322D02*
X77546Y-51322D01*
X77546Y-51478D02*
X77546Y-51322D01*
X77615Y-51478D02*
X77546Y-51478D01*
X77350Y-51439D02*
X77350Y-51361D01*
X77350Y-51361D02*
X77272Y-51361D01*
X77272Y-51439D02*
X77272Y-51361D01*
X77350Y-51439D02*
X77272Y-51439D01*
X77154Y-51636D02*
X77154Y-51518D01*
X77154Y-51518D02*
X77036Y-51518D01*
X77036Y-51636D02*
X77036Y-51518D01*
X77154Y-51636D02*
X77036Y-51636D01*
X76986Y-51646D02*
X76986Y-51557D01*
X76986Y-51557D02*
X76957Y-51557D01*
X76957Y-51646D02*
X76957Y-51557D01*
X76986Y-51646D02*
X76957Y-51646D01*
G54D17*
X77144Y-51174D02*
X77556Y-51174D01*
X77546Y-51626D02*
X76986Y-51626D01*
G54D18*
X77044Y-51577D02*
G75*
G03X77044Y-51577I-28J0D01*
G74*
G01*
G54D17*
X76957Y-51537D02*
G75*
G03X76957Y-51263I0J137D01*
G74*
G01*
X77743Y-51263D02*
G75*
G03X77743Y-51537I0J-137D01*
G74*
G01*
G54D16*
X77546Y-52268D02*
X77546Y-52396D01*
X77546Y-52396D02*
X77743Y-52396D01*
X77743Y-52268D02*
X77743Y-52396D01*
X77546Y-52268D02*
X77743Y-52268D01*
X77546Y-52023D02*
X77546Y-52082D01*
X77546Y-52082D02*
X77645Y-52082D01*
X77645Y-52023D02*
X77645Y-52082D01*
X77546Y-52023D02*
X77645Y-52023D01*
X77546Y-52218D02*
X77546Y-52277D01*
X77546Y-52277D02*
X77645Y-52277D01*
X77645Y-52218D02*
X77645Y-52277D01*
X77546Y-52218D02*
X77645Y-52218D01*
X77546Y-52072D02*
X77546Y-52228D01*
X77546Y-52228D02*
X77615Y-52228D01*
X77615Y-52072D02*
X77615Y-52228D01*
X77546Y-52072D02*
X77615Y-52072D01*
X76957Y-52268D02*
X76957Y-52396D01*
X76957Y-52396D02*
X77154Y-52396D01*
X77154Y-52268D02*
X77154Y-52396D01*
X76957Y-52268D02*
X77154Y-52268D01*
X76957Y-51904D02*
X76957Y-52032D01*
X76957Y-52032D02*
X77154Y-52032D01*
X77154Y-51904D02*
X77154Y-52032D01*
X76957Y-51904D02*
X77154Y-51904D01*
X77055Y-52218D02*
X77055Y-52277D01*
X77055Y-52277D02*
X77154Y-52277D01*
X77154Y-52218D02*
X77154Y-52277D01*
X77055Y-52218D02*
X77154Y-52218D01*
X77055Y-52023D02*
X77055Y-52082D01*
X77055Y-52082D02*
X77154Y-52082D01*
X77154Y-52023D02*
X77154Y-52082D01*
X77055Y-52023D02*
X77154Y-52023D01*
X77085Y-52072D02*
X77085Y-52228D01*
X77085Y-52228D02*
X77154Y-52228D01*
X77154Y-52072D02*
X77154Y-52228D01*
X77085Y-52072D02*
X77154Y-52072D01*
X77350Y-52111D02*
X77350Y-52189D01*
X77350Y-52189D02*
X77428Y-52189D01*
X77428Y-52111D02*
X77428Y-52189D01*
X77350Y-52111D02*
X77428Y-52111D01*
X77546Y-51914D02*
X77546Y-52032D01*
X77546Y-52032D02*
X77664Y-52032D01*
X77664Y-51914D02*
X77664Y-52032D01*
X77546Y-51914D02*
X77664Y-51914D01*
X77714Y-51904D02*
X77714Y-51993D01*
X77714Y-51993D02*
X77743Y-51993D01*
X77743Y-51904D02*
X77743Y-51993D01*
X77714Y-51904D02*
X77743Y-51904D01*
G54D17*
X77556Y-52376D02*
X77144Y-52376D01*
X77154Y-51924D02*
X77714Y-51924D01*
G54D18*
X77712Y-51973D02*
G75*
G03X77712Y-51973I-28J0D01*
G74*
G01*
G54D17*
X77743Y-52013D02*
G75*
G03X77743Y-52287I0J-137D01*
G74*
G01*
X76957Y-52287D02*
G75*
G03X76957Y-52013I0J137D01*
G74*
G01*
G54D16*
X77546Y-53768D02*
X77546Y-53896D01*
X77546Y-53896D02*
X77743Y-53896D01*
X77743Y-53768D02*
X77743Y-53896D01*
X77546Y-53768D02*
X77743Y-53768D01*
X77546Y-53523D02*
X77546Y-53582D01*
X77546Y-53582D02*
X77645Y-53582D01*
X77645Y-53523D02*
X77645Y-53582D01*
X77546Y-53523D02*
X77645Y-53523D01*
X77546Y-53718D02*
X77546Y-53777D01*
X77546Y-53777D02*
X77645Y-53777D01*
X77645Y-53718D02*
X77645Y-53777D01*
X77546Y-53718D02*
X77645Y-53718D01*
X77546Y-53572D02*
X77546Y-53728D01*
X77546Y-53728D02*
X77615Y-53728D01*
X77615Y-53572D02*
X77615Y-53728D01*
X77546Y-53572D02*
X77615Y-53572D01*
X76957Y-53768D02*
X76957Y-53896D01*
X76957Y-53896D02*
X77154Y-53896D01*
X77154Y-53768D02*
X77154Y-53896D01*
X76957Y-53768D02*
X77154Y-53768D01*
X76957Y-53404D02*
X76957Y-53532D01*
X76957Y-53532D02*
X77154Y-53532D01*
X77154Y-53404D02*
X77154Y-53532D01*
X76957Y-53404D02*
X77154Y-53404D01*
X77055Y-53718D02*
X77055Y-53777D01*
X77055Y-53777D02*
X77154Y-53777D01*
X77154Y-53718D02*
X77154Y-53777D01*
X77055Y-53718D02*
X77154Y-53718D01*
X77055Y-53523D02*
X77055Y-53582D01*
X77055Y-53582D02*
X77154Y-53582D01*
X77154Y-53523D02*
X77154Y-53582D01*
X77055Y-53523D02*
X77154Y-53523D01*
X77085Y-53572D02*
X77085Y-53728D01*
X77085Y-53728D02*
X77154Y-53728D01*
X77154Y-53572D02*
X77154Y-53728D01*
X77085Y-53572D02*
X77154Y-53572D01*
X77350Y-53611D02*
X77350Y-53689D01*
X77350Y-53689D02*
X77428Y-53689D01*
X77428Y-53611D02*
X77428Y-53689D01*
X77350Y-53611D02*
X77428Y-53611D01*
X77546Y-53414D02*
X77546Y-53532D01*
X77546Y-53532D02*
X77664Y-53532D01*
X77664Y-53414D02*
X77664Y-53532D01*
X77546Y-53414D02*
X77664Y-53414D01*
X77714Y-53404D02*
X77714Y-53493D01*
X77714Y-53493D02*
X77743Y-53493D01*
X77743Y-53404D02*
X77743Y-53493D01*
X77714Y-53404D02*
X77743Y-53404D01*
G54D17*
X77556Y-53876D02*
X77144Y-53876D01*
X77154Y-53424D02*
X77714Y-53424D01*
G54D18*
X77712Y-53473D02*
G75*
G03X77712Y-53473I-28J0D01*
G74*
G01*
G54D17*
X77743Y-53513D02*
G75*
G03X77743Y-53787I0J-137D01*
G74*
G01*
X76957Y-53787D02*
G75*
G03X76957Y-53513I0J137D01*
G74*
G01*
G54D16*
X77154Y-49782D02*
X77154Y-49654D01*
X77154Y-49654D02*
X76957Y-49654D01*
X76957Y-49782D02*
X76957Y-49654D01*
X77154Y-49782D02*
X76957Y-49782D01*
X77154Y-50027D02*
X77154Y-49968D01*
X77154Y-49968D02*
X77055Y-49968D01*
X77055Y-50027D02*
X77055Y-49968D01*
X77154Y-50027D02*
X77055Y-50027D01*
X77154Y-49832D02*
X77154Y-49773D01*
X77154Y-49773D02*
X77055Y-49773D01*
X77055Y-49832D02*
X77055Y-49773D01*
X77154Y-49832D02*
X77055Y-49832D01*
X77154Y-49978D02*
X77154Y-49822D01*
X77154Y-49822D02*
X77085Y-49822D01*
X77085Y-49978D02*
X77085Y-49822D01*
X77154Y-49978D02*
X77085Y-49978D01*
X77743Y-49782D02*
X77743Y-49654D01*
X77743Y-49654D02*
X77546Y-49654D01*
X77546Y-49782D02*
X77546Y-49654D01*
X77743Y-49782D02*
X77546Y-49782D01*
X77743Y-50146D02*
X77743Y-50018D01*
X77743Y-50018D02*
X77546Y-50018D01*
X77546Y-50146D02*
X77546Y-50018D01*
X77743Y-50146D02*
X77546Y-50146D01*
X77645Y-49832D02*
X77645Y-49773D01*
X77645Y-49773D02*
X77546Y-49773D01*
X77546Y-49832D02*
X77546Y-49773D01*
X77645Y-49832D02*
X77546Y-49832D01*
X77645Y-50027D02*
X77645Y-49968D01*
X77645Y-49968D02*
X77546Y-49968D01*
X77546Y-50027D02*
X77546Y-49968D01*
X77645Y-50027D02*
X77546Y-50027D01*
X77615Y-49978D02*
X77615Y-49822D01*
X77615Y-49822D02*
X77546Y-49822D01*
X77546Y-49978D02*
X77546Y-49822D01*
X77615Y-49978D02*
X77546Y-49978D01*
X77350Y-49939D02*
X77350Y-49861D01*
X77350Y-49861D02*
X77272Y-49861D01*
X77272Y-49939D02*
X77272Y-49861D01*
X77350Y-49939D02*
X77272Y-49939D01*
X77154Y-50136D02*
X77154Y-50018D01*
X77154Y-50018D02*
X77036Y-50018D01*
X77036Y-50136D02*
X77036Y-50018D01*
X77154Y-50136D02*
X77036Y-50136D01*
X76986Y-50146D02*
X76986Y-50057D01*
X76986Y-50057D02*
X76957Y-50057D01*
X76957Y-50146D02*
X76957Y-50057D01*
X76986Y-50146D02*
X76957Y-50146D01*
G54D17*
X77144Y-49674D02*
X77556Y-49674D01*
X77546Y-50126D02*
X76986Y-50126D01*
G54D18*
X77044Y-50077D02*
G75*
G03X77044Y-50077I-28J0D01*
G74*
G01*
G54D17*
X76957Y-50037D02*
G75*
G03X76957Y-49763I0J137D01*
G74*
G01*
X77743Y-49763D02*
G75*
G03X77743Y-50037I0J-137D01*
G74*
G01*
G54D15*
X74150Y-46150D02*
X73650Y-46150D01*
X73650Y-46150D02*
X73650Y-45650D01*
X73650Y-45650D02*
X69650Y-45650D01*
X69650Y-45650D02*
X69650Y-46150D01*
X69650Y-46150D02*
X69150Y-46150D01*
X69650Y-46150D02*
X69650Y-46650D01*
X69650Y-46650D02*
X73650Y-46650D01*
X73650Y-46650D02*
X73650Y-46150D01*
X73150Y-45650D02*
X73150Y-46650D01*
X73250Y-45650D02*
X73250Y-46650D01*
G54D19*
X66809Y-52021D02*
X66809Y-52264D01*
X66821Y-52292D01*
X66833Y-52307D01*
X66857Y-52321D01*
X66904Y-52321D01*
X66928Y-52307D01*
X66940Y-52292D01*
X66952Y-52264D01*
X66952Y-52021D01*
X67059Y-52050D02*
X67071Y-52035D01*
X67095Y-52021D01*
X67154Y-52021D01*
X67178Y-52035D01*
X67190Y-52050D01*
X67202Y-52078D01*
X67202Y-52107D01*
X67190Y-52150D01*
X67047Y-52321D01*
X67202Y-52321D01*
G54D20*
X66921Y-51735D02*
X66921Y-51535D01*
X67221Y-51664D01*
X67021Y-51292D02*
X67221Y-51292D01*
X66907Y-51364D02*
X67121Y-51435D01*
X67121Y-51250D01*
X67221Y-51135D02*
X66921Y-51135D01*
X67064Y-51135D02*
X67064Y-50964D01*
X67221Y-50964D02*
X66921Y-50964D01*
X67192Y-50650D02*
X67207Y-50664D01*
X67221Y-50707D01*
X67221Y-50735D01*
X67207Y-50778D01*
X67178Y-50807D01*
X67150Y-50821D01*
X67092Y-50835D01*
X67050Y-50835D01*
X66992Y-50821D01*
X66964Y-50807D01*
X66935Y-50778D01*
X66921Y-50735D01*
X66921Y-50707D01*
X66935Y-50664D01*
X66950Y-50650D01*
X66921Y-50464D02*
X66921Y-50435D01*
X66935Y-50407D01*
X66950Y-50392D01*
X66978Y-50378D01*
X67035Y-50364D01*
X67107Y-50364D01*
X67164Y-50378D01*
X67192Y-50392D01*
X67207Y-50407D01*
X67221Y-50435D01*
X67221Y-50464D01*
X67207Y-50492D01*
X67192Y-50507D01*
X67164Y-50521D01*
X67107Y-50535D01*
X67035Y-50535D01*
X66978Y-50521D01*
X66950Y-50507D01*
X66935Y-50492D01*
X66921Y-50464D01*
X67021Y-50107D02*
X67221Y-50107D01*
X66907Y-50178D02*
X67121Y-50250D01*
X67121Y-50064D01*
G54D21*
X73060Y-54787D02*
X73031Y-54772D01*
X73003Y-54744D01*
X72960Y-54701D01*
X72931Y-54687D01*
X72903Y-54687D01*
X72917Y-54758D02*
X72889Y-54744D01*
X72860Y-54715D01*
X72846Y-54658D01*
X72846Y-54558D01*
X72860Y-54501D01*
X72889Y-54472D01*
X72917Y-54458D01*
X72974Y-54458D01*
X73003Y-54472D01*
X73031Y-54501D01*
X73046Y-54558D01*
X73046Y-54658D01*
X73031Y-54715D01*
X73003Y-54744D01*
X72974Y-54758D01*
X72917Y-54758D01*
X73303Y-54558D02*
X73303Y-54758D01*
X73231Y-54444D02*
X73160Y-54658D01*
X73346Y-54658D01*
G54D14*
X73026Y-54240D02*
X73035Y-54212D01*
X73045Y-54203D01*
X73064Y-54193D01*
X73092Y-54193D01*
X73110Y-54203D01*
X73120Y-54212D01*
X73129Y-54231D01*
X73129Y-54306D01*
X72932Y-54306D01*
X72932Y-54240D01*
X72942Y-54222D01*
X72951Y-54212D01*
X72970Y-54203D01*
X72989Y-54203D01*
X73007Y-54212D01*
X73017Y-54222D01*
X73026Y-54240D01*
X73026Y-54306D01*
X73110Y-53996D02*
X73120Y-54006D01*
X73129Y-54034D01*
X73129Y-54053D01*
X73120Y-54081D01*
X73101Y-54100D01*
X73082Y-54109D01*
X73045Y-54118D01*
X73017Y-54118D01*
X72979Y-54109D01*
X72960Y-54100D01*
X72942Y-54081D01*
X72932Y-54053D01*
X72932Y-54034D01*
X72942Y-54006D01*
X72951Y-53996D01*
X73017Y-53884D02*
X73007Y-53903D01*
X72998Y-53912D01*
X72979Y-53921D01*
X72970Y-53921D01*
X72951Y-53912D01*
X72942Y-53903D01*
X72932Y-53884D01*
X72932Y-53846D01*
X72942Y-53828D01*
X72951Y-53818D01*
X72970Y-53809D01*
X72979Y-53809D01*
X72998Y-53818D01*
X73007Y-53828D01*
X73017Y-53846D01*
X73017Y-53884D01*
X73026Y-53903D01*
X73035Y-53912D01*
X73054Y-53921D01*
X73092Y-53921D01*
X73110Y-53912D01*
X73120Y-53903D01*
X73129Y-53884D01*
X73129Y-53846D01*
X73120Y-53828D01*
X73110Y-53818D01*
X73092Y-53809D01*
X73054Y-53809D01*
X73035Y-53818D01*
X73026Y-53828D01*
X73017Y-53846D01*
X72998Y-53640D02*
X73129Y-53640D01*
X72923Y-53687D02*
X73064Y-53734D01*
X73064Y-53612D01*
X72932Y-53556D02*
X72932Y-53424D01*
X73129Y-53509D01*
G54D21*
X73060Y-53087D02*
X73031Y-53072D01*
X73003Y-53044D01*
X72960Y-53001D01*
X72931Y-52987D01*
X72903Y-52987D01*
X72917Y-53058D02*
X72889Y-53044D01*
X72860Y-53015D01*
X72846Y-52958D01*
X72846Y-52858D01*
X72860Y-52801D01*
X72889Y-52772D01*
X72917Y-52758D01*
X72974Y-52758D01*
X73003Y-52772D01*
X73031Y-52801D01*
X73046Y-52858D01*
X73046Y-52958D01*
X73031Y-53015D01*
X73003Y-53044D01*
X72974Y-53058D01*
X72917Y-53058D01*
X73146Y-52758D02*
X73331Y-52758D01*
X73231Y-52872D01*
X73274Y-52872D01*
X73303Y-52887D01*
X73317Y-52901D01*
X73331Y-52929D01*
X73331Y-53001D01*
X73317Y-53029D01*
X73303Y-53044D01*
X73274Y-53058D01*
X73189Y-53058D01*
X73160Y-53044D01*
X73146Y-53029D01*
G54D14*
X73026Y-52540D02*
X73035Y-52512D01*
X73045Y-52503D01*
X73064Y-52493D01*
X73092Y-52493D01*
X73110Y-52503D01*
X73120Y-52512D01*
X73129Y-52531D01*
X73129Y-52606D01*
X72932Y-52606D01*
X72932Y-52540D01*
X72942Y-52522D01*
X72951Y-52512D01*
X72970Y-52503D01*
X72989Y-52503D01*
X73007Y-52512D01*
X73017Y-52522D01*
X73026Y-52540D01*
X73026Y-52606D01*
X73110Y-52296D02*
X73120Y-52306D01*
X73129Y-52334D01*
X73129Y-52353D01*
X73120Y-52381D01*
X73101Y-52400D01*
X73082Y-52409D01*
X73045Y-52418D01*
X73017Y-52418D01*
X72979Y-52409D01*
X72960Y-52400D01*
X72942Y-52381D01*
X72932Y-52353D01*
X72932Y-52334D01*
X72942Y-52306D01*
X72951Y-52296D01*
X73017Y-52184D02*
X73007Y-52203D01*
X72998Y-52212D01*
X72979Y-52221D01*
X72970Y-52221D01*
X72951Y-52212D01*
X72942Y-52203D01*
X72932Y-52184D01*
X72932Y-52146D01*
X72942Y-52128D01*
X72951Y-52118D01*
X72970Y-52109D01*
X72979Y-52109D01*
X72998Y-52118D01*
X73007Y-52128D01*
X73017Y-52146D01*
X73017Y-52184D01*
X73026Y-52203D01*
X73035Y-52212D01*
X73054Y-52221D01*
X73092Y-52221D01*
X73110Y-52212D01*
X73120Y-52203D01*
X73129Y-52184D01*
X73129Y-52146D01*
X73120Y-52128D01*
X73110Y-52118D01*
X73092Y-52109D01*
X73054Y-52109D01*
X73035Y-52118D01*
X73026Y-52128D01*
X73017Y-52146D01*
X72998Y-51940D02*
X73129Y-51940D01*
X72923Y-51987D02*
X73064Y-52034D01*
X73064Y-51912D01*
X72932Y-51856D02*
X72932Y-51724D01*
X73129Y-51809D01*
G54D21*
X73060Y-51387D02*
X73031Y-51372D01*
X73003Y-51344D01*
X72960Y-51301D01*
X72931Y-51287D01*
X72903Y-51287D01*
X72917Y-51358D02*
X72889Y-51344D01*
X72860Y-51315D01*
X72846Y-51258D01*
X72846Y-51158D01*
X72860Y-51101D01*
X72889Y-51072D01*
X72917Y-51058D01*
X72974Y-51058D01*
X73003Y-51072D01*
X73031Y-51101D01*
X73046Y-51158D01*
X73046Y-51258D01*
X73031Y-51315D01*
X73003Y-51344D01*
X72974Y-51358D01*
X72917Y-51358D01*
X73160Y-51087D02*
X73174Y-51072D01*
X73203Y-51058D01*
X73274Y-51058D01*
X73303Y-51072D01*
X73317Y-51087D01*
X73331Y-51115D01*
X73331Y-51144D01*
X73317Y-51187D01*
X73146Y-51358D01*
X73331Y-51358D01*
G54D14*
X73026Y-50840D02*
X73035Y-50812D01*
X73045Y-50803D01*
X73064Y-50793D01*
X73092Y-50793D01*
X73110Y-50803D01*
X73120Y-50812D01*
X73129Y-50831D01*
X73129Y-50906D01*
X72932Y-50906D01*
X72932Y-50840D01*
X72942Y-50822D01*
X72951Y-50812D01*
X72970Y-50803D01*
X72989Y-50803D01*
X73007Y-50812D01*
X73017Y-50822D01*
X73026Y-50840D01*
X73026Y-50906D01*
X73110Y-50596D02*
X73120Y-50606D01*
X73129Y-50634D01*
X73129Y-50653D01*
X73120Y-50681D01*
X73101Y-50700D01*
X73082Y-50709D01*
X73045Y-50718D01*
X73017Y-50718D01*
X72979Y-50709D01*
X72960Y-50700D01*
X72942Y-50681D01*
X72932Y-50653D01*
X72932Y-50634D01*
X72942Y-50606D01*
X72951Y-50596D01*
X73017Y-50484D02*
X73007Y-50503D01*
X72998Y-50512D01*
X72979Y-50521D01*
X72970Y-50521D01*
X72951Y-50512D01*
X72942Y-50503D01*
X72932Y-50484D01*
X72932Y-50446D01*
X72942Y-50428D01*
X72951Y-50418D01*
X72970Y-50409D01*
X72979Y-50409D01*
X72998Y-50418D01*
X73007Y-50428D01*
X73017Y-50446D01*
X73017Y-50484D01*
X73026Y-50503D01*
X73035Y-50512D01*
X73054Y-50521D01*
X73092Y-50521D01*
X73110Y-50512D01*
X73120Y-50503D01*
X73129Y-50484D01*
X73129Y-50446D01*
X73120Y-50428D01*
X73110Y-50418D01*
X73092Y-50409D01*
X73054Y-50409D01*
X73035Y-50418D01*
X73026Y-50428D01*
X73017Y-50446D01*
X72998Y-50240D02*
X73129Y-50240D01*
X72923Y-50287D02*
X73064Y-50334D01*
X73064Y-50212D01*
X72932Y-50156D02*
X72932Y-50024D01*
X73129Y-50109D01*
G54D21*
X73060Y-49637D02*
X73031Y-49622D01*
X73003Y-49594D01*
X72960Y-49551D01*
X72931Y-49537D01*
X72903Y-49537D01*
X72917Y-49608D02*
X72889Y-49594D01*
X72860Y-49565D01*
X72846Y-49508D01*
X72846Y-49408D01*
X72860Y-49351D01*
X72889Y-49322D01*
X72917Y-49308D01*
X72974Y-49308D01*
X73003Y-49322D01*
X73031Y-49351D01*
X73046Y-49408D01*
X73046Y-49508D01*
X73031Y-49565D01*
X73003Y-49594D01*
X72974Y-49608D01*
X72917Y-49608D01*
X73331Y-49608D02*
X73160Y-49608D01*
X73246Y-49608D02*
X73246Y-49308D01*
X73217Y-49351D01*
X73189Y-49379D01*
X73160Y-49394D01*
G54D14*
X73026Y-49090D02*
X73035Y-49062D01*
X73045Y-49053D01*
X73064Y-49043D01*
X73092Y-49043D01*
X73110Y-49053D01*
X73120Y-49062D01*
X73129Y-49081D01*
X73129Y-49156D01*
X72932Y-49156D01*
X72932Y-49090D01*
X72942Y-49072D01*
X72951Y-49062D01*
X72970Y-49053D01*
X72989Y-49053D01*
X73007Y-49062D01*
X73017Y-49072D01*
X73026Y-49090D01*
X73026Y-49156D01*
X73110Y-48846D02*
X73120Y-48856D01*
X73129Y-48884D01*
X73129Y-48903D01*
X73120Y-48931D01*
X73101Y-48950D01*
X73082Y-48959D01*
X73045Y-48968D01*
X73017Y-48968D01*
X72979Y-48959D01*
X72960Y-48950D01*
X72942Y-48931D01*
X72932Y-48903D01*
X72932Y-48884D01*
X72942Y-48856D01*
X72951Y-48846D01*
X73017Y-48734D02*
X73007Y-48753D01*
X72998Y-48762D01*
X72979Y-48771D01*
X72970Y-48771D01*
X72951Y-48762D01*
X72942Y-48753D01*
X72932Y-48734D01*
X72932Y-48696D01*
X72942Y-48678D01*
X72951Y-48668D01*
X72970Y-48659D01*
X72979Y-48659D01*
X72998Y-48668D01*
X73007Y-48678D01*
X73017Y-48696D01*
X73017Y-48734D01*
X73026Y-48753D01*
X73035Y-48762D01*
X73054Y-48771D01*
X73092Y-48771D01*
X73110Y-48762D01*
X73120Y-48753D01*
X73129Y-48734D01*
X73129Y-48696D01*
X73120Y-48678D01*
X73110Y-48668D01*
X73092Y-48659D01*
X73054Y-48659D01*
X73035Y-48668D01*
X73026Y-48678D01*
X73017Y-48696D01*
X72998Y-48490D02*
X73129Y-48490D01*
X72923Y-48537D02*
X73064Y-48584D01*
X73064Y-48462D01*
X72932Y-48406D02*
X72932Y-48274D01*
X73129Y-48359D01*
G54D11*
X66595Y-54532D02*
X66595Y-54896D01*
X66614Y-54939D01*
X66633Y-54960D01*
X66671Y-54982D01*
X66747Y-54982D01*
X66785Y-54960D01*
X66804Y-54939D01*
X66823Y-54896D01*
X66823Y-54532D01*
X67223Y-54982D02*
X66995Y-54982D01*
X67109Y-54982D02*
X67109Y-54532D01*
X67071Y-54596D01*
X67033Y-54639D01*
X66995Y-54660D01*
X67880Y-54252D02*
X67880Y-54119D01*
X68080Y-54204D01*
X67880Y-53947D02*
X67880Y-54042D01*
X67976Y-54052D01*
X67966Y-54042D01*
X67957Y-54023D01*
X67957Y-53976D01*
X67966Y-53957D01*
X67976Y-53947D01*
X67995Y-53938D01*
X68042Y-53938D01*
X68061Y-53947D01*
X68071Y-53957D01*
X68080Y-53976D01*
X68080Y-54023D01*
X68071Y-54042D01*
X68061Y-54052D01*
X67880Y-53757D02*
X67880Y-53852D01*
X67976Y-53861D01*
X67966Y-53852D01*
X67957Y-53833D01*
X67957Y-53785D01*
X67966Y-53766D01*
X67976Y-53757D01*
X67995Y-53747D01*
X68042Y-53747D01*
X68061Y-53757D01*
X68071Y-53766D01*
X68080Y-53785D01*
X68080Y-53833D01*
X68071Y-53852D01*
X68061Y-53861D01*
X67880Y-53566D02*
X67880Y-53661D01*
X67976Y-53671D01*
X67966Y-53661D01*
X67957Y-53642D01*
X67957Y-53595D01*
X67966Y-53576D01*
X67976Y-53566D01*
X67995Y-53557D01*
X68042Y-53557D01*
X68061Y-53566D01*
X68071Y-53576D01*
X68080Y-53595D01*
X68080Y-53642D01*
X68071Y-53661D01*
X68061Y-53671D01*
X75007Y-50421D02*
X74907Y-50278D01*
X74835Y-50421D02*
X74835Y-50121D01*
X74950Y-50121D01*
X74978Y-50135D01*
X74992Y-50150D01*
X75007Y-50178D01*
X75007Y-50221D01*
X74992Y-50250D01*
X74978Y-50264D01*
X74950Y-50278D01*
X74835Y-50278D01*
X75292Y-50421D02*
X75121Y-50421D01*
X75207Y-50421D02*
X75207Y-50121D01*
X75178Y-50164D01*
X75150Y-50192D01*
X75121Y-50207D01*
X75564Y-50121D02*
X75421Y-50121D01*
X75407Y-50264D01*
X75421Y-50250D01*
X75450Y-50235D01*
X75521Y-50235D01*
X75550Y-50250D01*
X75564Y-50264D01*
X75578Y-50292D01*
X75578Y-50364D01*
X75564Y-50392D01*
X75550Y-50407D01*
X75521Y-50421D01*
X75450Y-50421D01*
X75421Y-50407D01*
X75407Y-50392D01*
X75121Y-49728D02*
X75321Y-49728D01*
X75007Y-49800D02*
X75221Y-49871D01*
X75221Y-49685D01*
X75021Y-49600D02*
X75021Y-49400D01*
X75321Y-49528D01*
X75021Y-49228D02*
X75021Y-49200D01*
X75035Y-49171D01*
X75050Y-49157D01*
X75078Y-49142D01*
X75135Y-49128D01*
X75207Y-49128D01*
X75264Y-49142D01*
X75292Y-49157D01*
X75307Y-49171D01*
X75321Y-49200D01*
X75321Y-49228D01*
X75307Y-49257D01*
X75292Y-49271D01*
X75264Y-49285D01*
X75207Y-49300D01*
X75135Y-49300D01*
X75078Y-49285D01*
X75050Y-49271D01*
X75035Y-49257D01*
X75021Y-49228D01*
X79707Y-53621D02*
X79607Y-53478D01*
X79535Y-53621D02*
X79535Y-53321D01*
X79650Y-53321D01*
X79678Y-53335D01*
X79692Y-53350D01*
X79707Y-53378D01*
X79707Y-53421D01*
X79692Y-53450D01*
X79678Y-53464D01*
X79650Y-53478D01*
X79535Y-53478D01*
X79992Y-53621D02*
X79821Y-53621D01*
X79907Y-53621D02*
X79907Y-53321D01*
X79878Y-53364D01*
X79850Y-53392D01*
X79821Y-53407D01*
X80250Y-53421D02*
X80250Y-53621D01*
X80178Y-53307D02*
X80107Y-53521D01*
X80292Y-53521D01*
X79821Y-53028D02*
X80021Y-53028D01*
X79707Y-53100D02*
X79921Y-53171D01*
X79921Y-52985D01*
X79721Y-52900D02*
X79721Y-52700D01*
X80021Y-52828D01*
X79721Y-52528D02*
X79721Y-52500D01*
X79735Y-52471D01*
X79750Y-52457D01*
X79778Y-52442D01*
X79835Y-52428D01*
X79907Y-52428D01*
X79964Y-52442D01*
X79992Y-52457D01*
X80007Y-52471D01*
X80021Y-52500D01*
X80021Y-52528D01*
X80007Y-52557D01*
X79992Y-52571D01*
X79964Y-52585D01*
X79907Y-52600D01*
X79835Y-52600D01*
X79778Y-52585D01*
X79750Y-52571D01*
X79735Y-52557D01*
X79721Y-52528D01*
X75007Y-51921D02*
X74907Y-51778D01*
X74835Y-51921D02*
X74835Y-51621D01*
X74950Y-51621D01*
X74978Y-51635D01*
X74992Y-51650D01*
X75007Y-51678D01*
X75007Y-51721D01*
X74992Y-51750D01*
X74978Y-51764D01*
X74950Y-51778D01*
X74835Y-51778D01*
X75292Y-51921D02*
X75121Y-51921D01*
X75207Y-51921D02*
X75207Y-51621D01*
X75178Y-51664D01*
X75150Y-51692D01*
X75121Y-51707D01*
X75392Y-51621D02*
X75578Y-51621D01*
X75478Y-51735D01*
X75521Y-51735D01*
X75550Y-51750D01*
X75564Y-51764D01*
X75578Y-51792D01*
X75578Y-51864D01*
X75564Y-51892D01*
X75550Y-51907D01*
X75521Y-51921D01*
X75435Y-51921D01*
X75407Y-51907D01*
X75392Y-51892D01*
X75071Y-51278D02*
X75271Y-51278D01*
X74957Y-51350D02*
X75171Y-51421D01*
X75171Y-51235D01*
X74971Y-51150D02*
X74971Y-50950D01*
X75271Y-51078D01*
X74971Y-50778D02*
X74971Y-50750D01*
X74985Y-50721D01*
X75000Y-50707D01*
X75028Y-50692D01*
X75085Y-50678D01*
X75157Y-50678D01*
X75214Y-50692D01*
X75242Y-50707D01*
X75257Y-50721D01*
X75271Y-50750D01*
X75271Y-50778D01*
X75257Y-50807D01*
X75242Y-50821D01*
X75214Y-50835D01*
X75157Y-50850D01*
X75085Y-50850D01*
X75028Y-50835D01*
X75000Y-50821D01*
X74985Y-50807D01*
X74971Y-50778D01*
X79707Y-52221D02*
X79607Y-52078D01*
X79535Y-52221D02*
X79535Y-51921D01*
X79650Y-51921D01*
X79678Y-51935D01*
X79692Y-51950D01*
X79707Y-51978D01*
X79707Y-52021D01*
X79692Y-52050D01*
X79678Y-52064D01*
X79650Y-52078D01*
X79535Y-52078D01*
X79992Y-52221D02*
X79821Y-52221D01*
X79907Y-52221D02*
X79907Y-51921D01*
X79878Y-51964D01*
X79850Y-51992D01*
X79821Y-52007D01*
X80107Y-51950D02*
X80121Y-51935D01*
X80150Y-51921D01*
X80221Y-51921D01*
X80250Y-51935D01*
X80264Y-51950D01*
X80278Y-51978D01*
X80278Y-52007D01*
X80264Y-52050D01*
X80092Y-52221D01*
X80278Y-52221D01*
X79821Y-51628D02*
X80021Y-51628D01*
X79707Y-51700D02*
X79921Y-51771D01*
X79921Y-51585D01*
X79721Y-51500D02*
X79721Y-51300D01*
X80021Y-51428D01*
X79721Y-51128D02*
X79721Y-51100D01*
X79735Y-51071D01*
X79750Y-51057D01*
X79778Y-51042D01*
X79835Y-51028D01*
X79907Y-51028D01*
X79964Y-51042D01*
X79992Y-51057D01*
X80007Y-51071D01*
X80021Y-51100D01*
X80021Y-51128D01*
X80007Y-51157D01*
X79992Y-51171D01*
X79964Y-51185D01*
X79907Y-51200D01*
X79835Y-51200D01*
X79778Y-51185D01*
X79750Y-51171D01*
X79735Y-51157D01*
X79721Y-51128D01*
X75007Y-53421D02*
X74907Y-53278D01*
X74835Y-53421D02*
X74835Y-53121D01*
X74950Y-53121D01*
X74978Y-53135D01*
X74992Y-53150D01*
X75007Y-53178D01*
X75007Y-53221D01*
X74992Y-53250D01*
X74978Y-53264D01*
X74950Y-53278D01*
X74835Y-53278D01*
X75292Y-53421D02*
X75121Y-53421D01*
X75207Y-53421D02*
X75207Y-53121D01*
X75178Y-53164D01*
X75150Y-53192D01*
X75121Y-53207D01*
X75578Y-53421D02*
X75407Y-53421D01*
X75492Y-53421D02*
X75492Y-53121D01*
X75464Y-53164D01*
X75435Y-53192D01*
X75407Y-53207D01*
X75071Y-52778D02*
X75271Y-52778D01*
X74957Y-52850D02*
X75171Y-52921D01*
X75171Y-52735D01*
X74971Y-52650D02*
X74971Y-52450D01*
X75271Y-52578D01*
X74971Y-52278D02*
X74971Y-52250D01*
X74985Y-52221D01*
X75000Y-52207D01*
X75028Y-52192D01*
X75085Y-52178D01*
X75157Y-52178D01*
X75214Y-52192D01*
X75242Y-52207D01*
X75257Y-52221D01*
X75271Y-52250D01*
X75271Y-52278D01*
X75257Y-52307D01*
X75242Y-52321D01*
X75214Y-52335D01*
X75157Y-52350D01*
X75085Y-52350D01*
X75028Y-52335D01*
X75000Y-52321D01*
X74985Y-52307D01*
X74971Y-52278D01*
X79707Y-50821D02*
X79607Y-50678D01*
X79535Y-50821D02*
X79535Y-50521D01*
X79650Y-50521D01*
X79678Y-50535D01*
X79692Y-50550D01*
X79707Y-50578D01*
X79707Y-50621D01*
X79692Y-50650D01*
X79678Y-50664D01*
X79650Y-50678D01*
X79535Y-50678D01*
X79992Y-50821D02*
X79821Y-50821D01*
X79907Y-50821D02*
X79907Y-50521D01*
X79878Y-50564D01*
X79850Y-50592D01*
X79821Y-50607D01*
X80178Y-50521D02*
X80207Y-50521D01*
X80235Y-50535D01*
X80250Y-50550D01*
X80264Y-50578D01*
X80278Y-50635D01*
X80278Y-50707D01*
X80264Y-50764D01*
X80250Y-50792D01*
X80235Y-50807D01*
X80207Y-50821D01*
X80178Y-50821D01*
X80150Y-50807D01*
X80135Y-50792D01*
X80121Y-50764D01*
X80107Y-50707D01*
X80107Y-50635D01*
X80121Y-50578D01*
X80135Y-50550D01*
X80150Y-50535D01*
X80178Y-50521D01*
X79821Y-50228D02*
X80021Y-50228D01*
X79707Y-50300D02*
X79921Y-50371D01*
X79921Y-50185D01*
X79721Y-50100D02*
X79721Y-49900D01*
X80021Y-50028D01*
X79721Y-49728D02*
X79721Y-49700D01*
X79735Y-49671D01*
X79750Y-49657D01*
X79778Y-49642D01*
X79835Y-49628D01*
X79907Y-49628D01*
X79964Y-49642D01*
X79992Y-49657D01*
X80007Y-49671D01*
X80021Y-49700D01*
X80021Y-49728D01*
X80007Y-49757D01*
X79992Y-49771D01*
X79964Y-49785D01*
X79907Y-49800D01*
X79835Y-49800D01*
X79778Y-49785D01*
X79750Y-49771D01*
X79735Y-49757D01*
X79721Y-49728D01*
X75150Y-54821D02*
X75050Y-54678D01*
X74978Y-54821D02*
X74978Y-54521D01*
X75092Y-54521D01*
X75121Y-54535D01*
X75135Y-54550D01*
X75150Y-54578D01*
X75150Y-54621D01*
X75135Y-54650D01*
X75121Y-54664D01*
X75092Y-54678D01*
X74978Y-54678D01*
X75292Y-54821D02*
X75350Y-54821D01*
X75378Y-54807D01*
X75392Y-54792D01*
X75421Y-54750D01*
X75435Y-54692D01*
X75435Y-54578D01*
X75421Y-54550D01*
X75407Y-54535D01*
X75378Y-54521D01*
X75321Y-54521D01*
X75292Y-54535D01*
X75278Y-54550D01*
X75264Y-54578D01*
X75264Y-54650D01*
X75278Y-54678D01*
X75292Y-54692D01*
X75321Y-54707D01*
X75378Y-54707D01*
X75407Y-54692D01*
X75421Y-54678D01*
X75435Y-54650D01*
X75071Y-54278D02*
X75271Y-54278D01*
X74957Y-54350D02*
X75171Y-54421D01*
X75171Y-54235D01*
X74971Y-54150D02*
X74971Y-53950D01*
X75271Y-54078D01*
X74971Y-53778D02*
X74971Y-53750D01*
X74985Y-53721D01*
X75000Y-53707D01*
X75028Y-53692D01*
X75085Y-53678D01*
X75157Y-53678D01*
X75214Y-53692D01*
X75242Y-53707D01*
X75257Y-53721D01*
X75271Y-53750D01*
X75271Y-53778D01*
X75257Y-53807D01*
X75242Y-53821D01*
X75214Y-53835D01*
X75157Y-53850D01*
X75085Y-53850D01*
X75028Y-53835D01*
X75000Y-53821D01*
X74985Y-53807D01*
X74971Y-53778D01*
X79707Y-55121D02*
X79607Y-54978D01*
X79535Y-55121D02*
X79535Y-54821D01*
X79650Y-54821D01*
X79678Y-54835D01*
X79692Y-54850D01*
X79707Y-54878D01*
X79707Y-54921D01*
X79692Y-54950D01*
X79678Y-54964D01*
X79650Y-54978D01*
X79535Y-54978D01*
X79992Y-55121D02*
X79821Y-55121D01*
X79907Y-55121D02*
X79907Y-54821D01*
X79878Y-54864D01*
X79850Y-54892D01*
X79821Y-54907D01*
X80250Y-54821D02*
X80192Y-54821D01*
X80164Y-54835D01*
X80150Y-54850D01*
X80121Y-54892D01*
X80107Y-54950D01*
X80107Y-55064D01*
X80121Y-55092D01*
X80135Y-55107D01*
X80164Y-55121D01*
X80221Y-55121D01*
X80250Y-55107D01*
X80264Y-55092D01*
X80278Y-55064D01*
X80278Y-54992D01*
X80264Y-54964D01*
X80250Y-54950D01*
X80221Y-54935D01*
X80164Y-54935D01*
X80135Y-54950D01*
X80121Y-54964D01*
X80107Y-54992D01*
X79821Y-54528D02*
X80021Y-54528D01*
X79707Y-54600D02*
X79921Y-54671D01*
X79921Y-54485D01*
X79721Y-54400D02*
X79721Y-54200D01*
X80021Y-54328D01*
X79721Y-54028D02*
X79721Y-54000D01*
X79735Y-53971D01*
X79750Y-53957D01*
X79778Y-53942D01*
X79835Y-53928D01*
X79907Y-53928D01*
X79964Y-53942D01*
X79992Y-53957D01*
X80007Y-53971D01*
X80021Y-54000D01*
X80021Y-54028D01*
X80007Y-54057D01*
X79992Y-54071D01*
X79964Y-54085D01*
X79907Y-54100D01*
X79835Y-54100D01*
X79778Y-54085D01*
X79750Y-54071D01*
X79735Y-54057D01*
X79721Y-54028D01*
G54D22*
X63160Y-53232D02*
X63170Y-53242D01*
X63179Y-53270D01*
X63179Y-53289D01*
X63170Y-53317D01*
X63151Y-53336D01*
X63132Y-53345D01*
X63095Y-53354D01*
X63067Y-53354D01*
X63029Y-53345D01*
X63010Y-53336D01*
X62992Y-53317D01*
X62982Y-53289D01*
X62982Y-53270D01*
X62992Y-53242D01*
X63001Y-53232D01*
X63179Y-53045D02*
X63179Y-53157D01*
X63179Y-53101D02*
X62982Y-53101D01*
X63010Y-53120D01*
X63029Y-53139D01*
X63039Y-53157D01*
G54D23*
X62353Y-53110D02*
X62325Y-53110D01*
X62310Y-53117D01*
X62303Y-53125D01*
X62289Y-53146D01*
X62282Y-53175D01*
X62282Y-53232D01*
X62289Y-53246D01*
X62296Y-53253D01*
X62310Y-53260D01*
X62339Y-53260D01*
X62353Y-53253D01*
X62360Y-53246D01*
X62367Y-53232D01*
X62367Y-53196D01*
X62360Y-53182D01*
X62353Y-53175D01*
X62339Y-53167D01*
X62310Y-53167D01*
X62296Y-53175D01*
X62289Y-53182D01*
X62282Y-53196D01*
X62453Y-53175D02*
X62439Y-53167D01*
X62432Y-53160D01*
X62425Y-53146D01*
X62425Y-53139D01*
X62432Y-53125D01*
X62439Y-53117D01*
X62453Y-53110D01*
X62482Y-53110D01*
X62496Y-53117D01*
X62503Y-53125D01*
X62510Y-53139D01*
X62510Y-53146D01*
X62503Y-53160D01*
X62496Y-53167D01*
X62482Y-53175D01*
X62453Y-53175D01*
X62439Y-53182D01*
X62432Y-53189D01*
X62425Y-53203D01*
X62425Y-53232D01*
X62432Y-53246D01*
X62439Y-53253D01*
X62453Y-53260D01*
X62482Y-53260D01*
X62496Y-53253D01*
X62503Y-53246D01*
X62510Y-53232D01*
X62510Y-53203D01*
X62503Y-53189D01*
X62496Y-53182D01*
X62482Y-53175D01*
X62603Y-53110D02*
X62617Y-53110D01*
X62632Y-53117D01*
X62639Y-53125D01*
X62646Y-53139D01*
X62653Y-53167D01*
X62653Y-53203D01*
X62646Y-53232D01*
X62639Y-53246D01*
X62632Y-53253D01*
X62617Y-53260D01*
X62603Y-53260D01*
X62589Y-53253D01*
X62582Y-53246D01*
X62575Y-53232D01*
X62567Y-53203D01*
X62567Y-53167D01*
X62575Y-53139D01*
X62582Y-53125D01*
X62589Y-53117D01*
X62603Y-53110D01*
X62717Y-53160D02*
X62717Y-53260D01*
X62717Y-53175D02*
X62725Y-53167D01*
X62739Y-53160D01*
X62760Y-53160D01*
X62775Y-53167D01*
X62782Y-53182D01*
X62782Y-53260D01*
X62903Y-53182D02*
X62853Y-53182D01*
X62853Y-53260D02*
X62853Y-53110D01*
X62925Y-53110D01*
G54D22*
X64260Y-53232D02*
X64270Y-53242D01*
X64279Y-53270D01*
X64279Y-53289D01*
X64270Y-53317D01*
X64251Y-53336D01*
X64232Y-53345D01*
X64195Y-53354D01*
X64167Y-53354D01*
X64129Y-53345D01*
X64110Y-53336D01*
X64092Y-53317D01*
X64082Y-53289D01*
X64082Y-53270D01*
X64092Y-53242D01*
X64101Y-53232D01*
X64082Y-53167D02*
X64082Y-53045D01*
X64157Y-53110D01*
X64157Y-53082D01*
X64167Y-53063D01*
X64176Y-53054D01*
X64195Y-53045D01*
X64242Y-53045D01*
X64260Y-53054D01*
X64270Y-53063D01*
X64279Y-53082D01*
X64279Y-53139D01*
X64270Y-53157D01*
X64260Y-53167D01*
G54D23*
X63453Y-53110D02*
X63425Y-53110D01*
X63410Y-53117D01*
X63403Y-53125D01*
X63389Y-53146D01*
X63382Y-53175D01*
X63382Y-53232D01*
X63389Y-53246D01*
X63396Y-53253D01*
X63410Y-53260D01*
X63439Y-53260D01*
X63453Y-53253D01*
X63460Y-53246D01*
X63467Y-53232D01*
X63467Y-53196D01*
X63460Y-53182D01*
X63453Y-53175D01*
X63439Y-53167D01*
X63410Y-53167D01*
X63396Y-53175D01*
X63389Y-53182D01*
X63382Y-53196D01*
X63553Y-53175D02*
X63539Y-53167D01*
X63532Y-53160D01*
X63525Y-53146D01*
X63525Y-53139D01*
X63532Y-53125D01*
X63539Y-53117D01*
X63553Y-53110D01*
X63582Y-53110D01*
X63596Y-53117D01*
X63603Y-53125D01*
X63610Y-53139D01*
X63610Y-53146D01*
X63603Y-53160D01*
X63596Y-53167D01*
X63582Y-53175D01*
X63553Y-53175D01*
X63539Y-53182D01*
X63532Y-53189D01*
X63525Y-53203D01*
X63525Y-53232D01*
X63532Y-53246D01*
X63539Y-53253D01*
X63553Y-53260D01*
X63582Y-53260D01*
X63596Y-53253D01*
X63603Y-53246D01*
X63610Y-53232D01*
X63610Y-53203D01*
X63603Y-53189D01*
X63596Y-53182D01*
X63582Y-53175D01*
X63703Y-53110D02*
X63717Y-53110D01*
X63732Y-53117D01*
X63739Y-53125D01*
X63746Y-53139D01*
X63753Y-53167D01*
X63753Y-53203D01*
X63746Y-53232D01*
X63739Y-53246D01*
X63732Y-53253D01*
X63717Y-53260D01*
X63703Y-53260D01*
X63689Y-53253D01*
X63682Y-53246D01*
X63675Y-53232D01*
X63667Y-53203D01*
X63667Y-53167D01*
X63675Y-53139D01*
X63682Y-53125D01*
X63689Y-53117D01*
X63703Y-53110D01*
X63817Y-53160D02*
X63817Y-53260D01*
X63817Y-53175D02*
X63825Y-53167D01*
X63839Y-53160D01*
X63860Y-53160D01*
X63875Y-53167D01*
X63882Y-53182D01*
X63882Y-53260D01*
X64003Y-53182D02*
X63953Y-53182D01*
X63953Y-53260D02*
X63953Y-53110D01*
X64025Y-53110D01*
G54D22*
X65460Y-53232D02*
X65470Y-53242D01*
X65479Y-53270D01*
X65479Y-53289D01*
X65470Y-53317D01*
X65451Y-53336D01*
X65432Y-53345D01*
X65395Y-53354D01*
X65367Y-53354D01*
X65329Y-53345D01*
X65310Y-53336D01*
X65292Y-53317D01*
X65282Y-53289D01*
X65282Y-53270D01*
X65292Y-53242D01*
X65301Y-53232D01*
X65282Y-53054D02*
X65282Y-53148D01*
X65376Y-53157D01*
X65367Y-53148D01*
X65357Y-53129D01*
X65357Y-53082D01*
X65367Y-53063D01*
X65376Y-53054D01*
X65395Y-53045D01*
X65442Y-53045D01*
X65460Y-53054D01*
X65470Y-53063D01*
X65479Y-53082D01*
X65479Y-53129D01*
X65470Y-53148D01*
X65460Y-53157D01*
G54D23*
X64653Y-53110D02*
X64625Y-53110D01*
X64610Y-53117D01*
X64603Y-53125D01*
X64589Y-53146D01*
X64582Y-53175D01*
X64582Y-53232D01*
X64589Y-53246D01*
X64596Y-53253D01*
X64610Y-53260D01*
X64639Y-53260D01*
X64653Y-53253D01*
X64660Y-53246D01*
X64667Y-53232D01*
X64667Y-53196D01*
X64660Y-53182D01*
X64653Y-53175D01*
X64639Y-53167D01*
X64610Y-53167D01*
X64596Y-53175D01*
X64589Y-53182D01*
X64582Y-53196D01*
X64753Y-53175D02*
X64739Y-53167D01*
X64732Y-53160D01*
X64725Y-53146D01*
X64725Y-53139D01*
X64732Y-53125D01*
X64739Y-53117D01*
X64753Y-53110D01*
X64782Y-53110D01*
X64796Y-53117D01*
X64803Y-53125D01*
X64810Y-53139D01*
X64810Y-53146D01*
X64803Y-53160D01*
X64796Y-53167D01*
X64782Y-53175D01*
X64753Y-53175D01*
X64739Y-53182D01*
X64732Y-53189D01*
X64725Y-53203D01*
X64725Y-53232D01*
X64732Y-53246D01*
X64739Y-53253D01*
X64753Y-53260D01*
X64782Y-53260D01*
X64796Y-53253D01*
X64803Y-53246D01*
X64810Y-53232D01*
X64810Y-53203D01*
X64803Y-53189D01*
X64796Y-53182D01*
X64782Y-53175D01*
X64903Y-53110D02*
X64917Y-53110D01*
X64932Y-53117D01*
X64939Y-53125D01*
X64946Y-53139D01*
X64953Y-53167D01*
X64953Y-53203D01*
X64946Y-53232D01*
X64939Y-53246D01*
X64932Y-53253D01*
X64917Y-53260D01*
X64903Y-53260D01*
X64889Y-53253D01*
X64882Y-53246D01*
X64875Y-53232D01*
X64867Y-53203D01*
X64867Y-53167D01*
X64875Y-53139D01*
X64882Y-53125D01*
X64889Y-53117D01*
X64903Y-53110D01*
X65017Y-53160D02*
X65017Y-53260D01*
X65017Y-53175D02*
X65025Y-53167D01*
X65039Y-53160D01*
X65060Y-53160D01*
X65075Y-53167D01*
X65082Y-53182D01*
X65082Y-53260D01*
X65203Y-53182D02*
X65153Y-53182D01*
X65153Y-53260D02*
X65153Y-53110D01*
X65225Y-53110D01*
G54D22*
X63160Y-51532D02*
X63170Y-51542D01*
X63179Y-51570D01*
X63179Y-51589D01*
X63170Y-51617D01*
X63151Y-51636D01*
X63132Y-51645D01*
X63095Y-51654D01*
X63067Y-51654D01*
X63029Y-51645D01*
X63010Y-51636D01*
X62992Y-51617D01*
X62982Y-51589D01*
X62982Y-51570D01*
X62992Y-51542D01*
X63001Y-51532D01*
X63001Y-51457D02*
X62992Y-51448D01*
X62982Y-51429D01*
X62982Y-51382D01*
X62992Y-51363D01*
X63001Y-51354D01*
X63020Y-51345D01*
X63039Y-51345D01*
X63067Y-51354D01*
X63179Y-51467D01*
X63179Y-51345D01*
G54D23*
X62353Y-51410D02*
X62325Y-51410D01*
X62310Y-51417D01*
X62303Y-51425D01*
X62289Y-51446D01*
X62282Y-51475D01*
X62282Y-51532D01*
X62289Y-51546D01*
X62296Y-51553D01*
X62310Y-51560D01*
X62339Y-51560D01*
X62353Y-51553D01*
X62360Y-51546D01*
X62367Y-51532D01*
X62367Y-51496D01*
X62360Y-51482D01*
X62353Y-51475D01*
X62339Y-51467D01*
X62310Y-51467D01*
X62296Y-51475D01*
X62289Y-51482D01*
X62282Y-51496D01*
X62453Y-51475D02*
X62439Y-51467D01*
X62432Y-51460D01*
X62425Y-51446D01*
X62425Y-51439D01*
X62432Y-51425D01*
X62439Y-51417D01*
X62453Y-51410D01*
X62482Y-51410D01*
X62496Y-51417D01*
X62503Y-51425D01*
X62510Y-51439D01*
X62510Y-51446D01*
X62503Y-51460D01*
X62496Y-51467D01*
X62482Y-51475D01*
X62453Y-51475D01*
X62439Y-51482D01*
X62432Y-51489D01*
X62425Y-51503D01*
X62425Y-51532D01*
X62432Y-51546D01*
X62439Y-51553D01*
X62453Y-51560D01*
X62482Y-51560D01*
X62496Y-51553D01*
X62503Y-51546D01*
X62510Y-51532D01*
X62510Y-51503D01*
X62503Y-51489D01*
X62496Y-51482D01*
X62482Y-51475D01*
X62603Y-51410D02*
X62617Y-51410D01*
X62632Y-51417D01*
X62639Y-51425D01*
X62646Y-51439D01*
X62653Y-51467D01*
X62653Y-51503D01*
X62646Y-51532D01*
X62639Y-51546D01*
X62632Y-51553D01*
X62617Y-51560D01*
X62603Y-51560D01*
X62589Y-51553D01*
X62582Y-51546D01*
X62575Y-51532D01*
X62567Y-51503D01*
X62567Y-51467D01*
X62575Y-51439D01*
X62582Y-51425D01*
X62589Y-51417D01*
X62603Y-51410D01*
X62717Y-51460D02*
X62717Y-51560D01*
X62717Y-51475D02*
X62725Y-51467D01*
X62739Y-51460D01*
X62760Y-51460D01*
X62775Y-51467D01*
X62782Y-51482D01*
X62782Y-51560D01*
X62903Y-51482D02*
X62853Y-51482D01*
X62853Y-51560D02*
X62853Y-51410D01*
X62925Y-51410D01*
G54D22*
X64260Y-51532D02*
X64270Y-51542D01*
X64279Y-51570D01*
X64279Y-51589D01*
X64270Y-51617D01*
X64251Y-51636D01*
X64232Y-51645D01*
X64195Y-51654D01*
X64167Y-51654D01*
X64129Y-51645D01*
X64110Y-51636D01*
X64092Y-51617D01*
X64082Y-51589D01*
X64082Y-51570D01*
X64092Y-51542D01*
X64101Y-51532D01*
X64148Y-51363D02*
X64279Y-51363D01*
X64073Y-51410D02*
X64214Y-51457D01*
X64214Y-51335D01*
G54D23*
X63453Y-51410D02*
X63425Y-51410D01*
X63410Y-51417D01*
X63403Y-51425D01*
X63389Y-51446D01*
X63382Y-51475D01*
X63382Y-51532D01*
X63389Y-51546D01*
X63396Y-51553D01*
X63410Y-51560D01*
X63439Y-51560D01*
X63453Y-51553D01*
X63460Y-51546D01*
X63467Y-51532D01*
X63467Y-51496D01*
X63460Y-51482D01*
X63453Y-51475D01*
X63439Y-51467D01*
X63410Y-51467D01*
X63396Y-51475D01*
X63389Y-51482D01*
X63382Y-51496D01*
X63553Y-51475D02*
X63539Y-51467D01*
X63532Y-51460D01*
X63525Y-51446D01*
X63525Y-51439D01*
X63532Y-51425D01*
X63539Y-51417D01*
X63553Y-51410D01*
X63582Y-51410D01*
X63596Y-51417D01*
X63603Y-51425D01*
X63610Y-51439D01*
X63610Y-51446D01*
X63603Y-51460D01*
X63596Y-51467D01*
X63582Y-51475D01*
X63553Y-51475D01*
X63539Y-51482D01*
X63532Y-51489D01*
X63525Y-51503D01*
X63525Y-51532D01*
X63532Y-51546D01*
X63539Y-51553D01*
X63553Y-51560D01*
X63582Y-51560D01*
X63596Y-51553D01*
X63603Y-51546D01*
X63610Y-51532D01*
X63610Y-51503D01*
X63603Y-51489D01*
X63596Y-51482D01*
X63582Y-51475D01*
X63703Y-51410D02*
X63717Y-51410D01*
X63732Y-51417D01*
X63739Y-51425D01*
X63746Y-51439D01*
X63753Y-51467D01*
X63753Y-51503D01*
X63746Y-51532D01*
X63739Y-51546D01*
X63732Y-51553D01*
X63717Y-51560D01*
X63703Y-51560D01*
X63689Y-51553D01*
X63682Y-51546D01*
X63675Y-51532D01*
X63667Y-51503D01*
X63667Y-51467D01*
X63675Y-51439D01*
X63682Y-51425D01*
X63689Y-51417D01*
X63703Y-51410D01*
X63817Y-51460D02*
X63817Y-51560D01*
X63817Y-51475D02*
X63825Y-51467D01*
X63839Y-51460D01*
X63860Y-51460D01*
X63875Y-51467D01*
X63882Y-51482D01*
X63882Y-51560D01*
X64003Y-51482D02*
X63953Y-51482D01*
X63953Y-51560D02*
X63953Y-51410D01*
X64025Y-51410D01*
G54D22*
X65460Y-51532D02*
X65470Y-51542D01*
X65479Y-51570D01*
X65479Y-51589D01*
X65470Y-51617D01*
X65451Y-51636D01*
X65432Y-51645D01*
X65395Y-51654D01*
X65367Y-51654D01*
X65329Y-51645D01*
X65310Y-51636D01*
X65292Y-51617D01*
X65282Y-51589D01*
X65282Y-51570D01*
X65292Y-51542D01*
X65301Y-51532D01*
X65282Y-51363D02*
X65282Y-51401D01*
X65292Y-51420D01*
X65301Y-51429D01*
X65329Y-51448D01*
X65367Y-51457D01*
X65442Y-51457D01*
X65460Y-51448D01*
X65470Y-51439D01*
X65479Y-51420D01*
X65479Y-51382D01*
X65470Y-51363D01*
X65460Y-51354D01*
X65442Y-51345D01*
X65395Y-51345D01*
X65376Y-51354D01*
X65367Y-51363D01*
X65357Y-51382D01*
X65357Y-51420D01*
X65367Y-51439D01*
X65376Y-51448D01*
X65395Y-51457D01*
G54D23*
X64653Y-51410D02*
X64625Y-51410D01*
X64610Y-51417D01*
X64603Y-51425D01*
X64589Y-51446D01*
X64582Y-51475D01*
X64582Y-51532D01*
X64589Y-51546D01*
X64596Y-51553D01*
X64610Y-51560D01*
X64639Y-51560D01*
X64653Y-51553D01*
X64660Y-51546D01*
X64667Y-51532D01*
X64667Y-51496D01*
X64660Y-51482D01*
X64653Y-51475D01*
X64639Y-51467D01*
X64610Y-51467D01*
X64596Y-51475D01*
X64589Y-51482D01*
X64582Y-51496D01*
X64753Y-51475D02*
X64739Y-51467D01*
X64732Y-51460D01*
X64725Y-51446D01*
X64725Y-51439D01*
X64732Y-51425D01*
X64739Y-51417D01*
X64753Y-51410D01*
X64782Y-51410D01*
X64796Y-51417D01*
X64803Y-51425D01*
X64810Y-51439D01*
X64810Y-51446D01*
X64803Y-51460D01*
X64796Y-51467D01*
X64782Y-51475D01*
X64753Y-51475D01*
X64739Y-51482D01*
X64732Y-51489D01*
X64725Y-51503D01*
X64725Y-51532D01*
X64732Y-51546D01*
X64739Y-51553D01*
X64753Y-51560D01*
X64782Y-51560D01*
X64796Y-51553D01*
X64803Y-51546D01*
X64810Y-51532D01*
X64810Y-51503D01*
X64803Y-51489D01*
X64796Y-51482D01*
X64782Y-51475D01*
X64903Y-51410D02*
X64917Y-51410D01*
X64932Y-51417D01*
X64939Y-51425D01*
X64946Y-51439D01*
X64953Y-51467D01*
X64953Y-51503D01*
X64946Y-51532D01*
X64939Y-51546D01*
X64932Y-51553D01*
X64917Y-51560D01*
X64903Y-51560D01*
X64889Y-51553D01*
X64882Y-51546D01*
X64875Y-51532D01*
X64867Y-51503D01*
X64867Y-51467D01*
X64875Y-51439D01*
X64882Y-51425D01*
X64889Y-51417D01*
X64903Y-51410D01*
X65017Y-51460D02*
X65017Y-51560D01*
X65017Y-51475D02*
X65025Y-51467D01*
X65039Y-51460D01*
X65060Y-51460D01*
X65075Y-51467D01*
X65082Y-51482D01*
X65082Y-51560D01*
X65203Y-51482D02*
X65153Y-51482D01*
X65153Y-51560D02*
X65153Y-51410D01*
X65225Y-51410D01*
G54D22*
X71367Y-54460D02*
X71357Y-54470D01*
X71329Y-54479D01*
X71310Y-54479D01*
X71282Y-54470D01*
X71263Y-54451D01*
X71254Y-54432D01*
X71245Y-54395D01*
X71245Y-54367D01*
X71254Y-54329D01*
X71263Y-54310D01*
X71282Y-54292D01*
X71310Y-54282D01*
X71329Y-54282D01*
X71357Y-54292D01*
X71367Y-54301D01*
X71432Y-54282D02*
X71564Y-54282D01*
X71479Y-54479D01*
X70579Y-54311D02*
X70579Y-54423D01*
X70579Y-54367D02*
X70382Y-54367D01*
X70410Y-54386D01*
X70429Y-54404D01*
X70439Y-54423D01*
X70382Y-54189D02*
X70382Y-54170D01*
X70392Y-54151D01*
X70401Y-54142D01*
X70420Y-54132D01*
X70457Y-54123D01*
X70504Y-54123D01*
X70542Y-54132D01*
X70560Y-54142D01*
X70570Y-54151D01*
X70579Y-54170D01*
X70579Y-54189D01*
X70570Y-54207D01*
X70560Y-54217D01*
X70542Y-54226D01*
X70504Y-54236D01*
X70457Y-54236D01*
X70420Y-54226D01*
X70401Y-54217D01*
X70392Y-54207D01*
X70382Y-54189D01*
X70448Y-54039D02*
X70579Y-54039D01*
X70467Y-54039D02*
X70457Y-54029D01*
X70448Y-54010D01*
X70448Y-53982D01*
X70457Y-53963D01*
X70476Y-53954D01*
X70579Y-53954D01*
X70476Y-53795D02*
X70476Y-53860D01*
X70579Y-53860D02*
X70382Y-53860D01*
X70382Y-53766D01*
G54D24*
X71170Y-49380D02*
X71110Y-49285D01*
X71067Y-49380D02*
X71067Y-49180D01*
X71135Y-49180D01*
X71152Y-49190D01*
X71161Y-49200D01*
X71170Y-49219D01*
X71170Y-49247D01*
X71161Y-49266D01*
X71152Y-49276D01*
X71135Y-49285D01*
X71067Y-49285D01*
X71332Y-49180D02*
X71247Y-49180D01*
X71238Y-49276D01*
X71247Y-49266D01*
X71264Y-49257D01*
X71307Y-49257D01*
X71324Y-49266D01*
X71332Y-49276D01*
X71341Y-49295D01*
X71341Y-49342D01*
X71332Y-49361D01*
X71324Y-49371D01*
X71307Y-49380D01*
X71264Y-49380D01*
X71247Y-49371D01*
X71238Y-49361D01*
X71311Y-48930D02*
X71208Y-48930D01*
X71260Y-48930D02*
X71260Y-48730D01*
X71242Y-48759D01*
X71225Y-48778D01*
X71208Y-48788D01*
X71388Y-48930D02*
X71388Y-48730D01*
X71491Y-48930D02*
X71414Y-48816D01*
X71491Y-48730D02*
X71388Y-48845D01*
X69770Y-49380D02*
X69710Y-49285D01*
X69667Y-49380D02*
X69667Y-49180D01*
X69735Y-49180D01*
X69752Y-49190D01*
X69761Y-49200D01*
X69770Y-49219D01*
X69770Y-49247D01*
X69761Y-49266D01*
X69752Y-49276D01*
X69735Y-49285D01*
X69667Y-49285D01*
X69924Y-49180D02*
X69890Y-49180D01*
X69872Y-49190D01*
X69864Y-49200D01*
X69847Y-49228D01*
X69838Y-49266D01*
X69838Y-49342D01*
X69847Y-49361D01*
X69855Y-49371D01*
X69872Y-49380D01*
X69907Y-49380D01*
X69924Y-49371D01*
X69932Y-49361D01*
X69941Y-49342D01*
X69941Y-49295D01*
X69932Y-49276D01*
X69924Y-49266D01*
X69907Y-49257D01*
X69872Y-49257D01*
X69855Y-49266D01*
X69847Y-49276D01*
X69838Y-49295D01*
X69811Y-48930D02*
X69708Y-48930D01*
X69760Y-48930D02*
X69760Y-48730D01*
X69742Y-48759D01*
X69725Y-48778D01*
X69708Y-48788D01*
X69888Y-48930D02*
X69888Y-48730D01*
X69991Y-48930D02*
X69914Y-48816D01*
X69991Y-48730D02*
X69888Y-48845D01*
X70270Y-50480D02*
X70210Y-50385D01*
X70167Y-50480D02*
X70167Y-50280D01*
X70235Y-50280D01*
X70252Y-50290D01*
X70261Y-50300D01*
X70270Y-50319D01*
X70270Y-50347D01*
X70261Y-50366D01*
X70252Y-50376D01*
X70235Y-50385D01*
X70167Y-50385D01*
X70330Y-50280D02*
X70450Y-50280D01*
X70372Y-50480D01*
X69811Y-50030D02*
X69708Y-50030D01*
X69760Y-50030D02*
X69760Y-49830D01*
X69742Y-49859D01*
X69725Y-49878D01*
X69708Y-49888D01*
X69888Y-50030D02*
X69888Y-49830D01*
X69991Y-50030D02*
X69914Y-49916D01*
X69991Y-49830D02*
X69888Y-49945D01*
X71370Y-50480D02*
X71310Y-50385D01*
X71267Y-50480D02*
X71267Y-50280D01*
X71335Y-50280D01*
X71352Y-50290D01*
X71361Y-50300D01*
X71370Y-50319D01*
X71370Y-50347D01*
X71361Y-50366D01*
X71352Y-50376D01*
X71335Y-50385D01*
X71267Y-50385D01*
X71472Y-50366D02*
X71455Y-50357D01*
X71447Y-50347D01*
X71438Y-50328D01*
X71438Y-50319D01*
X71447Y-50300D01*
X71455Y-50290D01*
X71472Y-50280D01*
X71507Y-50280D01*
X71524Y-50290D01*
X71532Y-50300D01*
X71541Y-50319D01*
X71541Y-50328D01*
X71532Y-50347D01*
X71524Y-50357D01*
X71507Y-50366D01*
X71472Y-50366D01*
X71455Y-50376D01*
X71447Y-50385D01*
X71438Y-50404D01*
X71438Y-50442D01*
X71447Y-50461D01*
X71455Y-50471D01*
X71472Y-50480D01*
X71507Y-50480D01*
X71524Y-50471D01*
X71532Y-50461D01*
X71541Y-50442D01*
X71541Y-50404D01*
X71532Y-50385D01*
X71524Y-50376D01*
X71507Y-50366D01*
X71311Y-50030D02*
X71208Y-50030D01*
X71260Y-50030D02*
X71260Y-49830D01*
X71242Y-49859D01*
X71225Y-49878D01*
X71208Y-49888D01*
X71388Y-50030D02*
X71388Y-49830D01*
X71491Y-50030D02*
X71414Y-49916D01*
X71491Y-49830D02*
X71388Y-49945D01*
X71580Y-51330D02*
X71485Y-51390D01*
X71580Y-51432D02*
X71380Y-51432D01*
X71380Y-51364D01*
X71390Y-51347D01*
X71400Y-51338D01*
X71419Y-51330D01*
X71447Y-51330D01*
X71466Y-51338D01*
X71476Y-51347D01*
X71485Y-51364D01*
X71485Y-51432D01*
X71380Y-51270D02*
X71380Y-51158D01*
X71457Y-51218D01*
X71457Y-51192D01*
X71466Y-51175D01*
X71476Y-51167D01*
X71495Y-51158D01*
X71542Y-51158D01*
X71561Y-51167D01*
X71571Y-51175D01*
X71580Y-51192D01*
X71580Y-51244D01*
X71571Y-51261D01*
X71561Y-51270D01*
G54D23*
X70817Y-51210D02*
X70746Y-51210D01*
X70739Y-51282D01*
X70746Y-51275D01*
X70760Y-51267D01*
X70796Y-51267D01*
X70810Y-51275D01*
X70817Y-51282D01*
X70825Y-51296D01*
X70825Y-51332D01*
X70817Y-51346D01*
X70810Y-51353D01*
X70796Y-51360D01*
X70760Y-51360D01*
X70746Y-51353D01*
X70739Y-51346D01*
X70967Y-51360D02*
X70882Y-51360D01*
X70925Y-51360D02*
X70925Y-51210D01*
X70910Y-51232D01*
X70896Y-51246D01*
X70882Y-51253D01*
X71060Y-51210D02*
X71075Y-51210D01*
X71089Y-51217D01*
X71096Y-51225D01*
X71103Y-51239D01*
X71110Y-51267D01*
X71110Y-51303D01*
X71103Y-51332D01*
X71096Y-51346D01*
X71089Y-51353D01*
X71075Y-51360D01*
X71060Y-51360D01*
X71046Y-51353D01*
X71039Y-51346D01*
X71032Y-51332D01*
X71025Y-51303D01*
X71025Y-51267D01*
X71032Y-51239D01*
X71039Y-51225D01*
X71046Y-51217D01*
X71060Y-51210D01*
X71175Y-51360D02*
X71175Y-51210D01*
X71260Y-51360D02*
X71196Y-51275D01*
X71260Y-51210D02*
X71175Y-51296D01*
G54D24*
X70480Y-52830D02*
X70385Y-52890D01*
X70480Y-52932D02*
X70280Y-52932D01*
X70280Y-52864D01*
X70290Y-52847D01*
X70300Y-52838D01*
X70319Y-52830D01*
X70347Y-52830D01*
X70366Y-52838D01*
X70376Y-52847D01*
X70385Y-52864D01*
X70385Y-52932D01*
X70347Y-52675D02*
X70480Y-52675D01*
X70271Y-52718D02*
X70414Y-52761D01*
X70414Y-52650D01*
G54D25*
X69730Y-52716D02*
X69663Y-52716D01*
X69656Y-52783D01*
X69663Y-52776D01*
X69676Y-52770D01*
X69710Y-52770D01*
X69723Y-52776D01*
X69730Y-52783D01*
X69736Y-52796D01*
X69736Y-52830D01*
X69730Y-52843D01*
X69723Y-52850D01*
X69710Y-52856D01*
X69676Y-52856D01*
X69663Y-52850D01*
X69656Y-52843D01*
X69870Y-52856D02*
X69790Y-52856D01*
X69830Y-52856D02*
X69830Y-52716D01*
X69816Y-52736D01*
X69803Y-52750D01*
X69790Y-52756D01*
X69956Y-52716D02*
X69970Y-52716D01*
X69983Y-52723D01*
X69990Y-52730D01*
X69996Y-52743D01*
X70003Y-52770D01*
X70003Y-52803D01*
X69996Y-52830D01*
X69990Y-52843D01*
X69983Y-52850D01*
X69970Y-52856D01*
X69956Y-52856D01*
X69943Y-52850D01*
X69936Y-52843D01*
X69930Y-52830D01*
X69923Y-52803D01*
X69923Y-52770D01*
X69930Y-52743D01*
X69936Y-52730D01*
X69943Y-52723D01*
X69956Y-52716D01*
X70063Y-52856D02*
X70063Y-52716D01*
X70143Y-52856D02*
X70083Y-52776D01*
X70143Y-52716D02*
X70063Y-52796D01*
G54D24*
X70480Y-51330D02*
X70385Y-51390D01*
X70480Y-51432D02*
X70280Y-51432D01*
X70280Y-51364D01*
X70290Y-51347D01*
X70300Y-51338D01*
X70319Y-51330D01*
X70347Y-51330D01*
X70366Y-51338D01*
X70376Y-51347D01*
X70385Y-51364D01*
X70385Y-51432D01*
X70480Y-51158D02*
X70480Y-51261D01*
X70480Y-51210D02*
X70280Y-51210D01*
X70309Y-51227D01*
X70328Y-51244D01*
X70338Y-51261D01*
G54D23*
X69717Y-51210D02*
X69646Y-51210D01*
X69639Y-51282D01*
X69646Y-51275D01*
X69660Y-51267D01*
X69696Y-51267D01*
X69710Y-51275D01*
X69717Y-51282D01*
X69725Y-51296D01*
X69725Y-51332D01*
X69717Y-51346D01*
X69710Y-51353D01*
X69696Y-51360D01*
X69660Y-51360D01*
X69646Y-51353D01*
X69639Y-51346D01*
X69867Y-51360D02*
X69782Y-51360D01*
X69825Y-51360D02*
X69825Y-51210D01*
X69810Y-51232D01*
X69796Y-51246D01*
X69782Y-51253D01*
X69960Y-51210D02*
X69975Y-51210D01*
X69989Y-51217D01*
X69996Y-51225D01*
X70003Y-51239D01*
X70010Y-51267D01*
X70010Y-51303D01*
X70003Y-51332D01*
X69996Y-51346D01*
X69989Y-51353D01*
X69975Y-51360D01*
X69960Y-51360D01*
X69946Y-51353D01*
X69939Y-51346D01*
X69932Y-51332D01*
X69925Y-51303D01*
X69925Y-51267D01*
X69932Y-51239D01*
X69939Y-51225D01*
X69946Y-51217D01*
X69960Y-51210D01*
X70075Y-51360D02*
X70075Y-51210D01*
X70160Y-51360D02*
X70096Y-51275D01*
X70160Y-51210D02*
X70075Y-51296D01*
G54D24*
X71580Y-52830D02*
X71485Y-52890D01*
X71580Y-52932D02*
X71380Y-52932D01*
X71380Y-52864D01*
X71390Y-52847D01*
X71400Y-52838D01*
X71419Y-52830D01*
X71447Y-52830D01*
X71466Y-52838D01*
X71476Y-52847D01*
X71485Y-52864D01*
X71485Y-52932D01*
X71400Y-52761D02*
X71390Y-52752D01*
X71380Y-52735D01*
X71380Y-52692D01*
X71390Y-52675D01*
X71400Y-52667D01*
X71419Y-52658D01*
X71438Y-52658D01*
X71466Y-52667D01*
X71580Y-52770D01*
X71580Y-52658D01*
G54D26*
X70817Y-52710D02*
X70746Y-52710D01*
X70739Y-52782D01*
X70746Y-52775D01*
X70760Y-52767D01*
X70796Y-52767D01*
X70810Y-52775D01*
X70817Y-52782D01*
X70825Y-52796D01*
X70825Y-52832D01*
X70817Y-52846D01*
X70810Y-52853D01*
X70796Y-52860D01*
X70760Y-52860D01*
X70746Y-52853D01*
X70739Y-52846D01*
X70967Y-52860D02*
X70882Y-52860D01*
X70925Y-52860D02*
X70925Y-52710D01*
X70910Y-52732D01*
X70896Y-52746D01*
X70882Y-52753D01*
X71060Y-52710D02*
X71075Y-52710D01*
X71089Y-52717D01*
X71096Y-52725D01*
X71103Y-52739D01*
X71110Y-52767D01*
X71110Y-52803D01*
X71103Y-52832D01*
X71096Y-52846D01*
X71089Y-52853D01*
X71075Y-52860D01*
X71060Y-52860D01*
X71046Y-52853D01*
X71039Y-52846D01*
X71032Y-52832D01*
X71025Y-52803D01*
X71025Y-52767D01*
X71032Y-52739D01*
X71039Y-52725D01*
X71046Y-52717D01*
X71060Y-52710D01*
X71175Y-52860D02*
X71175Y-52710D01*
X71260Y-52860D02*
X71196Y-52775D01*
X71260Y-52710D02*
X71175Y-52796D01*
G54D11*
X63639Y-48401D02*
X63555Y-48282D01*
X63496Y-48401D02*
X63496Y-48151D01*
X63591Y-48151D01*
X63615Y-48163D01*
X63627Y-48175D01*
X63639Y-48198D01*
X63639Y-48234D01*
X63627Y-48258D01*
X63615Y-48270D01*
X63591Y-48282D01*
X63496Y-48282D01*
X63877Y-48401D02*
X63734Y-48401D01*
X63805Y-48401D02*
X63805Y-48151D01*
X63782Y-48186D01*
X63758Y-48210D01*
X63734Y-48222D01*
X63996Y-48401D02*
X64044Y-48401D01*
X64067Y-48389D01*
X64079Y-48377D01*
X64103Y-48341D01*
X64115Y-48294D01*
X64115Y-48198D01*
X64103Y-48175D01*
X64091Y-48163D01*
X64067Y-48151D01*
X64020Y-48151D01*
X63996Y-48163D01*
X63984Y-48175D01*
X63972Y-48198D01*
X63972Y-48258D01*
X63984Y-48282D01*
X63996Y-48294D01*
X64020Y-48305D01*
X64067Y-48305D01*
X64091Y-48294D01*
X64103Y-48282D01*
X64115Y-48258D01*
G54D12*
X65054Y-47822D02*
X64769Y-47822D01*
X64911Y-47822D02*
X64911Y-47272D01*
X64864Y-47351D01*
X64816Y-47403D01*
X64769Y-47429D01*
X65364Y-47272D02*
X65411Y-47272D01*
X65459Y-47298D01*
X65483Y-47325D01*
X65507Y-47377D01*
X65530Y-47482D01*
X65530Y-47613D01*
X65507Y-47717D01*
X65483Y-47770D01*
X65459Y-47796D01*
X65411Y-47822D01*
X65364Y-47822D01*
X65316Y-47796D01*
X65292Y-47770D01*
X65269Y-47717D01*
X65245Y-47613D01*
X65245Y-47482D01*
X65269Y-47377D01*
X65292Y-47325D01*
X65316Y-47298D01*
X65364Y-47272D01*
X65745Y-47822D02*
X65745Y-47272D01*
X66030Y-47822D02*
X65816Y-47508D01*
X66030Y-47272D02*
X65745Y-47586D01*
G54D11*
X63639Y-46901D02*
X63555Y-46782D01*
X63496Y-46901D02*
X63496Y-46651D01*
X63591Y-46651D01*
X63615Y-46663D01*
X63627Y-46675D01*
X63639Y-46698D01*
X63639Y-46734D01*
X63627Y-46758D01*
X63615Y-46770D01*
X63591Y-46782D01*
X63496Y-46782D01*
X63877Y-46901D02*
X63734Y-46901D01*
X63805Y-46901D02*
X63805Y-46651D01*
X63782Y-46686D01*
X63758Y-46710D01*
X63734Y-46722D01*
X64020Y-46758D02*
X63996Y-46746D01*
X63984Y-46734D01*
X63972Y-46710D01*
X63972Y-46698D01*
X63984Y-46675D01*
X63996Y-46663D01*
X64020Y-46651D01*
X64067Y-46651D01*
X64091Y-46663D01*
X64103Y-46675D01*
X64115Y-46698D01*
X64115Y-46710D01*
X64103Y-46734D01*
X64091Y-46746D01*
X64067Y-46758D01*
X64020Y-46758D01*
X63996Y-46770D01*
X63984Y-46782D01*
X63972Y-46805D01*
X63972Y-46853D01*
X63984Y-46877D01*
X63996Y-46889D01*
X64020Y-46901D01*
X64067Y-46901D01*
X64091Y-46889D01*
X64103Y-46877D01*
X64115Y-46853D01*
X64115Y-46805D01*
X64103Y-46782D01*
X64091Y-46770D01*
X64067Y-46758D01*
G54D12*
X65054Y-46322D02*
X64769Y-46322D01*
X64911Y-46322D02*
X64911Y-45772D01*
X64864Y-45851D01*
X64816Y-45903D01*
X64769Y-45929D01*
X65364Y-45772D02*
X65411Y-45772D01*
X65459Y-45798D01*
X65483Y-45825D01*
X65507Y-45877D01*
X65530Y-45982D01*
X65530Y-46113D01*
X65507Y-46217D01*
X65483Y-46270D01*
X65459Y-46296D01*
X65411Y-46322D01*
X65364Y-46322D01*
X65316Y-46296D01*
X65292Y-46270D01*
X65269Y-46217D01*
X65245Y-46113D01*
X65245Y-45982D01*
X65269Y-45877D01*
X65292Y-45825D01*
X65316Y-45798D01*
X65364Y-45772D01*
X65745Y-46322D02*
X65745Y-45772D01*
X66030Y-46322D02*
X65816Y-46008D01*
X66030Y-45772D02*
X65745Y-46086D01*
G54D11*
X63639Y-49901D02*
X63555Y-49782D01*
X63496Y-49901D02*
X63496Y-49651D01*
X63591Y-49651D01*
X63615Y-49663D01*
X63627Y-49675D01*
X63639Y-49698D01*
X63639Y-49734D01*
X63627Y-49758D01*
X63615Y-49770D01*
X63591Y-49782D01*
X63496Y-49782D01*
X63877Y-49901D02*
X63734Y-49901D01*
X63805Y-49901D02*
X63805Y-49651D01*
X63782Y-49686D01*
X63758Y-49710D01*
X63734Y-49722D01*
X63960Y-49651D02*
X64127Y-49651D01*
X64020Y-49901D01*
G54D12*
X65054Y-49322D02*
X64769Y-49322D01*
X64911Y-49322D02*
X64911Y-48772D01*
X64864Y-48851D01*
X64816Y-48903D01*
X64769Y-48929D01*
X65364Y-48772D02*
X65411Y-48772D01*
X65459Y-48798D01*
X65483Y-48825D01*
X65507Y-48877D01*
X65530Y-48982D01*
X65530Y-49113D01*
X65507Y-49217D01*
X65483Y-49270D01*
X65459Y-49296D01*
X65411Y-49322D01*
X65364Y-49322D01*
X65316Y-49296D01*
X65292Y-49270D01*
X65269Y-49217D01*
X65245Y-49113D01*
X65245Y-48982D01*
X65269Y-48877D01*
X65292Y-48825D01*
X65316Y-48798D01*
X65364Y-48772D01*
X65745Y-49322D02*
X65745Y-48772D01*
X66030Y-49322D02*
X65816Y-49008D01*
X66030Y-48772D02*
X65745Y-49086D01*
G54D27*
X76499Y-48365D02*
X76499Y-48684D01*
X76518Y-48721D01*
X76537Y-48740D01*
X76574Y-48759D01*
X76649Y-48759D01*
X76687Y-48740D01*
X76706Y-48721D01*
X76724Y-48684D01*
X76724Y-48365D01*
X77081Y-48496D02*
X77081Y-48759D01*
X76987Y-48346D02*
X76893Y-48628D01*
X77137Y-48628D01*
G54D11*
X76126Y-48102D02*
X76135Y-48073D01*
X76145Y-48064D01*
X76164Y-48054D01*
X76192Y-48054D01*
X76211Y-48064D01*
X76221Y-48073D01*
X76230Y-48092D01*
X76230Y-48169D01*
X76030Y-48169D01*
X76030Y-48102D01*
X76040Y-48083D01*
X76050Y-48073D01*
X76069Y-48064D01*
X76088Y-48064D01*
X76107Y-48073D01*
X76116Y-48083D01*
X76126Y-48102D01*
X76126Y-48169D01*
X76173Y-47978D02*
X76173Y-47883D01*
X76230Y-47997D02*
X76030Y-47930D01*
X76230Y-47864D01*
X76050Y-47807D02*
X76040Y-47797D01*
X76030Y-47778D01*
X76030Y-47730D01*
X76040Y-47711D01*
X76050Y-47702D01*
X76069Y-47692D01*
X76088Y-47692D01*
X76116Y-47702D01*
X76230Y-47816D01*
X76230Y-47692D01*
X76230Y-47597D02*
X76230Y-47559D01*
X76221Y-47540D01*
X76211Y-47530D01*
X76183Y-47511D01*
X76145Y-47502D01*
X76069Y-47502D01*
X76050Y-47511D01*
X76040Y-47521D01*
X76030Y-47540D01*
X76030Y-47578D01*
X76040Y-47597D01*
X76050Y-47607D01*
X76069Y-47616D01*
X76116Y-47616D01*
X76135Y-47607D01*
X76145Y-47597D01*
X76154Y-47578D01*
X76154Y-47540D01*
X76145Y-47521D01*
X76135Y-47511D01*
X76116Y-47502D01*
X76030Y-47378D02*
X76030Y-47359D01*
X76040Y-47340D01*
X76050Y-47330D01*
X76069Y-47321D01*
X76107Y-47311D01*
X76154Y-47311D01*
X76192Y-47321D01*
X76211Y-47330D01*
X76221Y-47340D01*
X76230Y-47359D01*
X76230Y-47378D01*
X76221Y-47397D01*
X76211Y-47407D01*
X76192Y-47416D01*
X76154Y-47426D01*
X76107Y-47426D01*
X76069Y-47416D01*
X76050Y-47407D01*
X76040Y-47397D01*
X76030Y-47378D01*
X76097Y-47140D02*
X76230Y-47140D01*
X76021Y-47188D02*
X76164Y-47235D01*
X76164Y-47111D01*
G54D27*
X79399Y-48365D02*
X79399Y-48684D01*
X79418Y-48721D01*
X79437Y-48740D01*
X79474Y-48759D01*
X79549Y-48759D01*
X79587Y-48740D01*
X79606Y-48721D01*
X79624Y-48684D01*
X79624Y-48365D01*
X79775Y-48365D02*
X80018Y-48365D01*
X79887Y-48515D01*
X79943Y-48515D01*
X79981Y-48534D01*
X80000Y-48553D01*
X80018Y-48590D01*
X80018Y-48684D01*
X80000Y-48721D01*
X79981Y-48740D01*
X79943Y-48759D01*
X79831Y-48759D01*
X79793Y-48740D01*
X79775Y-48721D01*
G54D11*
X79126Y-48102D02*
X79135Y-48073D01*
X79145Y-48064D01*
X79164Y-48054D01*
X79192Y-48054D01*
X79211Y-48064D01*
X79221Y-48073D01*
X79230Y-48092D01*
X79230Y-48169D01*
X79030Y-48169D01*
X79030Y-48102D01*
X79040Y-48083D01*
X79050Y-48073D01*
X79069Y-48064D01*
X79088Y-48064D01*
X79107Y-48073D01*
X79116Y-48083D01*
X79126Y-48102D01*
X79126Y-48169D01*
X79173Y-47978D02*
X79173Y-47883D01*
X79230Y-47997D02*
X79030Y-47930D01*
X79230Y-47864D01*
X79050Y-47807D02*
X79040Y-47797D01*
X79030Y-47778D01*
X79030Y-47730D01*
X79040Y-47711D01*
X79050Y-47702D01*
X79069Y-47692D01*
X79088Y-47692D01*
X79116Y-47702D01*
X79230Y-47816D01*
X79230Y-47692D01*
X79230Y-47597D02*
X79230Y-47559D01*
X79221Y-47540D01*
X79211Y-47530D01*
X79183Y-47511D01*
X79145Y-47502D01*
X79069Y-47502D01*
X79050Y-47511D01*
X79040Y-47521D01*
X79030Y-47540D01*
X79030Y-47578D01*
X79040Y-47597D01*
X79050Y-47607D01*
X79069Y-47616D01*
X79116Y-47616D01*
X79135Y-47607D01*
X79145Y-47597D01*
X79154Y-47578D01*
X79154Y-47540D01*
X79145Y-47521D01*
X79135Y-47511D01*
X79116Y-47502D01*
X79030Y-47378D02*
X79030Y-47359D01*
X79040Y-47340D01*
X79050Y-47330D01*
X79069Y-47321D01*
X79107Y-47311D01*
X79154Y-47311D01*
X79192Y-47321D01*
X79211Y-47330D01*
X79221Y-47340D01*
X79230Y-47359D01*
X79230Y-47378D01*
X79221Y-47397D01*
X79211Y-47407D01*
X79192Y-47416D01*
X79154Y-47426D01*
X79107Y-47426D01*
X79069Y-47416D01*
X79050Y-47407D01*
X79040Y-47397D01*
X79030Y-47378D01*
X79097Y-47140D02*
X79230Y-47140D01*
X79021Y-47188D02*
X79164Y-47235D01*
X79164Y-47111D01*
X78178Y-49121D02*
X78178Y-48821D01*
X78250Y-48821D01*
X78292Y-48835D01*
X78321Y-48864D01*
X78335Y-48892D01*
X78350Y-48950D01*
X78350Y-48992D01*
X78335Y-49050D01*
X78321Y-49078D01*
X78292Y-49107D01*
X78250Y-49121D01*
X78178Y-49121D01*
X78492Y-49121D02*
X78550Y-49121D01*
X78578Y-49107D01*
X78592Y-49092D01*
X78621Y-49050D01*
X78635Y-48992D01*
X78635Y-48878D01*
X78621Y-48850D01*
X78607Y-48835D01*
X78578Y-48821D01*
X78521Y-48821D01*
X78492Y-48835D01*
X78478Y-48850D01*
X78464Y-48878D01*
X78464Y-48950D01*
X78478Y-48978D01*
X78492Y-48992D01*
X78521Y-49007D01*
X78578Y-49007D01*
X78607Y-48992D01*
X78621Y-48978D01*
X78635Y-48950D01*
X77480Y-49228D02*
X77480Y-49323D01*
X77280Y-49323D01*
X77376Y-49161D02*
X77376Y-49095D01*
X77480Y-49066D02*
X77480Y-49161D01*
X77280Y-49161D01*
X77280Y-49066D01*
X77480Y-48980D02*
X77280Y-48980D01*
X77280Y-48933D01*
X77290Y-48904D01*
X77309Y-48885D01*
X77328Y-48876D01*
X77366Y-48866D01*
X77395Y-48866D01*
X77433Y-48876D01*
X77452Y-48885D01*
X77471Y-48904D01*
X77480Y-48933D01*
X77480Y-48980D01*
X78178Y-54321D02*
X78178Y-54021D01*
X78250Y-54021D01*
X78292Y-54035D01*
X78321Y-54064D01*
X78335Y-54092D01*
X78350Y-54150D01*
X78350Y-54192D01*
X78335Y-54250D01*
X78321Y-54278D01*
X78292Y-54307D01*
X78250Y-54321D01*
X78178Y-54321D01*
X78621Y-54021D02*
X78478Y-54021D01*
X78464Y-54164D01*
X78478Y-54150D01*
X78507Y-54135D01*
X78578Y-54135D01*
X78607Y-54150D01*
X78621Y-54164D01*
X78635Y-54192D01*
X78635Y-54264D01*
X78621Y-54292D01*
X78607Y-54307D01*
X78578Y-54321D01*
X78507Y-54321D01*
X78478Y-54307D01*
X78464Y-54292D01*
X77480Y-54528D02*
X77480Y-54623D01*
X77280Y-54623D01*
X77376Y-54461D02*
X77376Y-54395D01*
X77480Y-54366D02*
X77480Y-54461D01*
X77280Y-54461D01*
X77280Y-54366D01*
X77480Y-54280D02*
X77280Y-54280D01*
X77280Y-54233D01*
X77290Y-54204D01*
X77309Y-54185D01*
X77328Y-54176D01*
X77366Y-54166D01*
X77395Y-54166D01*
X77433Y-54176D01*
X77452Y-54185D01*
X77471Y-54204D01*
X77480Y-54233D01*
X77480Y-54280D01*
X78178Y-52821D02*
X78178Y-52521D01*
X78250Y-52521D01*
X78292Y-52535D01*
X78321Y-52564D01*
X78335Y-52592D01*
X78350Y-52650D01*
X78350Y-52692D01*
X78335Y-52750D01*
X78321Y-52778D01*
X78292Y-52807D01*
X78250Y-52821D01*
X78178Y-52821D01*
X78607Y-52621D02*
X78607Y-52821D01*
X78535Y-52507D02*
X78464Y-52721D01*
X78650Y-52721D01*
X77480Y-53028D02*
X77480Y-53123D01*
X77280Y-53123D01*
X77376Y-52961D02*
X77376Y-52895D01*
X77480Y-52866D02*
X77480Y-52961D01*
X77280Y-52961D01*
X77280Y-52866D01*
X77480Y-52780D02*
X77280Y-52780D01*
X77280Y-52733D01*
X77290Y-52704D01*
X77309Y-52685D01*
X77328Y-52676D01*
X77366Y-52666D01*
X77395Y-52666D01*
X77433Y-52676D01*
X77452Y-52685D01*
X77471Y-52704D01*
X77480Y-52733D01*
X77480Y-52780D01*
X78178Y-50621D02*
X78178Y-50321D01*
X78250Y-50321D01*
X78292Y-50335D01*
X78321Y-50364D01*
X78335Y-50392D01*
X78350Y-50450D01*
X78350Y-50492D01*
X78335Y-50550D01*
X78321Y-50578D01*
X78292Y-50607D01*
X78250Y-50621D01*
X78178Y-50621D01*
X78521Y-50450D02*
X78492Y-50435D01*
X78478Y-50421D01*
X78464Y-50392D01*
X78464Y-50378D01*
X78478Y-50350D01*
X78492Y-50335D01*
X78521Y-50321D01*
X78578Y-50321D01*
X78607Y-50335D01*
X78621Y-50350D01*
X78635Y-50378D01*
X78635Y-50392D01*
X78621Y-50421D01*
X78607Y-50435D01*
X78578Y-50450D01*
X78521Y-50450D01*
X78492Y-50464D01*
X78478Y-50478D01*
X78464Y-50507D01*
X78464Y-50564D01*
X78478Y-50592D01*
X78492Y-50607D01*
X78521Y-50621D01*
X78578Y-50621D01*
X78607Y-50607D01*
X78621Y-50592D01*
X78635Y-50564D01*
X78635Y-50507D01*
X78621Y-50478D01*
X78607Y-50464D01*
X78578Y-50450D01*
X77480Y-50828D02*
X77480Y-50923D01*
X77280Y-50923D01*
X77376Y-50761D02*
X77376Y-50695D01*
X77480Y-50666D02*
X77480Y-50761D01*
X77280Y-50761D01*
X77280Y-50666D01*
X77480Y-50580D02*
X77280Y-50580D01*
X77280Y-50533D01*
X77290Y-50504D01*
X77309Y-50485D01*
X77328Y-50476D01*
X77366Y-50466D01*
X77395Y-50466D01*
X77433Y-50476D01*
X77452Y-50485D01*
X77471Y-50504D01*
X77480Y-50533D01*
X77480Y-50580D01*
X78178Y-51321D02*
X78178Y-51021D01*
X78250Y-51021D01*
X78292Y-51035D01*
X78321Y-51064D01*
X78335Y-51092D01*
X78350Y-51150D01*
X78350Y-51192D01*
X78335Y-51250D01*
X78321Y-51278D01*
X78292Y-51307D01*
X78250Y-51321D01*
X78178Y-51321D01*
X78450Y-51021D02*
X78635Y-51021D01*
X78535Y-51135D01*
X78578Y-51135D01*
X78607Y-51150D01*
X78621Y-51164D01*
X78635Y-51192D01*
X78635Y-51264D01*
X78621Y-51292D01*
X78607Y-51307D01*
X78578Y-51321D01*
X78492Y-51321D01*
X78464Y-51307D01*
X78450Y-51292D01*
X77480Y-51528D02*
X77480Y-51623D01*
X77280Y-51623D01*
X77376Y-51461D02*
X77376Y-51395D01*
X77480Y-51366D02*
X77480Y-51461D01*
X77280Y-51461D01*
X77280Y-51366D01*
X77480Y-51280D02*
X77280Y-51280D01*
X77280Y-51233D01*
X77290Y-51204D01*
X77309Y-51185D01*
X77328Y-51176D01*
X77366Y-51166D01*
X77395Y-51166D01*
X77433Y-51176D01*
X77452Y-51185D01*
X77471Y-51204D01*
X77480Y-51233D01*
X77480Y-51280D01*
X78178Y-52121D02*
X78178Y-51821D01*
X78250Y-51821D01*
X78292Y-51835D01*
X78321Y-51864D01*
X78335Y-51892D01*
X78350Y-51950D01*
X78350Y-51992D01*
X78335Y-52050D01*
X78321Y-52078D01*
X78292Y-52107D01*
X78250Y-52121D01*
X78178Y-52121D01*
X78450Y-51821D02*
X78650Y-51821D01*
X78521Y-52121D01*
X77480Y-52228D02*
X77480Y-52323D01*
X77280Y-52323D01*
X77376Y-52161D02*
X77376Y-52095D01*
X77480Y-52066D02*
X77480Y-52161D01*
X77280Y-52161D01*
X77280Y-52066D01*
X77480Y-51980D02*
X77280Y-51980D01*
X77280Y-51933D01*
X77290Y-51904D01*
X77309Y-51885D01*
X77328Y-51876D01*
X77366Y-51866D01*
X77395Y-51866D01*
X77433Y-51876D01*
X77452Y-51885D01*
X77471Y-51904D01*
X77480Y-51933D01*
X77480Y-51980D01*
X78178Y-53621D02*
X78178Y-53321D01*
X78250Y-53321D01*
X78292Y-53335D01*
X78321Y-53364D01*
X78335Y-53392D01*
X78350Y-53450D01*
X78350Y-53492D01*
X78335Y-53550D01*
X78321Y-53578D01*
X78292Y-53607D01*
X78250Y-53621D01*
X78178Y-53621D01*
X78607Y-53321D02*
X78550Y-53321D01*
X78521Y-53335D01*
X78507Y-53350D01*
X78478Y-53392D01*
X78464Y-53450D01*
X78464Y-53564D01*
X78478Y-53592D01*
X78492Y-53607D01*
X78521Y-53621D01*
X78578Y-53621D01*
X78607Y-53607D01*
X78621Y-53592D01*
X78635Y-53564D01*
X78635Y-53492D01*
X78621Y-53464D01*
X78607Y-53450D01*
X78578Y-53435D01*
X78521Y-53435D01*
X78492Y-53450D01*
X78478Y-53464D01*
X78464Y-53492D01*
X77480Y-53728D02*
X77480Y-53823D01*
X77280Y-53823D01*
X77376Y-53661D02*
X77376Y-53595D01*
X77480Y-53566D02*
X77480Y-53661D01*
X77280Y-53661D01*
X77280Y-53566D01*
X77480Y-53480D02*
X77280Y-53480D01*
X77280Y-53433D01*
X77290Y-53404D01*
X77309Y-53385D01*
X77328Y-53376D01*
X77366Y-53366D01*
X77395Y-53366D01*
X77433Y-53376D01*
X77452Y-53385D01*
X77471Y-53404D01*
X77480Y-53433D01*
X77480Y-53480D01*
X78178Y-49821D02*
X78178Y-49521D01*
X78250Y-49521D01*
X78292Y-49535D01*
X78321Y-49564D01*
X78335Y-49592D01*
X78350Y-49650D01*
X78350Y-49692D01*
X78335Y-49750D01*
X78321Y-49778D01*
X78292Y-49807D01*
X78250Y-49821D01*
X78178Y-49821D01*
X78464Y-49550D02*
X78478Y-49535D01*
X78507Y-49521D01*
X78578Y-49521D01*
X78607Y-49535D01*
X78621Y-49550D01*
X78635Y-49578D01*
X78635Y-49607D01*
X78621Y-49650D01*
X78450Y-49821D01*
X78635Y-49821D01*
X77480Y-50028D02*
X77480Y-50123D01*
X77280Y-50123D01*
X77376Y-49961D02*
X77376Y-49895D01*
X77480Y-49866D02*
X77480Y-49961D01*
X77280Y-49961D01*
X77280Y-49866D01*
X77480Y-49780D02*
X77280Y-49780D01*
X77280Y-49733D01*
X77290Y-49704D01*
X77309Y-49685D01*
X77328Y-49676D01*
X77366Y-49666D01*
X77395Y-49666D01*
X77433Y-49676D01*
X77452Y-49685D01*
X77471Y-49704D01*
X77480Y-49733D01*
X77480Y-49780D01*
X69815Y-47001D02*
X69815Y-46751D01*
X69875Y-46751D01*
X69910Y-46763D01*
X69934Y-46786D01*
X69946Y-46810D01*
X69958Y-46858D01*
X69958Y-46894D01*
X69946Y-46941D01*
X69934Y-46965D01*
X69910Y-46989D01*
X69875Y-47001D01*
X69815Y-47001D01*
X70196Y-47001D02*
X70053Y-47001D01*
X70125Y-47001D02*
X70125Y-46751D01*
X70101Y-46786D01*
X70077Y-46810D01*
X70053Y-46822D01*
G54D28*
X70692Y-46392D02*
X70464Y-46392D01*
X70578Y-46392D02*
X70578Y-45792D01*
X70540Y-45878D01*
X70502Y-45935D01*
X70464Y-45964D01*
X70864Y-46392D02*
X70864Y-45792D01*
X71092Y-46392D01*
X71092Y-45792D01*
X71454Y-45992D02*
X71454Y-46392D01*
X71359Y-45764D02*
X71264Y-46192D01*
X71511Y-46192D01*
X71740Y-45792D02*
X71778Y-45792D01*
X71816Y-45821D01*
X71835Y-45850D01*
X71854Y-45907D01*
X71873Y-46021D01*
X71873Y-46164D01*
X71854Y-46278D01*
X71835Y-46335D01*
X71816Y-46364D01*
X71778Y-46392D01*
X71740Y-46392D01*
X71702Y-46364D01*
X71683Y-46335D01*
X71664Y-46278D01*
X71645Y-46164D01*
X71645Y-46021D01*
X71664Y-45907D01*
X71683Y-45850D01*
X71702Y-45821D01*
X71740Y-45792D01*
X72121Y-45792D02*
X72159Y-45792D01*
X72197Y-45821D01*
X72216Y-45850D01*
X72235Y-45907D01*
X72254Y-46021D01*
X72254Y-46164D01*
X72235Y-46278D01*
X72216Y-46335D01*
X72197Y-46364D01*
X72159Y-46392D01*
X72121Y-46392D01*
X72083Y-46364D01*
X72064Y-46335D01*
X72045Y-46278D01*
X72026Y-46164D01*
X72026Y-46021D01*
X72045Y-45907D01*
X72064Y-45850D01*
X72083Y-45821D01*
X72121Y-45792D01*
X72635Y-46392D02*
X72407Y-46392D01*
X72521Y-46392D02*
X72521Y-45792D01*
X72483Y-45878D01*
X72445Y-45935D01*
X72407Y-45964D01*
M02*
