G04 (created by PCBNEW (2013-07-07 BZR 4022)-stable) date 24/01/2014 12:39:24 p.m.*
%MOIN*%
G04 Gerber Fmt 3.4, Leading zero omitted, Abs format*
%FSLAX34Y34*%
G01*
G70*
G90*
G04 APERTURE LIST*
%ADD10C,0.00590551*%
%ADD11C,0.011811*%
G04 APERTURE END LIST*
G54D10*
G54D11*
X74589Y-58114D02*
X74560Y-58029D01*
X74560Y-57889D01*
X74589Y-57832D01*
X74617Y-57804D01*
X74673Y-57776D01*
X74729Y-57776D01*
X74785Y-57804D01*
X74814Y-57832D01*
X74842Y-57889D01*
X74870Y-58001D01*
X74898Y-58057D01*
X74926Y-58085D01*
X74982Y-58114D01*
X75039Y-58114D01*
X75095Y-58085D01*
X75123Y-58057D01*
X75151Y-58001D01*
X75151Y-57860D01*
X75123Y-57776D01*
X74617Y-57185D02*
X74589Y-57214D01*
X74560Y-57298D01*
X74560Y-57354D01*
X74589Y-57439D01*
X74645Y-57495D01*
X74701Y-57523D01*
X74814Y-57551D01*
X74898Y-57551D01*
X75010Y-57523D01*
X75067Y-57495D01*
X75123Y-57439D01*
X75151Y-57354D01*
X75151Y-57298D01*
X75123Y-57214D01*
X75095Y-57185D01*
G54D10*
X73965Y-57750D02*
G75*
G03X73965Y-57750I-4465J0D01*
G74*
G01*
X68704Y-59546D02*
X68646Y-59534D01*
X68621Y-59541D01*
X68586Y-59564D01*
X68557Y-59612D01*
X68555Y-59654D01*
X68562Y-59680D01*
X68585Y-59715D01*
X68715Y-59790D01*
X68912Y-59449D01*
X68798Y-59383D01*
X68756Y-59381D01*
X68731Y-59388D01*
X68696Y-59411D01*
X68677Y-59443D01*
X68674Y-59485D01*
X68681Y-59511D01*
X68704Y-59546D01*
X68818Y-59611D01*
X68619Y-59280D02*
X68425Y-59168D01*
X68325Y-59565D02*
X68522Y-59224D01*
X67935Y-59340D02*
X68130Y-59452D01*
X68033Y-59396D02*
X68230Y-59055D01*
X68234Y-59123D01*
X68248Y-59174D01*
X68271Y-59209D01*
X71153Y-56535D02*
X71160Y-56561D01*
X71199Y-56605D01*
X71232Y-56624D01*
X71290Y-56636D01*
X71341Y-56622D01*
X71376Y-56599D01*
X71430Y-56544D01*
X71458Y-56495D01*
X71479Y-56421D01*
X71482Y-56379D01*
X71468Y-56328D01*
X71428Y-56283D01*
X71396Y-56264D01*
X71338Y-56253D01*
X71312Y-56259D01*
X70793Y-56371D02*
X71001Y-56274D01*
X70988Y-56484D02*
X71185Y-56143D01*
X71055Y-56068D01*
X71013Y-56065D01*
X70988Y-56072D01*
X70953Y-56095D01*
X70924Y-56144D01*
X70922Y-56186D01*
X70929Y-56211D01*
X70952Y-56246D01*
X71082Y-56321D01*
X70841Y-55988D02*
X70835Y-55962D01*
X70812Y-55927D01*
X70730Y-55880D01*
X70688Y-55878D01*
X70663Y-55884D01*
X70628Y-55908D01*
X70609Y-55940D01*
X70597Y-55998D01*
X70680Y-56305D01*
X70469Y-56184D01*
X70454Y-55721D02*
X70422Y-55702D01*
X70380Y-55700D01*
X70354Y-55706D01*
X70319Y-55729D01*
X70266Y-55785D01*
X70219Y-55866D01*
X70198Y-55941D01*
X70195Y-55982D01*
X70202Y-56008D01*
X70225Y-56043D01*
X70257Y-56062D01*
X70299Y-56064D01*
X70325Y-56057D01*
X70360Y-56034D01*
X70414Y-55979D01*
X70461Y-55898D01*
X70482Y-55823D01*
X70484Y-55781D01*
X70477Y-55756D01*
X70454Y-55721D01*
X70227Y-55590D02*
X70016Y-55468D01*
X70055Y-55663D01*
X70006Y-55635D01*
X69964Y-55633D01*
X69938Y-55639D01*
X69903Y-55662D01*
X69857Y-55744D01*
X69854Y-55786D01*
X69861Y-55811D01*
X69884Y-55846D01*
X69981Y-55902D01*
X70023Y-55905D01*
X70049Y-55898D01*
X69867Y-55425D02*
X69860Y-55400D01*
X69837Y-55365D01*
X69756Y-55318D01*
X69714Y-55315D01*
X69689Y-55322D01*
X69654Y-55345D01*
X69635Y-55378D01*
X69623Y-55436D01*
X69705Y-55743D01*
X69494Y-55621D01*
M02*
