G04 (created by PCBNEW (2013-07-07 BZR 4022)-stable) date 24/01/2014 12:39:24 p.m.*
%MOIN*%
G04 Gerber Fmt 3.4, Leading zero omitted, Abs format*
%FSLAX34Y34*%
G01*
G70*
G90*
G04 APERTURE LIST*
%ADD10C,0.00590551*%
%ADD11C,0.005*%
%ADD12C,0.015*%
%ADD13C,0.0026*%
%ADD14C,0.004*%
%ADD15C,0.008*%
%ADD16C,0.0035*%
G04 APERTURE END LIST*
G54D10*
G54D11*
X70400Y-57000D02*
X70400Y-59000D01*
X70400Y-59000D02*
X68600Y-59000D01*
X68600Y-59000D02*
X68600Y-57000D01*
X68600Y-57000D02*
X70400Y-57000D01*
X69800Y-57000D02*
X69800Y-57200D01*
X69800Y-57200D02*
X69300Y-57200D01*
X69300Y-57200D02*
X69300Y-57000D01*
X66000Y-54550D02*
X66000Y-55450D01*
X66000Y-55450D02*
X66650Y-55450D01*
X67350Y-54550D02*
X68000Y-54550D01*
X68000Y-54550D02*
X68000Y-55450D01*
X68000Y-55450D02*
X67350Y-55450D01*
X66650Y-54550D02*
X66000Y-54550D01*
X73000Y-60950D02*
X73000Y-60050D01*
X73000Y-60050D02*
X72350Y-60050D01*
X71650Y-60950D02*
X71000Y-60950D01*
X71000Y-60950D02*
X71000Y-60050D01*
X71000Y-60050D02*
X71650Y-60050D01*
X72350Y-60950D02*
X73000Y-60950D01*
X66950Y-59000D02*
X66050Y-59000D01*
X66050Y-59000D02*
X66050Y-59650D01*
X66950Y-60350D02*
X66950Y-61000D01*
X66950Y-61000D02*
X66050Y-61000D01*
X66050Y-61000D02*
X66050Y-60350D01*
X66950Y-59650D02*
X66950Y-59000D01*
G54D12*
X74600Y-54400D02*
X74600Y-55400D01*
X75159Y-54400D02*
G75*
G03X75159Y-54400I-559J0D01*
G74*
G01*
G54D13*
X68711Y-60539D02*
X68789Y-60539D01*
X68789Y-60539D02*
X68789Y-60461D01*
X68711Y-60461D02*
X68789Y-60461D01*
X68711Y-60539D02*
X68711Y-60461D01*
X68927Y-60775D02*
X69064Y-60775D01*
X69064Y-60775D02*
X69064Y-60677D01*
X68927Y-60677D02*
X69064Y-60677D01*
X68927Y-60775D02*
X68927Y-60677D01*
X69064Y-60775D02*
X69104Y-60775D01*
X69104Y-60775D02*
X69104Y-60304D01*
X69064Y-60304D02*
X69104Y-60304D01*
X69064Y-60775D02*
X69064Y-60304D01*
X69064Y-60284D02*
X69104Y-60284D01*
X69104Y-60284D02*
X69104Y-60225D01*
X69064Y-60225D02*
X69104Y-60225D01*
X69064Y-60284D02*
X69064Y-60225D01*
X68396Y-60775D02*
X68436Y-60775D01*
X68436Y-60775D02*
X68436Y-60304D01*
X68396Y-60304D02*
X68436Y-60304D01*
X68396Y-60775D02*
X68396Y-60304D01*
X68396Y-60284D02*
X68436Y-60284D01*
X68436Y-60284D02*
X68436Y-60225D01*
X68396Y-60225D02*
X68436Y-60225D01*
X68396Y-60284D02*
X68396Y-60225D01*
X68927Y-60775D02*
X68986Y-60775D01*
X68986Y-60775D02*
X68986Y-60677D01*
X68927Y-60677D02*
X68986Y-60677D01*
X68927Y-60775D02*
X68927Y-60677D01*
G54D14*
X69360Y-60795D02*
X68140Y-60795D01*
X68140Y-60795D02*
X68140Y-60205D01*
X68140Y-60205D02*
X69360Y-60205D01*
X69360Y-60205D02*
X69360Y-60795D01*
X68534Y-60696D02*
G75*
G03X68966Y-60695I215J196D01*
G74*
G01*
X68534Y-60303D02*
G75*
G03X68533Y-60695I215J-196D01*
G74*
G01*
X68965Y-60303D02*
G75*
G03X68533Y-60304I-215J-196D01*
G74*
G01*
X68965Y-60696D02*
G75*
G03X68966Y-60304I-215J196D01*
G74*
G01*
G54D11*
X69245Y-56432D02*
X69245Y-56796D01*
X69264Y-56839D01*
X69283Y-56860D01*
X69321Y-56882D01*
X69397Y-56882D01*
X69435Y-56860D01*
X69454Y-56839D01*
X69473Y-56796D01*
X69473Y-56432D01*
X69873Y-56882D02*
X69645Y-56882D01*
X69759Y-56882D02*
X69759Y-56432D01*
X69721Y-56496D01*
X69683Y-56539D01*
X69645Y-56560D01*
X68761Y-58704D02*
X68761Y-58438D01*
X69161Y-58609D01*
X68761Y-58095D02*
X68761Y-58285D01*
X68952Y-58304D01*
X68933Y-58285D01*
X68914Y-58247D01*
X68914Y-58152D01*
X68933Y-58114D01*
X68952Y-58095D01*
X68990Y-58076D01*
X69085Y-58076D01*
X69123Y-58095D01*
X69142Y-58114D01*
X69161Y-58152D01*
X69161Y-58247D01*
X69142Y-58285D01*
X69123Y-58304D01*
X68761Y-57714D02*
X68761Y-57904D01*
X68952Y-57923D01*
X68933Y-57904D01*
X68914Y-57866D01*
X68914Y-57771D01*
X68933Y-57733D01*
X68952Y-57714D01*
X68990Y-57695D01*
X69085Y-57695D01*
X69123Y-57714D01*
X69142Y-57733D01*
X69161Y-57771D01*
X69161Y-57866D01*
X69142Y-57904D01*
X69123Y-57923D01*
X68761Y-57333D02*
X68761Y-57523D01*
X68952Y-57542D01*
X68933Y-57523D01*
X68914Y-57485D01*
X68914Y-57390D01*
X68933Y-57352D01*
X68952Y-57333D01*
X68990Y-57314D01*
X69085Y-57314D01*
X69123Y-57333D01*
X69142Y-57352D01*
X69161Y-57390D01*
X69161Y-57485D01*
X69142Y-57523D01*
X69123Y-57542D01*
X66950Y-54342D02*
X66935Y-54357D01*
X66892Y-54371D01*
X66864Y-54371D01*
X66821Y-54357D01*
X66792Y-54328D01*
X66778Y-54300D01*
X66764Y-54242D01*
X66764Y-54200D01*
X66778Y-54142D01*
X66792Y-54114D01*
X66821Y-54085D01*
X66864Y-54071D01*
X66892Y-54071D01*
X66935Y-54085D01*
X66950Y-54100D01*
X67235Y-54371D02*
X67064Y-54371D01*
X67150Y-54371D02*
X67150Y-54071D01*
X67121Y-54114D01*
X67092Y-54142D01*
X67064Y-54157D01*
X71950Y-59921D02*
X71850Y-59778D01*
X71778Y-59921D02*
X71778Y-59621D01*
X71892Y-59621D01*
X71921Y-59635D01*
X71935Y-59650D01*
X71950Y-59678D01*
X71950Y-59721D01*
X71935Y-59750D01*
X71921Y-59764D01*
X71892Y-59778D01*
X71778Y-59778D01*
X72235Y-59921D02*
X72064Y-59921D01*
X72150Y-59921D02*
X72150Y-59621D01*
X72121Y-59664D01*
X72092Y-59692D01*
X72064Y-59707D01*
X65871Y-60050D02*
X65728Y-60150D01*
X65871Y-60221D02*
X65571Y-60221D01*
X65571Y-60107D01*
X65585Y-60078D01*
X65600Y-60064D01*
X65628Y-60050D01*
X65671Y-60050D01*
X65700Y-60064D01*
X65714Y-60078D01*
X65728Y-60107D01*
X65728Y-60221D01*
X65600Y-59935D02*
X65585Y-59921D01*
X65571Y-59892D01*
X65571Y-59821D01*
X65585Y-59792D01*
X65600Y-59778D01*
X65628Y-59764D01*
X65657Y-59764D01*
X65700Y-59778D01*
X65871Y-59950D01*
X65871Y-59764D01*
G54D15*
X73822Y-54795D02*
X73822Y-55033D01*
X73272Y-55033D01*
X73822Y-54628D02*
X73272Y-54628D01*
X73272Y-54509D01*
X73298Y-54438D01*
X73351Y-54390D01*
X73403Y-54366D01*
X73508Y-54342D01*
X73586Y-54342D01*
X73691Y-54366D01*
X73744Y-54390D01*
X73796Y-54438D01*
X73822Y-54509D01*
X73822Y-54628D01*
X73822Y-53842D02*
X73560Y-54009D01*
X73822Y-54128D02*
X73272Y-54128D01*
X73272Y-53938D01*
X73298Y-53890D01*
X73325Y-53866D01*
X73377Y-53842D01*
X73455Y-53842D01*
X73508Y-53866D01*
X73534Y-53890D01*
X73560Y-53938D01*
X73560Y-54128D01*
G54D16*
X68628Y-59971D02*
X68628Y-59671D01*
X68700Y-59671D01*
X68742Y-59685D01*
X68771Y-59714D01*
X68785Y-59742D01*
X68800Y-59800D01*
X68800Y-59842D01*
X68785Y-59900D01*
X68771Y-59928D01*
X68742Y-59957D01*
X68700Y-59971D01*
X68628Y-59971D01*
X69085Y-59971D02*
X68914Y-59971D01*
X69000Y-59971D02*
X69000Y-59671D01*
X68971Y-59714D01*
X68942Y-59742D01*
X68914Y-59757D01*
M02*
