G04 (created by PCBNEW (2013-07-07 BZR 4022)-stable) date 24/01/2014 12:39:24 p.m.*
%MOIN*%
G04 Gerber Fmt 3.4, Leading zero omitted, Abs format*
%FSLAX34Y34*%
G01*
G70*
G90*
G04 APERTURE LIST*
%ADD10C,0.00590551*%
%ADD11C,0.02*%
%ADD12R,0.045X0.02*%
%ADD13R,0.06X0.08*%
%ADD14R,0.08X0.06*%
%ADD15C,0.055*%
%ADD16R,0.0629X0.0709*%
G04 APERTURE END LIST*
G54D10*
G54D11*
X64159Y-61233D02*
X64215Y-60947D01*
X64271Y-60852D01*
X64384Y-60757D01*
X64553Y-60757D01*
X64665Y-60852D01*
X64721Y-60947D01*
X64778Y-61138D01*
X64778Y-61899D01*
X63596Y-61899D01*
X63596Y-61233D01*
X63653Y-61042D01*
X63709Y-60947D01*
X63821Y-60852D01*
X63934Y-60852D01*
X64046Y-60947D01*
X64103Y-61042D01*
X64159Y-61233D01*
X64159Y-61899D01*
X64778Y-59614D02*
X64721Y-59804D01*
X64609Y-59899D01*
X63596Y-59899D01*
X64778Y-58852D02*
X63990Y-58852D01*
X63596Y-58852D02*
X63653Y-58947D01*
X63709Y-58852D01*
X63653Y-58757D01*
X63596Y-58852D01*
X63709Y-58852D01*
X63990Y-57899D02*
X64778Y-57899D01*
X64103Y-57899D02*
X64046Y-57804D01*
X63990Y-57614D01*
X63990Y-57328D01*
X64046Y-57138D01*
X64159Y-57042D01*
X64778Y-57042D01*
X64778Y-56090D02*
X63596Y-56090D01*
X64328Y-55900D02*
X64778Y-55328D01*
X63990Y-55328D02*
X64440Y-56090D01*
X63990Y-54661D02*
X64778Y-54185D01*
X63990Y-53709D02*
X64778Y-54185D01*
X65059Y-54376D01*
X65115Y-54471D01*
X65171Y-54661D01*
G54D12*
X70750Y-57250D03*
X70750Y-57750D03*
X70750Y-58250D03*
X70750Y-58750D03*
X68250Y-58750D03*
X68250Y-58250D03*
X68250Y-57750D03*
X68250Y-57250D03*
G54D13*
X66350Y-55000D03*
X67650Y-55000D03*
X72650Y-60500D03*
X71350Y-60500D03*
G54D14*
X66500Y-59350D03*
X66500Y-60650D03*
G54D15*
X74600Y-54400D03*
X74600Y-55400D03*
G54D16*
X68191Y-60500D03*
X69309Y-60500D03*
M02*
