G04 (created by PCBNEW (2013-07-07 BZR 4022)-stable) date 24/01/2014 12:39:24 p.m.*
%MOIN*%
G04 Gerber Fmt 3.4, Leading zero omitted, Abs format*
%FSLAX34Y34*%
G01*
G70*
G90*
G04 APERTURE LIST*
%ADD10C,0.00590551*%
%ADD11R,0.045X0.02*%
%ADD12R,0.06X0.08*%
%ADD13R,0.08X0.06*%
%ADD14C,0.055*%
%ADD15R,0.0629X0.0709*%
%ADD16C,0.035*%
%ADD17C,0.01*%
G04 APERTURE END LIST*
G54D10*
G54D11*
X70750Y-57250D03*
X70750Y-57750D03*
X70750Y-58250D03*
X70750Y-58750D03*
X68250Y-58750D03*
X68250Y-58250D03*
X68250Y-57750D03*
X68250Y-57250D03*
G54D12*
X66350Y-55000D03*
X67650Y-55000D03*
X72650Y-60500D03*
X71350Y-60500D03*
G54D13*
X66500Y-59350D03*
X66500Y-60650D03*
G54D14*
X74600Y-54400D03*
X74600Y-55400D03*
G54D15*
X68191Y-60500D03*
X69309Y-60500D03*
G54D16*
X69000Y-55000D03*
X69750Y-61500D03*
X64450Y-56600D03*
G54D17*
X67650Y-55000D02*
X69000Y-55000D01*
X69309Y-60500D02*
X69309Y-61059D01*
X69309Y-61059D02*
X69750Y-61500D01*
X67650Y-55000D02*
X67650Y-56900D01*
X68000Y-57250D02*
X68250Y-57250D01*
X67650Y-56900D02*
X68000Y-57250D01*
X68250Y-58250D02*
X67600Y-58250D01*
X67600Y-58250D02*
X66500Y-59350D01*
X66500Y-60650D02*
X68041Y-60650D01*
X68041Y-60650D02*
X68191Y-60500D01*
X71350Y-60500D02*
X71000Y-60500D01*
X70000Y-59500D02*
X70000Y-58250D01*
X71000Y-60500D02*
X70000Y-59500D01*
X68250Y-57750D02*
X66500Y-57750D01*
X66350Y-57600D02*
X66350Y-55000D01*
X66500Y-57750D02*
X66350Y-57600D01*
X68250Y-57750D02*
X69000Y-57750D01*
X69500Y-58250D02*
X69750Y-58250D01*
X69750Y-58250D02*
X70000Y-58250D01*
X70000Y-58250D02*
X70750Y-58250D01*
X69000Y-57750D02*
X69500Y-58250D01*
X72650Y-60500D02*
X72650Y-58900D01*
X72650Y-58900D02*
X71500Y-57750D01*
X74600Y-55400D02*
X73850Y-55400D01*
X73850Y-55400D02*
X71500Y-57750D01*
X70750Y-57750D02*
X71500Y-57750D01*
G54D10*
G36*
X75730Y-62230D02*
X75129Y-62230D01*
X75129Y-54475D01*
X75118Y-54267D01*
X75060Y-54127D01*
X74967Y-54102D01*
X74897Y-54173D01*
X74897Y-54032D01*
X74872Y-53939D01*
X74675Y-53870D01*
X74467Y-53881D01*
X74327Y-53939D01*
X74302Y-54032D01*
X74600Y-54329D01*
X74897Y-54032D01*
X74897Y-54173D01*
X74670Y-54400D01*
X74967Y-54697D01*
X75060Y-54672D01*
X75129Y-54475D01*
X75129Y-62230D01*
X75125Y-62230D01*
X75125Y-55296D01*
X75045Y-55103D01*
X74897Y-54955D01*
X74771Y-54902D01*
X74872Y-54860D01*
X74897Y-54767D01*
X74600Y-54470D01*
X74529Y-54541D01*
X74529Y-54400D01*
X74232Y-54102D01*
X74139Y-54127D01*
X74070Y-54324D01*
X74081Y-54532D01*
X74139Y-54672D01*
X74232Y-54697D01*
X74529Y-54400D01*
X74529Y-54541D01*
X74302Y-54767D01*
X74327Y-54860D01*
X74437Y-54899D01*
X74303Y-54954D01*
X74157Y-55100D01*
X73850Y-55100D01*
X73735Y-55122D01*
X73637Y-55187D01*
X71375Y-57450D01*
X71204Y-57450D01*
X71225Y-57399D01*
X71225Y-57100D01*
X71187Y-57008D01*
X71116Y-56938D01*
X71024Y-56900D01*
X70925Y-56899D01*
X70862Y-56900D01*
X70800Y-56962D01*
X70800Y-57200D01*
X71162Y-57200D01*
X71225Y-57137D01*
X71225Y-57100D01*
X71225Y-57399D01*
X71225Y-57362D01*
X71162Y-57300D01*
X70800Y-57300D01*
X70800Y-57307D01*
X70700Y-57307D01*
X70700Y-57300D01*
X70700Y-57200D01*
X70700Y-56962D01*
X70637Y-56900D01*
X70574Y-56899D01*
X70475Y-56900D01*
X70383Y-56938D01*
X70312Y-57008D01*
X70274Y-57100D01*
X70275Y-57137D01*
X70337Y-57200D01*
X70700Y-57200D01*
X70700Y-57300D01*
X70337Y-57300D01*
X70275Y-57362D01*
X70274Y-57399D01*
X70312Y-57491D01*
X70321Y-57499D01*
X70313Y-57508D01*
X70275Y-57600D01*
X70274Y-57699D01*
X70274Y-57899D01*
X70295Y-57950D01*
X70000Y-57950D01*
X69750Y-57950D01*
X69624Y-57950D01*
X69212Y-57537D01*
X69114Y-57472D01*
X69000Y-57450D01*
X68704Y-57450D01*
X68724Y-57399D01*
X68725Y-57300D01*
X68725Y-57100D01*
X68687Y-57008D01*
X68616Y-56938D01*
X68524Y-56900D01*
X68425Y-56899D01*
X68074Y-56899D01*
X67950Y-56775D01*
X67950Y-55650D01*
X67999Y-55650D01*
X68091Y-55612D01*
X68161Y-55541D01*
X68199Y-55449D01*
X68200Y-55350D01*
X68200Y-55300D01*
X68698Y-55300D01*
X68758Y-55360D01*
X68915Y-55424D01*
X69084Y-55425D01*
X69240Y-55360D01*
X69360Y-55241D01*
X69424Y-55084D01*
X69425Y-54915D01*
X69360Y-54759D01*
X69241Y-54639D01*
X69084Y-54575D01*
X68915Y-54574D01*
X68759Y-54639D01*
X68698Y-54700D01*
X68200Y-54700D01*
X68200Y-54550D01*
X68162Y-54458D01*
X68091Y-54388D01*
X67999Y-54350D01*
X67900Y-54349D01*
X67300Y-54349D01*
X67208Y-54387D01*
X67138Y-54458D01*
X67100Y-54550D01*
X67099Y-54649D01*
X67099Y-55449D01*
X67137Y-55541D01*
X67208Y-55611D01*
X67300Y-55649D01*
X67350Y-55649D01*
X67350Y-56900D01*
X67372Y-57014D01*
X67437Y-57112D01*
X67775Y-57450D01*
X66650Y-57450D01*
X66650Y-55650D01*
X66699Y-55650D01*
X66791Y-55612D01*
X66861Y-55541D01*
X66899Y-55449D01*
X66900Y-55350D01*
X66900Y-54550D01*
X66862Y-54458D01*
X66791Y-54388D01*
X66699Y-54350D01*
X66600Y-54349D01*
X66000Y-54349D01*
X65908Y-54387D01*
X65838Y-54458D01*
X65800Y-54550D01*
X65799Y-54649D01*
X65799Y-55449D01*
X65837Y-55541D01*
X65908Y-55611D01*
X66000Y-55649D01*
X66050Y-55649D01*
X66050Y-57600D01*
X66072Y-57714D01*
X66137Y-57812D01*
X66287Y-57962D01*
X66287Y-57962D01*
X66385Y-58027D01*
X66500Y-58050D01*
X67375Y-58050D01*
X66625Y-58799D01*
X66050Y-58799D01*
X65958Y-58837D01*
X65888Y-58908D01*
X65850Y-59000D01*
X65849Y-59099D01*
X65849Y-59699D01*
X65887Y-59791D01*
X65958Y-59861D01*
X66050Y-59899D01*
X66149Y-59900D01*
X66949Y-59900D01*
X67041Y-59862D01*
X67111Y-59791D01*
X67149Y-59699D01*
X67150Y-59600D01*
X67150Y-59124D01*
X67724Y-58550D01*
X67795Y-58550D01*
X67774Y-58600D01*
X67775Y-58637D01*
X67837Y-58700D01*
X68200Y-58700D01*
X68200Y-58692D01*
X68300Y-58692D01*
X68300Y-58700D01*
X68662Y-58700D01*
X68725Y-58637D01*
X68725Y-58600D01*
X68687Y-58508D01*
X68678Y-58500D01*
X68686Y-58491D01*
X68724Y-58399D01*
X68725Y-58300D01*
X68725Y-58100D01*
X68704Y-58050D01*
X68875Y-58050D01*
X69287Y-58462D01*
X69287Y-58462D01*
X69385Y-58527D01*
X69500Y-58550D01*
X69700Y-58550D01*
X69700Y-59500D01*
X69722Y-59614D01*
X69787Y-59712D01*
X70787Y-60712D01*
X70787Y-60712D01*
X70799Y-60720D01*
X70799Y-60949D01*
X70837Y-61041D01*
X70908Y-61111D01*
X71000Y-61149D01*
X71099Y-61150D01*
X71699Y-61150D01*
X71791Y-61112D01*
X71861Y-61041D01*
X71899Y-60949D01*
X71900Y-60850D01*
X71900Y-60050D01*
X71862Y-59958D01*
X71791Y-59888D01*
X71699Y-59850D01*
X71600Y-59849D01*
X71000Y-59849D01*
X70908Y-59887D01*
X70860Y-59936D01*
X70300Y-59375D01*
X70300Y-58960D01*
X70312Y-58991D01*
X70383Y-59061D01*
X70475Y-59099D01*
X70574Y-59100D01*
X71024Y-59100D01*
X71116Y-59062D01*
X71186Y-58991D01*
X71224Y-58899D01*
X71225Y-58800D01*
X71225Y-58600D01*
X71187Y-58508D01*
X71178Y-58500D01*
X71186Y-58491D01*
X71224Y-58399D01*
X71225Y-58300D01*
X71225Y-58100D01*
X71204Y-58050D01*
X71375Y-58050D01*
X72350Y-59024D01*
X72350Y-59849D01*
X72300Y-59849D01*
X72208Y-59887D01*
X72138Y-59958D01*
X72100Y-60050D01*
X72099Y-60149D01*
X72099Y-60949D01*
X72137Y-61041D01*
X72208Y-61111D01*
X72300Y-61149D01*
X72399Y-61150D01*
X72999Y-61150D01*
X73091Y-61112D01*
X73161Y-61041D01*
X73199Y-60949D01*
X73200Y-60850D01*
X73200Y-60050D01*
X73162Y-59958D01*
X73091Y-59888D01*
X72999Y-59850D01*
X72950Y-59850D01*
X72950Y-58900D01*
X72949Y-58899D01*
X72927Y-58785D01*
X72862Y-58687D01*
X72862Y-58687D01*
X71924Y-57749D01*
X73974Y-55700D01*
X74157Y-55700D01*
X74302Y-55844D01*
X74495Y-55924D01*
X74703Y-55925D01*
X74897Y-55845D01*
X75044Y-55697D01*
X75124Y-55504D01*
X75125Y-55296D01*
X75125Y-62230D01*
X70175Y-62230D01*
X70175Y-61415D01*
X70110Y-61259D01*
X69991Y-61139D01*
X69834Y-61075D01*
X69749Y-61074D01*
X69747Y-61073D01*
X69764Y-61066D01*
X69835Y-60996D01*
X69873Y-60904D01*
X69873Y-60804D01*
X69873Y-60095D01*
X69835Y-60004D01*
X69765Y-59933D01*
X69673Y-59895D01*
X69573Y-59895D01*
X68944Y-59895D01*
X68853Y-59933D01*
X68782Y-60003D01*
X68749Y-60082D01*
X68725Y-60022D01*
X68725Y-58899D01*
X68725Y-58862D01*
X68662Y-58800D01*
X68300Y-58800D01*
X68300Y-59037D01*
X68362Y-59100D01*
X68425Y-59100D01*
X68524Y-59099D01*
X68616Y-59061D01*
X68687Y-58991D01*
X68725Y-58899D01*
X68725Y-60022D01*
X68717Y-60004D01*
X68647Y-59933D01*
X68555Y-59895D01*
X68455Y-59895D01*
X68200Y-59895D01*
X68200Y-59037D01*
X68200Y-58800D01*
X67837Y-58800D01*
X67775Y-58862D01*
X67774Y-58899D01*
X67812Y-58991D01*
X67883Y-59061D01*
X67975Y-59099D01*
X68074Y-59100D01*
X68137Y-59100D01*
X68200Y-59037D01*
X68200Y-59895D01*
X67826Y-59895D01*
X67735Y-59933D01*
X67664Y-60003D01*
X67626Y-60095D01*
X67626Y-60195D01*
X67626Y-60350D01*
X67150Y-60350D01*
X67150Y-60300D01*
X67112Y-60208D01*
X67041Y-60138D01*
X66949Y-60100D01*
X66850Y-60099D01*
X66050Y-60099D01*
X65958Y-60137D01*
X65888Y-60208D01*
X65850Y-60300D01*
X65849Y-60399D01*
X65849Y-60999D01*
X65887Y-61091D01*
X65958Y-61161D01*
X66050Y-61199D01*
X66149Y-61200D01*
X66949Y-61200D01*
X67041Y-61162D01*
X67111Y-61091D01*
X67149Y-60999D01*
X67149Y-60950D01*
X67645Y-60950D01*
X67664Y-60995D01*
X67734Y-61066D01*
X67826Y-61104D01*
X67926Y-61104D01*
X68555Y-61104D01*
X68646Y-61066D01*
X68717Y-60996D01*
X68750Y-60917D01*
X68782Y-60995D01*
X68852Y-61066D01*
X68944Y-61104D01*
X69018Y-61104D01*
X69031Y-61173D01*
X69096Y-61271D01*
X69325Y-61499D01*
X69324Y-61584D01*
X69389Y-61740D01*
X69508Y-61860D01*
X69665Y-61924D01*
X69834Y-61925D01*
X69990Y-61860D01*
X70110Y-61741D01*
X70174Y-61584D01*
X70175Y-61415D01*
X70175Y-62230D01*
X63269Y-62230D01*
X63269Y-53269D01*
X75730Y-53269D01*
X75730Y-62230D01*
X75730Y-62230D01*
G37*
G54D17*
X75730Y-62230D02*
X75129Y-62230D01*
X75129Y-54475D01*
X75118Y-54267D01*
X75060Y-54127D01*
X74967Y-54102D01*
X74897Y-54173D01*
X74897Y-54032D01*
X74872Y-53939D01*
X74675Y-53870D01*
X74467Y-53881D01*
X74327Y-53939D01*
X74302Y-54032D01*
X74600Y-54329D01*
X74897Y-54032D01*
X74897Y-54173D01*
X74670Y-54400D01*
X74967Y-54697D01*
X75060Y-54672D01*
X75129Y-54475D01*
X75129Y-62230D01*
X75125Y-62230D01*
X75125Y-55296D01*
X75045Y-55103D01*
X74897Y-54955D01*
X74771Y-54902D01*
X74872Y-54860D01*
X74897Y-54767D01*
X74600Y-54470D01*
X74529Y-54541D01*
X74529Y-54400D01*
X74232Y-54102D01*
X74139Y-54127D01*
X74070Y-54324D01*
X74081Y-54532D01*
X74139Y-54672D01*
X74232Y-54697D01*
X74529Y-54400D01*
X74529Y-54541D01*
X74302Y-54767D01*
X74327Y-54860D01*
X74437Y-54899D01*
X74303Y-54954D01*
X74157Y-55100D01*
X73850Y-55100D01*
X73735Y-55122D01*
X73637Y-55187D01*
X71375Y-57450D01*
X71204Y-57450D01*
X71225Y-57399D01*
X71225Y-57100D01*
X71187Y-57008D01*
X71116Y-56938D01*
X71024Y-56900D01*
X70925Y-56899D01*
X70862Y-56900D01*
X70800Y-56962D01*
X70800Y-57200D01*
X71162Y-57200D01*
X71225Y-57137D01*
X71225Y-57100D01*
X71225Y-57399D01*
X71225Y-57362D01*
X71162Y-57300D01*
X70800Y-57300D01*
X70800Y-57307D01*
X70700Y-57307D01*
X70700Y-57300D01*
X70700Y-57200D01*
X70700Y-56962D01*
X70637Y-56900D01*
X70574Y-56899D01*
X70475Y-56900D01*
X70383Y-56938D01*
X70312Y-57008D01*
X70274Y-57100D01*
X70275Y-57137D01*
X70337Y-57200D01*
X70700Y-57200D01*
X70700Y-57300D01*
X70337Y-57300D01*
X70275Y-57362D01*
X70274Y-57399D01*
X70312Y-57491D01*
X70321Y-57499D01*
X70313Y-57508D01*
X70275Y-57600D01*
X70274Y-57699D01*
X70274Y-57899D01*
X70295Y-57950D01*
X70000Y-57950D01*
X69750Y-57950D01*
X69624Y-57950D01*
X69212Y-57537D01*
X69114Y-57472D01*
X69000Y-57450D01*
X68704Y-57450D01*
X68724Y-57399D01*
X68725Y-57300D01*
X68725Y-57100D01*
X68687Y-57008D01*
X68616Y-56938D01*
X68524Y-56900D01*
X68425Y-56899D01*
X68074Y-56899D01*
X67950Y-56775D01*
X67950Y-55650D01*
X67999Y-55650D01*
X68091Y-55612D01*
X68161Y-55541D01*
X68199Y-55449D01*
X68200Y-55350D01*
X68200Y-55300D01*
X68698Y-55300D01*
X68758Y-55360D01*
X68915Y-55424D01*
X69084Y-55425D01*
X69240Y-55360D01*
X69360Y-55241D01*
X69424Y-55084D01*
X69425Y-54915D01*
X69360Y-54759D01*
X69241Y-54639D01*
X69084Y-54575D01*
X68915Y-54574D01*
X68759Y-54639D01*
X68698Y-54700D01*
X68200Y-54700D01*
X68200Y-54550D01*
X68162Y-54458D01*
X68091Y-54388D01*
X67999Y-54350D01*
X67900Y-54349D01*
X67300Y-54349D01*
X67208Y-54387D01*
X67138Y-54458D01*
X67100Y-54550D01*
X67099Y-54649D01*
X67099Y-55449D01*
X67137Y-55541D01*
X67208Y-55611D01*
X67300Y-55649D01*
X67350Y-55649D01*
X67350Y-56900D01*
X67372Y-57014D01*
X67437Y-57112D01*
X67775Y-57450D01*
X66650Y-57450D01*
X66650Y-55650D01*
X66699Y-55650D01*
X66791Y-55612D01*
X66861Y-55541D01*
X66899Y-55449D01*
X66900Y-55350D01*
X66900Y-54550D01*
X66862Y-54458D01*
X66791Y-54388D01*
X66699Y-54350D01*
X66600Y-54349D01*
X66000Y-54349D01*
X65908Y-54387D01*
X65838Y-54458D01*
X65800Y-54550D01*
X65799Y-54649D01*
X65799Y-55449D01*
X65837Y-55541D01*
X65908Y-55611D01*
X66000Y-55649D01*
X66050Y-55649D01*
X66050Y-57600D01*
X66072Y-57714D01*
X66137Y-57812D01*
X66287Y-57962D01*
X66287Y-57962D01*
X66385Y-58027D01*
X66500Y-58050D01*
X67375Y-58050D01*
X66625Y-58799D01*
X66050Y-58799D01*
X65958Y-58837D01*
X65888Y-58908D01*
X65850Y-59000D01*
X65849Y-59099D01*
X65849Y-59699D01*
X65887Y-59791D01*
X65958Y-59861D01*
X66050Y-59899D01*
X66149Y-59900D01*
X66949Y-59900D01*
X67041Y-59862D01*
X67111Y-59791D01*
X67149Y-59699D01*
X67150Y-59600D01*
X67150Y-59124D01*
X67724Y-58550D01*
X67795Y-58550D01*
X67774Y-58600D01*
X67775Y-58637D01*
X67837Y-58700D01*
X68200Y-58700D01*
X68200Y-58692D01*
X68300Y-58692D01*
X68300Y-58700D01*
X68662Y-58700D01*
X68725Y-58637D01*
X68725Y-58600D01*
X68687Y-58508D01*
X68678Y-58500D01*
X68686Y-58491D01*
X68724Y-58399D01*
X68725Y-58300D01*
X68725Y-58100D01*
X68704Y-58050D01*
X68875Y-58050D01*
X69287Y-58462D01*
X69287Y-58462D01*
X69385Y-58527D01*
X69500Y-58550D01*
X69700Y-58550D01*
X69700Y-59500D01*
X69722Y-59614D01*
X69787Y-59712D01*
X70787Y-60712D01*
X70787Y-60712D01*
X70799Y-60720D01*
X70799Y-60949D01*
X70837Y-61041D01*
X70908Y-61111D01*
X71000Y-61149D01*
X71099Y-61150D01*
X71699Y-61150D01*
X71791Y-61112D01*
X71861Y-61041D01*
X71899Y-60949D01*
X71900Y-60850D01*
X71900Y-60050D01*
X71862Y-59958D01*
X71791Y-59888D01*
X71699Y-59850D01*
X71600Y-59849D01*
X71000Y-59849D01*
X70908Y-59887D01*
X70860Y-59936D01*
X70300Y-59375D01*
X70300Y-58960D01*
X70312Y-58991D01*
X70383Y-59061D01*
X70475Y-59099D01*
X70574Y-59100D01*
X71024Y-59100D01*
X71116Y-59062D01*
X71186Y-58991D01*
X71224Y-58899D01*
X71225Y-58800D01*
X71225Y-58600D01*
X71187Y-58508D01*
X71178Y-58500D01*
X71186Y-58491D01*
X71224Y-58399D01*
X71225Y-58300D01*
X71225Y-58100D01*
X71204Y-58050D01*
X71375Y-58050D01*
X72350Y-59024D01*
X72350Y-59849D01*
X72300Y-59849D01*
X72208Y-59887D01*
X72138Y-59958D01*
X72100Y-60050D01*
X72099Y-60149D01*
X72099Y-60949D01*
X72137Y-61041D01*
X72208Y-61111D01*
X72300Y-61149D01*
X72399Y-61150D01*
X72999Y-61150D01*
X73091Y-61112D01*
X73161Y-61041D01*
X73199Y-60949D01*
X73200Y-60850D01*
X73200Y-60050D01*
X73162Y-59958D01*
X73091Y-59888D01*
X72999Y-59850D01*
X72950Y-59850D01*
X72950Y-58900D01*
X72949Y-58899D01*
X72927Y-58785D01*
X72862Y-58687D01*
X72862Y-58687D01*
X71924Y-57749D01*
X73974Y-55700D01*
X74157Y-55700D01*
X74302Y-55844D01*
X74495Y-55924D01*
X74703Y-55925D01*
X74897Y-55845D01*
X75044Y-55697D01*
X75124Y-55504D01*
X75125Y-55296D01*
X75125Y-62230D01*
X70175Y-62230D01*
X70175Y-61415D01*
X70110Y-61259D01*
X69991Y-61139D01*
X69834Y-61075D01*
X69749Y-61074D01*
X69747Y-61073D01*
X69764Y-61066D01*
X69835Y-60996D01*
X69873Y-60904D01*
X69873Y-60804D01*
X69873Y-60095D01*
X69835Y-60004D01*
X69765Y-59933D01*
X69673Y-59895D01*
X69573Y-59895D01*
X68944Y-59895D01*
X68853Y-59933D01*
X68782Y-60003D01*
X68749Y-60082D01*
X68725Y-60022D01*
X68725Y-58899D01*
X68725Y-58862D01*
X68662Y-58800D01*
X68300Y-58800D01*
X68300Y-59037D01*
X68362Y-59100D01*
X68425Y-59100D01*
X68524Y-59099D01*
X68616Y-59061D01*
X68687Y-58991D01*
X68725Y-58899D01*
X68725Y-60022D01*
X68717Y-60004D01*
X68647Y-59933D01*
X68555Y-59895D01*
X68455Y-59895D01*
X68200Y-59895D01*
X68200Y-59037D01*
X68200Y-58800D01*
X67837Y-58800D01*
X67775Y-58862D01*
X67774Y-58899D01*
X67812Y-58991D01*
X67883Y-59061D01*
X67975Y-59099D01*
X68074Y-59100D01*
X68137Y-59100D01*
X68200Y-59037D01*
X68200Y-59895D01*
X67826Y-59895D01*
X67735Y-59933D01*
X67664Y-60003D01*
X67626Y-60095D01*
X67626Y-60195D01*
X67626Y-60350D01*
X67150Y-60350D01*
X67150Y-60300D01*
X67112Y-60208D01*
X67041Y-60138D01*
X66949Y-60100D01*
X66850Y-60099D01*
X66050Y-60099D01*
X65958Y-60137D01*
X65888Y-60208D01*
X65850Y-60300D01*
X65849Y-60399D01*
X65849Y-60999D01*
X65887Y-61091D01*
X65958Y-61161D01*
X66050Y-61199D01*
X66149Y-61200D01*
X66949Y-61200D01*
X67041Y-61162D01*
X67111Y-61091D01*
X67149Y-60999D01*
X67149Y-60950D01*
X67645Y-60950D01*
X67664Y-60995D01*
X67734Y-61066D01*
X67826Y-61104D01*
X67926Y-61104D01*
X68555Y-61104D01*
X68646Y-61066D01*
X68717Y-60996D01*
X68750Y-60917D01*
X68782Y-60995D01*
X68852Y-61066D01*
X68944Y-61104D01*
X69018Y-61104D01*
X69031Y-61173D01*
X69096Y-61271D01*
X69325Y-61499D01*
X69324Y-61584D01*
X69389Y-61740D01*
X69508Y-61860D01*
X69665Y-61924D01*
X69834Y-61925D01*
X69990Y-61860D01*
X70110Y-61741D01*
X70174Y-61584D01*
X70175Y-61415D01*
X70175Y-62230D01*
X63269Y-62230D01*
X63269Y-53269D01*
X75730Y-53269D01*
X75730Y-62230D01*
M02*
